<svg width="36" height="36" viewBox="0 0 36 36" fill="none" xmlns="http://www.w3.org/2000/svg">
<g clip-path="url(#clip0_14_51)">
<path d="M18.771 1.96348L31.9275 9.85648C32.0387 9.92307 32.1308 10.0174 32.1947 10.1301C32.2587 10.2429 32.2923 10.3703 32.2923 10.5C32.2923 10.6296 32.2587 10.757 32.1947 10.8698C32.1308 10.9826 32.0387 11.0769 31.9275 11.1435L18 19.5L4.0725 11.1435C3.96127 11.0769 3.8692 10.9826 3.80527 10.8698C3.74134 10.757 3.70774 10.6296 3.70774 10.5C3.70774 10.3703 3.74134 10.2429 3.80527 10.1301C3.8692 10.0174 3.96127 9.92307 4.0725 9.85648L17.2275 1.96348C17.4608 1.82332 17.7278 1.74927 18 1.74927C18.2722 1.74927 18.5392 1.82332 18.7725 1.96348H18.771Z" fill="white"/>
<path opacity="0.5" d="M30.1245 15.75L31.9275 16.8315C32.0388 16.8981 32.1308 16.9924 32.1948 17.1052C32.2587 17.2179 32.2923 17.3454 32.2923 17.475C32.2923 17.6046 32.2587 17.7321 32.1948 17.8448C32.1308 17.9576 32.0388 18.0519 31.9275 18.1185L18 26.475L4.07255 18.1185C3.96132 18.0519 3.86925 17.9576 3.80532 17.8448C3.74139 17.7321 3.70779 17.6046 3.70779 17.475C3.70779 17.3454 3.74139 17.2179 3.80532 17.1052C3.86925 16.9924 3.96132 16.8981 4.07255 16.8315L5.87555 15.75L18 23.025L30.1245 15.75ZM30.1245 22.8L31.9275 23.8815C32.0388 23.9481 32.1308 24.0424 32.1948 24.1552C32.2587 24.2679 32.2923 24.3954 32.2923 24.525C32.2923 24.6546 32.2587 24.7821 32.1948 24.8948C32.1308 25.0076 32.0388 25.1019 31.9275 25.1685L18.7725 33.0615C18.5392 33.2017 18.2722 33.2757 18 33.2757C17.7279 33.2757 17.4608 33.2017 17.2275 33.0615L4.07255 25.1685C3.96132 25.1019 3.86925 25.0076 3.80532 24.8948C3.74139 24.7821 3.70779 24.6546 3.70779 24.525C3.70779 24.3954 3.74139 24.2679 3.80532 24.1552C3.86925 24.0424 3.96132 23.9481 4.07255 23.8815L5.87555 22.8L18 30.075L30.1245 22.8Z" fill="white"/>
</g>
<defs>
<clipPath id="clip0_14_51">
<rect width="36" height="36" fill="white"/>
</clipPath>
</defs>
</svg>
