<svg width="36" height="36" viewBox="0 0 36 36" fill="none" xmlns="http://www.w3.org/2000/svg">
<g clip-path="url(#clip0_14_98)">
<path opacity="0.5" d="M8.19449 6.64951C10.9163 4.29101 14.3985 2.99499 18 3.00001C26.2845 3.00001 33 9.71551 33 18C33 21.204 31.995 24.174 30.285 26.61L25.5 18H30C30.0002 15.6474 29.3089 13.3467 28.012 11.3839C26.7151 9.42108 24.8699 7.88275 22.7058 6.9602C20.5416 6.03765 18.1541 5.77157 15.8399 6.19504C13.5258 6.61852 11.3872 7.71286 9.68999 9.34201L8.19449 6.64951Z" fill="white"/>
<path d="M27.8055 29.3504C25.0836 31.7089 21.6015 33.0049 18 32.9999C9.71547 32.9999 2.99997 26.2844 2.99997 17.9999C2.99997 14.7959 4.00497 11.8259 5.71497 9.38989L10.5 17.9999H5.99997C5.99978 20.3525 6.6911 22.6532 7.98798 24.616C9.28485 26.5788 11.1301 28.1172 13.2942 29.0397C15.4583 29.9623 17.8459 30.2283 20.16 29.8049C22.4742 29.3814 24.6128 28.287 26.31 26.6579L27.8055 29.3504Z" fill="white"/>
</g>
<defs>
<clipPath id="clip0_14_98">
<rect width="36" height="36" fill="white"/>
</clipPath>
</defs>
</svg>
