<svg width="22" height="22" viewBox="0 0 22 22" fill="none" xmlns="http://www.w3.org/2000/svg">
<g clip-path="url(#clip0_512_11100)">
<path d="M11 16.4998C9.54127 16.4998 8.14232 15.9204 7.11087 14.8889C6.07942 13.8575 5.49996 12.4585 5.49996 10.9998C5.49996 9.54115 6.07942 8.1422 7.11087 7.11075C8.14232 6.0793 9.54127 5.49984 11 5.49984C12.4587 5.49984 13.8576 6.0793 14.889 7.11075C15.9205 8.1422 16.5 9.54115 16.5 10.9998C16.5 12.4585 15.9205 13.8575 14.889 14.8889C13.8576 15.9204 12.4587 16.4998 11 16.4998ZM11 14.6665C11.9724 14.6665 12.9051 14.2802 13.5927 13.5926C14.2803 12.9049 14.6666 11.9723 14.6666 10.9998C14.6666 10.0274 14.2803 9.09475 13.5927 8.40711C12.9051 7.71948 11.9724 7.33317 11 7.33317C10.0275 7.33317 9.09487 7.71948 8.40724 8.40711C7.7196 9.09475 7.33329 10.0274 7.33329 10.9998C7.33329 11.9723 7.7196 12.9049 8.40724 13.5926C9.09487 14.2802 10.0275 14.6665 11 14.6665ZM10.0833 0.916504H11.9166V3.6665H10.0833V0.916504ZM10.0833 18.3332H11.9166V21.0832H10.0833V18.3332ZM3.22204 4.51809L4.51821 3.22192L6.46246 5.16617L5.16629 6.46234L3.22204 4.519V4.51809ZM15.5375 16.8335L16.8336 15.5373L18.7779 17.4816L17.4817 18.7778L15.5375 16.8335ZM17.4817 3.221L18.7779 4.51809L16.8336 6.46234L15.5375 5.16617L17.4817 3.22192V3.221ZM5.16629 15.5373L6.46246 16.8335L4.51821 18.7778L3.22204 17.4816L5.16629 15.5373ZM21.0833 10.0832V11.9165H18.3333V10.0832H21.0833ZM3.66663 10.0832V11.9165H0.916626V10.0832H3.66663Z" fill="white"/>
</g>
<defs>
<clipPath id="clip0_512_11100">
<rect width="22" height="22" fill="white"/>
</clipPath>
</defs>
</svg>
