<svg width="36" height="36" viewBox="0 0 36 36" fill="none" xmlns="http://www.w3.org/2000/svg">
<g clip-path="url(#clip0_14_88)">
<path d="M30 33H6C5.60218 33 5.22064 32.842 4.93934 32.5607C4.65804 32.2794 4.5 31.8978 4.5 31.5V12H31.5V31.5C31.5 31.8978 31.342 32.2794 31.0607 32.5607C30.7794 32.842 30.3978 33 30 33ZM10.5 16.5V22.5H16.5V16.5H10.5ZM10.5 25.5V28.5H25.5V25.5H10.5ZM19.5 18V21H25.5V18H19.5Z" fill="white"/>
<path opacity="0.5" d="M31.5 9H4.5V4.5C4.5 4.10218 4.65804 3.72064 4.93934 3.43934C5.22064 3.15804 5.60218 3 6 3H30C30.3978 3 30.7794 3.15804 31.0607 3.43934C31.342 3.72064 31.5 4.10218 31.5 4.5V9Z" fill="white"/>
</g>
<defs>
<clipPath id="clip0_14_88">
<rect width="36" height="36" fill="white"/>
</clipPath>
</defs>
</svg>
