<svg width="588" height="527" viewBox="0 0 588 527" fill="none" xmlns="http://www.w3.org/2000/svg">
<rect x="588" y="500" width="588" height="500" rx="8" transform="rotate(180 588 500)" fill="url(#paint0_linear_512_10681)"/>
<path d="M103.331 68.3246H443.774C445.1 68.3246 446.372 68.8514 447.309 69.7891C448.247 70.7267 448.774 71.9985 448.774 73.3246V93.5006H98.3308V73.3246C98.3308 71.9985 98.8576 70.7267 99.7953 69.7891C100.733 68.8514 102.005 68.3246 103.331 68.3246V68.3246Z" fill="#181C31"/>
<g filter="url(#filter0_d_512_10681)">
<path d="M97.9999 92.9523H448V415.172C448 416.44 447.474 417.656 446.537 418.552C445.601 419.449 444.331 419.952 443.007 419.952H102.993C101.669 419.952 100.399 419.449 99.4623 418.552C98.5259 417.656 97.9999 416.44 97.9999 415.172V92.9523Z" fill="#292E45"/>
</g>
<path d="M137.15 83.7226C138.509 83.7226 139.61 82.5935 139.61 81.2006C139.61 79.8077 138.509 78.6786 137.15 78.6786C135.791 78.6786 134.69 79.8077 134.69 81.2006C134.69 82.5935 135.791 83.7226 137.15 83.7226Z" fill="#77F28A"/>
<path d="M119.17 83.7226C120.529 83.7226 121.63 82.5935 121.63 81.2006C121.63 79.8077 120.529 78.6786 119.17 78.6786C117.811 78.6786 116.71 79.8077 116.71 81.2006C116.71 82.5935 117.811 83.7226 119.17 83.7226Z" fill="#EF5C00"/>
<path d="M127.977 83.7226C129.335 83.7226 130.437 82.5935 130.437 81.2006C130.437 79.8077 129.335 78.6786 127.977 78.6786C126.618 78.6786 125.517 79.8077 125.517 81.2006C125.517 82.5935 126.618 83.7226 127.977 83.7226Z" fill="#FFDB26"/>
<g clip-path="url(#clip0_512_10681)">
<path d="M133.168 168.42C135.308 168.42 137.044 166.685 137.044 164.544C137.044 162.403 135.308 160.668 133.168 160.668C131.027 160.668 129.292 162.403 129.292 164.544C129.292 166.685 131.027 168.42 133.168 168.42Z" fill="#2F80ED"/>
<path d="M148.224 163.135H147.44V168.312H147.376L143.779 163.135H143.008V169.712H143.805V164.548H143.869L147.453 169.712H148.224V163.135ZM151.783 169.815C152.785 169.815 153.517 169.314 153.749 168.569L153.017 168.363C152.824 168.877 152.377 169.134 151.783 169.134C150.894 169.134 150.28 168.559 150.245 167.502H153.826V167.181C153.826 165.344 152.734 164.715 151.706 164.715C150.37 164.715 149.484 165.768 149.484 167.284C149.484 168.8 150.357 169.815 151.783 169.815ZM150.245 166.847C150.296 166.08 150.839 165.395 151.706 165.395C152.528 165.395 153.055 166.012 153.055 166.847H150.245ZM156.096 169.712H156.842L157.921 165.922H157.998L159.077 169.712H159.822L161.325 164.779H160.528L159.462 168.543H159.411L158.37 164.779H157.561L156.508 168.556H156.456L155.39 164.779H154.593L156.096 169.712ZM165.243 163.135H164.408L166.823 169.712H167.645L170.061 163.135H169.226L167.273 168.671H167.196L165.243 163.135ZM170.982 169.712H171.74V164.779H170.982V169.712ZM171.368 163.957C171.663 163.957 171.907 163.725 171.907 163.443C171.907 163.16 171.663 162.929 171.368 162.929C171.072 162.929 170.828 163.16 170.828 163.443C170.828 163.725 171.072 163.957 171.368 163.957ZM176.623 165.884C176.385 165.184 175.852 164.715 174.876 164.715C173.835 164.715 173.064 165.306 173.064 166.141C173.064 166.821 173.469 167.277 174.375 167.489L175.197 167.682C175.695 167.798 175.929 168.035 175.929 168.376C175.929 168.8 175.479 169.147 174.773 169.147C174.153 169.147 173.764 168.88 173.629 168.35L172.91 168.53C173.087 169.368 173.777 169.815 174.786 169.815C175.932 169.815 176.713 169.188 176.713 168.337C176.713 167.65 176.282 167.216 175.402 167.001L174.67 166.821C174.086 166.677 173.822 166.481 173.822 166.102C173.822 165.678 174.272 165.37 174.876 165.37C175.537 165.37 175.81 165.736 175.942 166.076L176.623 165.884ZM177.854 169.712H178.612V164.779H177.854V169.712ZM178.239 163.957C178.534 163.957 178.779 163.725 178.779 163.443C178.779 163.16 178.534 162.929 178.239 162.929C177.944 162.929 177.699 163.16 177.699 163.443C177.699 163.725 177.944 163.957 178.239 163.957ZM182.145 164.779H181.092V163.597H180.334V164.779H179.589V165.421H180.334V168.504C180.334 169.365 181.027 169.776 181.67 169.776C181.952 169.776 182.132 169.725 182.235 169.686L182.081 169.005C182.017 169.018 181.914 169.044 181.747 169.044C181.413 169.044 181.092 168.941 181.092 168.299V165.421H182.145V164.779ZM185.236 169.815C186.572 169.815 187.472 168.8 187.472 167.271C187.472 165.729 186.572 164.715 185.236 164.715C183.9 164.715 183.001 165.729 183.001 167.271C183.001 168.8 183.9 169.815 185.236 169.815ZM185.236 169.134C184.221 169.134 183.759 168.26 183.759 167.271C183.759 166.282 184.221 165.395 185.236 165.395C186.251 165.395 186.714 166.282 186.714 167.271C186.714 168.26 186.251 169.134 185.236 169.134ZM188.629 169.712H189.387V166.59C189.387 165.922 189.913 165.434 190.633 165.434C190.835 165.434 191.044 165.473 191.095 165.485V164.715C191.008 164.708 190.809 164.702 190.697 164.702C190.106 164.702 189.592 165.036 189.412 165.524H189.361V164.779H188.629V169.712Z" fill="white"/>
<path d="M196.464 168.556H197.183V166.796H198.944V166.076H197.183V164.316H196.464V166.076H194.704V166.796H196.464V168.556ZM200.177 169.712H204.326V169.005H201.269V168.954L202.746 167.374C203.877 166.163 204.211 165.598 204.211 164.869C204.211 163.854 203.388 163.045 202.233 163.045C201.079 163.045 200.203 163.828 200.203 164.984H200.961C200.961 164.236 201.446 163.738 202.207 163.738C202.919 163.738 203.466 164.175 203.466 164.869C203.466 165.476 203.109 165.925 202.348 166.757L200.177 169.134V169.712ZM207.708 169.802C208.961 169.802 209.879 168.877 209.879 167.618C209.879 166.343 208.993 165.408 207.785 165.408C207.342 165.408 206.911 165.566 206.642 165.781H206.603L206.835 163.841H209.584V163.135H206.167L205.768 166.372L206.514 166.462C206.786 166.266 207.252 166.125 207.657 166.128C208.495 166.134 209.109 166.77 209.109 167.631C209.109 168.475 208.517 169.095 207.708 169.095C207.034 169.095 206.497 168.662 206.436 168.068H205.665C205.714 169.07 206.577 169.802 207.708 169.802ZM211.473 169.763C211.791 169.763 212.051 169.503 212.051 169.185C212.051 168.867 211.791 168.607 211.473 168.607C211.155 168.607 210.895 168.867 210.895 169.185C210.895 169.503 211.155 169.763 211.473 169.763ZM215.321 169.802C216.574 169.802 217.492 168.877 217.492 167.618C217.492 166.343 216.606 165.408 215.399 165.408C214.955 165.408 214.525 165.566 214.255 165.781H214.216L214.448 163.841H217.197V163.135H213.78L213.381 166.372L214.127 166.462C214.399 166.266 214.865 166.125 215.27 166.128C216.108 166.134 216.722 166.77 216.722 167.631C216.722 168.475 216.13 169.095 215.321 169.095C214.647 169.095 214.11 168.662 214.05 168.068H213.278C213.327 169.07 214.191 169.802 215.321 169.802ZM220.824 169.802C222.076 169.802 222.995 168.877 222.995 167.618C222.995 166.343 222.109 165.408 220.901 165.408C220.457 165.408 220.027 165.566 219.757 165.781H219.719L219.95 163.841H222.699V163.135H219.282L218.884 166.372L219.629 166.462C219.902 166.266 220.368 166.125 220.772 166.128C221.61 166.134 222.224 166.77 222.224 167.631C222.224 168.475 221.633 169.095 220.824 169.095C220.149 169.095 219.613 168.662 219.552 168.068H218.781C218.829 169.07 219.693 169.802 220.824 169.802ZM227.623 168.479C227.623 169.198 228.073 169.802 228.908 169.802C229.73 169.802 230.18 169.198 230.18 168.479V168.132C230.18 167.412 229.743 166.809 228.908 166.809C228.086 166.809 227.623 167.412 227.623 168.132V168.479ZM224.348 164.715C224.348 165.434 224.797 166.038 225.632 166.038C226.454 166.038 226.904 165.434 226.904 164.715V164.368C226.904 163.648 226.467 163.045 225.632 163.045C224.81 163.045 224.348 163.648 224.348 164.368V164.715ZM224.592 169.712H225.324L229.846 163.135H229.114L224.592 169.712ZM228.278 168.132C228.278 167.734 228.459 167.361 228.908 167.361C229.371 167.361 229.525 167.734 229.525 168.132V168.479C229.525 168.877 229.358 169.25 228.908 169.25C228.446 169.25 228.278 168.877 228.278 168.479V168.132ZM225.003 164.368C225.003 163.97 225.183 163.597 225.632 163.597C226.094 163.597 226.249 163.97 226.249 164.368V164.715C226.249 165.113 226.082 165.486 225.632 165.486C225.17 165.486 225.003 165.113 225.003 164.715V164.368Z" fill="#219653"/>
<path d="M239.11 161.797L237.955 160.812C237.679 160.603 237.286 160.603 237.01 160.812L235.856 161.797C235.711 161.941 235.685 162.151 235.816 162.282C235.948 162.413 236.17 162.453 236.302 162.321L237.142 161.626V168.712C237.142 168.922 237.286 169.066 237.496 169.066C237.706 169.066 237.85 168.922 237.85 168.712V161.665L238.69 162.361C238.729 162.4 238.835 162.426 238.9 162.426C239.005 162.426 239.11 162.387 239.176 162.282C239.28 162.151 239.28 161.941 239.11 161.797Z" fill="#219653"/>
<path d="M264.305 168.42C266.445 168.42 268.181 166.685 268.181 164.544C268.181 162.403 266.445 160.668 264.305 160.668C262.164 160.668 260.429 162.403 260.429 164.544C260.429 166.685 262.164 168.42 264.305 168.42Z" fill="#EB5757"/>
<path d="M278.462 163.135V167.425C278.462 168.389 277.8 169.082 276.701 169.082C275.603 169.082 274.942 168.389 274.942 167.425V163.135H274.145V167.489C274.145 168.838 275.154 169.828 276.701 169.828C278.25 169.828 279.258 168.838 279.258 167.489V163.135H278.462ZM281.504 166.744C281.504 165.884 282.037 165.395 282.763 165.395C283.466 165.395 283.893 165.855 283.893 166.629V169.712H284.651V166.577C284.651 165.318 283.98 164.715 282.981 164.715C282.236 164.715 281.774 165.049 281.543 165.55H281.478V164.779H280.746V169.712H281.504V166.744ZM286.036 169.712H286.795V164.779H286.036V169.712ZM286.422 163.957C286.717 163.957 286.961 163.725 286.961 163.443C286.961 163.16 286.717 162.929 286.422 162.929C286.126 162.929 285.882 163.16 285.882 163.443C285.882 163.725 286.126 163.957 286.422 163.957ZM292.306 171.562V164.779H291.574V165.562H291.484C291.317 165.306 291.021 164.715 290.058 164.715C288.812 164.715 287.951 165.704 287.951 167.258C287.951 168.825 288.812 169.815 290.045 169.815C290.996 169.815 291.317 169.224 291.484 168.954H291.548V171.562H292.306ZM291.561 167.245C291.561 168.363 291.06 169.134 290.148 169.134C289.198 169.134 288.709 168.299 288.709 167.245C288.709 166.205 289.185 165.395 290.148 165.395C291.073 165.395 291.561 166.141 291.561 167.245ZM296.802 167.695C296.802 168.62 296.096 169.044 295.531 169.044C294.901 169.044 294.451 168.581 294.451 167.862V164.779H293.694V167.913C293.694 169.172 294.362 169.776 295.287 169.776C296.032 169.776 296.52 169.378 296.751 168.877H296.802V169.712H297.561V164.779H296.802V167.695ZM301.017 169.815C302.019 169.815 302.751 169.314 302.983 168.569L302.25 168.363C302.057 168.877 301.611 169.134 301.017 169.134C300.127 169.134 299.514 168.559 299.479 167.502H303.059V167.181C303.059 165.344 301.968 164.715 300.94 164.715C299.604 164.715 298.718 165.768 298.718 167.284C298.718 168.8 299.591 169.815 301.017 169.815ZM299.479 166.847C299.53 166.08 300.073 165.395 300.94 165.395C301.762 165.395 302.289 166.012 302.289 166.847H299.479ZM307.129 163.135H306.294L308.709 169.712H309.531L311.946 163.135H311.111L309.158 168.671H309.081L307.129 163.135ZM312.868 169.712H313.626V164.779H312.868V169.712ZM313.253 163.957C313.548 163.957 313.793 163.725 313.793 163.443C313.793 163.16 313.548 162.929 313.253 162.929C312.958 162.929 312.714 163.16 312.714 163.443C312.714 163.725 312.958 163.957 313.253 163.957ZM318.508 165.884C318.271 165.184 317.738 164.715 316.761 164.715C315.72 164.715 314.95 165.306 314.95 166.141C314.95 166.821 315.355 167.277 316.26 167.489L317.082 167.682C317.58 167.798 317.815 168.035 317.815 168.376C317.815 168.8 317.365 169.147 316.658 169.147C316.039 169.147 315.65 168.88 315.515 168.35L314.796 168.53C314.972 169.368 315.663 169.815 316.671 169.815C317.818 169.815 318.598 169.188 318.598 168.337C318.598 167.65 318.168 167.216 317.288 167.001L316.556 166.821C315.971 166.677 315.708 166.481 315.708 166.102C315.708 165.678 316.158 165.37 316.761 165.37C317.422 165.37 317.696 165.736 317.828 166.076L318.508 165.884ZM319.739 169.712H320.497V164.779H319.739V169.712ZM320.125 163.957C320.42 163.957 320.664 163.725 320.664 163.443C320.664 163.16 320.42 162.929 320.125 162.929C319.829 162.929 319.585 163.16 319.585 163.443C319.585 163.725 319.829 163.957 320.125 163.957ZM324.03 164.779H322.977V163.597H322.219V164.779H321.474V165.421H322.219V168.504C322.219 169.365 322.913 169.776 323.556 169.776C323.838 169.776 324.018 169.725 324.121 169.686L323.966 169.005C323.902 169.018 323.799 169.044 323.632 169.044C323.298 169.044 322.977 168.941 322.977 168.299V165.421H324.03V164.779ZM327.122 169.815C328.458 169.815 329.357 168.8 329.357 167.271C329.357 165.729 328.458 164.715 327.122 164.715C325.786 164.715 324.886 165.729 324.886 167.271C324.886 168.8 325.786 169.815 327.122 169.815ZM327.122 169.134C326.107 169.134 325.645 168.26 325.645 167.271C325.645 166.282 326.107 165.395 327.122 165.395C328.137 165.395 328.6 166.282 328.6 167.271C328.6 168.26 328.137 169.134 327.122 169.134ZM330.514 169.712H331.272V166.59C331.272 165.922 331.798 165.434 332.518 165.434C332.72 165.434 332.929 165.473 332.981 165.485V164.715C332.894 164.708 332.695 164.702 332.583 164.702C331.992 164.702 331.477 165.036 331.298 165.524H331.246V164.779H330.514V169.712Z" fill="white"/>
<path d="M338.35 168.556H339.069V166.796H340.829V166.076H339.069V164.316H338.35V166.076H336.59V166.796H338.35V168.556ZM342.217 168.363H345.313V169.712H346.071V168.363H346.97V167.657H346.071V163.135H345.108L342.217 167.708V168.363ZM345.313 167.657H343.078V167.605L345.262 164.149H345.313V167.657ZM350.229 169.802C351.482 169.802 352.401 168.877 352.401 167.618C352.401 166.343 351.514 165.408 350.307 165.408C349.863 165.408 349.433 165.566 349.164 165.781H349.125L349.356 163.841H352.105V163.135H348.688L348.289 166.372L349.035 166.462C349.308 166.266 349.773 166.125 350.178 166.128C351.016 166.134 351.63 166.77 351.63 167.631C351.63 168.475 351.039 169.095 350.229 169.095C349.555 169.095 349.019 168.662 348.957 168.068H348.187C348.235 169.07 349.099 169.802 350.229 169.802ZM353.994 169.763C354.312 169.763 354.572 169.503 354.572 169.185C354.572 168.867 354.312 168.607 353.994 168.607C353.676 168.607 353.416 168.867 353.416 169.185C353.416 169.503 353.676 169.763 353.994 169.763ZM357.842 169.802C359.095 169.802 360.014 168.877 360.014 167.618C360.014 166.343 359.127 165.408 357.92 165.408C357.477 165.408 357.046 165.566 356.777 165.781H356.738L356.969 163.841H359.718V163.135H356.301L355.903 166.372L356.648 166.462C356.921 166.266 357.386 166.125 357.791 166.128C358.629 166.134 359.243 166.77 359.243 167.631C359.243 168.475 358.652 169.095 357.842 169.095C357.168 169.095 356.632 168.662 356.571 168.068H355.8C355.848 169.07 356.712 169.802 357.842 169.802ZM363.345 169.802C364.598 169.802 365.516 168.877 365.516 167.618C365.516 166.343 364.63 165.408 363.422 165.408C362.979 165.408 362.549 165.566 362.279 165.781H362.24L362.472 163.841H365.22V163.135H361.804L361.405 166.372L362.15 166.462C362.423 166.266 362.889 166.125 363.293 166.128C364.132 166.134 364.746 166.77 364.746 167.631C364.746 168.475 364.154 169.095 363.345 169.095C362.671 169.095 362.134 168.662 362.073 168.068H361.302C361.351 169.07 362.215 169.802 363.345 169.802ZM370.145 168.479C370.145 169.198 370.594 169.802 371.43 169.802C372.251 169.802 372.701 169.198 372.701 168.479V168.132C372.701 167.412 372.264 166.809 371.43 166.809C370.607 166.809 370.145 167.412 370.145 168.132V168.479ZM366.869 164.715C366.869 165.434 367.319 166.038 368.154 166.038C368.976 166.038 369.425 165.434 369.425 164.715V164.368C369.425 163.648 368.988 163.045 368.154 163.045C367.331 163.045 366.869 163.648 366.869 164.368V164.715ZM367.113 169.712H367.845L372.367 163.135H371.635L367.113 169.712ZM370.8 168.132C370.8 167.734 370.98 167.361 371.43 167.361C371.892 167.361 372.046 167.734 372.046 168.132V168.479C372.046 168.877 371.879 169.25 371.43 169.25C370.967 169.25 370.8 168.877 370.8 168.479V168.132ZM367.524 164.368C367.524 163.97 367.704 163.597 368.154 163.597C368.616 163.597 368.77 163.97 368.77 164.368V164.715C368.77 165.113 368.603 165.486 368.154 165.486C367.691 165.486 367.524 165.113 367.524 164.715V164.368Z" fill="#219653"/>
<path d="M381.229 161.797L380.074 160.812C379.798 160.603 379.405 160.603 379.129 160.812L377.975 161.797C377.831 161.941 377.804 162.151 377.936 162.282C378.067 162.413 378.29 162.453 378.421 162.321L379.261 161.626V168.712C379.261 168.922 379.405 169.066 379.615 169.066C379.825 169.066 379.969 168.922 379.969 168.712V161.665L380.809 162.361C380.848 162.4 380.953 162.426 381.019 162.426C381.124 162.426 381.229 162.387 381.295 162.282C381.4 162.151 381.4 161.941 381.229 161.797Z" fill="#219653"/>
<path d="M130.736 362.954C130.359 362.954 130.02 362.879 129.718 362.729C129.416 362.579 129.174 362.374 128.992 362.113C128.81 361.851 128.711 361.554 128.694 361.22H129.464C129.494 361.517 129.629 361.764 129.869 361.959C130.111 362.151 130.4 362.247 130.736 362.247C131.006 362.247 131.246 362.185 131.456 362.058C131.668 361.932 131.834 361.758 131.953 361.538C132.075 361.315 132.136 361.064 132.136 360.783C132.136 360.496 132.073 360.24 131.947 360.016C131.823 359.789 131.652 359.61 131.433 359.479C131.215 359.349 130.965 359.282 130.685 359.28C130.484 359.278 130.277 359.309 130.065 359.373C129.853 359.435 129.679 359.516 129.541 359.614L128.796 359.525L129.195 356.287H132.612V356.994H129.863L129.631 358.934H129.67C129.805 358.826 129.974 358.738 130.177 358.667C130.381 358.596 130.593 358.561 130.813 358.561C131.216 358.561 131.574 358.657 131.889 358.85C132.206 359.04 132.454 359.302 132.634 359.634C132.816 359.965 132.907 360.344 132.907 360.771C132.907 361.19 132.813 361.565 132.625 361.895C132.438 362.222 132.181 362.481 131.854 362.672C131.526 362.86 131.154 362.954 130.736 362.954ZM136.328 362.954C135.603 362.954 135.039 362.66 134.639 362.071C134.241 361.483 134.042 360.651 134.042 359.576C134.042 358.51 134.243 357.68 134.646 357.087C135.048 356.494 135.609 356.197 136.328 356.197C137.048 356.197 137.609 356.494 138.011 357.087C138.414 357.68 138.615 358.51 138.615 359.576C138.615 360.651 138.415 361.483 138.015 362.071C137.616 362.66 137.054 362.954 136.328 362.954ZM136.328 362.247C136.808 362.247 137.181 362.016 137.446 361.554C137.712 361.092 137.844 360.432 137.844 359.576C137.844 358.722 137.71 358.061 137.443 357.594C137.175 357.125 136.804 356.891 136.328 356.891C135.853 356.891 135.482 357.125 135.214 357.594C134.946 358.061 134.813 358.722 134.813 359.576C134.813 360.432 134.945 361.092 135.211 361.554C135.478 362.016 135.851 362.247 136.328 362.247Z" fill="white"/>
<path d="M130.993 315.589V322.167H130.197V316.424H130.158L128.552 317.49V316.682L130.197 315.589H130.993ZM135.03 322.257C134.304 322.257 133.741 321.962 133.341 321.373C132.943 320.785 132.743 319.953 132.743 318.878C132.743 317.812 132.945 316.982 133.347 316.389C133.75 315.796 134.311 315.499 135.03 315.499C135.749 315.499 136.31 315.796 136.713 316.389C137.115 316.982 137.317 317.812 137.317 318.878C137.317 319.953 137.117 320.785 136.716 321.373C136.318 321.962 135.756 322.257 135.03 322.257ZM135.03 321.55C135.51 321.55 135.882 321.319 136.148 320.857C136.413 320.394 136.546 319.735 136.546 318.878C136.546 318.024 136.412 317.363 136.145 316.897C135.877 316.428 135.505 316.193 135.03 316.193C134.555 316.193 134.183 316.428 133.916 316.897C133.648 317.363 133.514 318.024 133.514 318.878C133.514 319.735 133.647 320.394 133.912 320.857C134.18 321.319 134.553 321.55 135.03 321.55ZM140.683 322.257C139.957 322.257 139.394 321.962 138.993 321.373C138.595 320.785 138.396 319.953 138.396 318.878C138.396 317.812 138.597 316.982 139 316.389C139.402 315.796 139.963 315.499 140.683 315.499C141.402 315.499 141.963 315.796 142.365 316.389C142.768 316.982 142.969 317.812 142.969 318.878C142.969 319.953 142.769 320.785 142.369 321.373C141.97 321.962 141.408 322.257 140.683 322.257ZM140.683 321.55C141.162 321.55 141.535 321.319 141.8 320.857C142.066 320.394 142.198 319.735 142.198 318.878C142.198 318.024 142.065 317.363 141.797 316.897C141.529 316.428 141.158 316.193 140.683 316.193C140.207 316.193 139.836 316.428 139.568 316.897C139.3 317.363 139.167 318.024 139.167 318.878C139.167 319.735 139.299 320.394 139.565 320.857C139.833 321.319 140.205 321.55 140.683 321.55Z" fill="white"/>
<path d="M130.993 274.892V281.469H130.197V275.727H130.158L128.552 276.793V275.984L130.197 274.892H130.993ZM134.94 281.559C134.563 281.559 134.224 281.484 133.922 281.334C133.62 281.184 133.378 280.979 133.196 280.718C133.014 280.456 132.915 280.159 132.898 279.825H133.668C133.698 280.122 133.833 280.368 134.073 280.563C134.315 280.756 134.604 280.852 134.94 280.852C135.21 280.852 135.45 280.789 135.66 280.663C135.872 280.537 136.037 280.363 136.157 280.143C136.279 279.92 136.34 279.669 136.34 279.388C136.34 279.101 136.277 278.845 136.151 278.62C136.027 278.393 135.855 278.215 135.637 278.084C135.419 277.954 135.169 277.887 134.889 277.885C134.688 277.883 134.481 277.914 134.269 277.978C134.057 278.04 133.882 278.12 133.745 278.219L133 278.129L133.399 274.892H136.816V275.598H134.067L133.835 277.538H133.874C134.009 277.431 134.178 277.342 134.381 277.271C134.585 277.201 134.797 277.165 135.017 277.165C135.42 277.165 135.778 277.262 136.093 277.455C136.41 277.645 136.658 277.906 136.838 278.238C137.02 278.57 137.111 278.949 137.111 279.375C137.111 279.795 137.017 280.169 136.829 280.499C136.642 280.827 136.385 281.086 136.058 281.277C135.73 281.465 135.358 281.559 134.94 281.559ZM140.532 281.559C139.807 281.559 139.243 281.264 138.843 280.676C138.445 280.087 138.246 279.255 138.246 278.18C138.246 277.114 138.447 276.284 138.85 275.691C139.252 275.098 139.813 274.802 140.532 274.802C141.252 274.802 141.813 275.098 142.215 275.691C142.618 276.284 142.819 277.114 142.819 278.18C142.819 279.255 142.619 280.087 142.219 280.676C141.82 281.264 141.258 281.559 140.532 281.559ZM140.532 280.852C141.012 280.852 141.385 280.621 141.65 280.159C141.916 279.696 142.048 279.037 142.048 278.18C142.048 277.326 141.914 276.665 141.647 276.199C141.379 275.73 141.008 275.496 140.532 275.496C140.057 275.496 139.686 275.73 139.418 276.199C139.15 276.665 139.017 277.326 139.017 278.18C139.017 279.037 139.149 279.696 139.415 280.159C139.682 280.621 140.055 280.852 140.532 280.852Z" fill="white"/>
<path d="M128.681 240.771V240.193L130.852 237.817C131.107 237.538 131.316 237.297 131.481 237.091C131.646 236.883 131.768 236.688 131.847 236.507C131.929 236.322 131.969 236.129 131.969 235.928C131.969 235.582 131.849 235.306 131.607 235.103C131.367 234.899 131.068 234.798 130.711 234.798C130.329 234.798 130.026 234.912 129.802 235.142C129.577 235.368 129.464 235.669 129.464 236.044H128.706C128.706 235.658 128.795 235.321 128.973 235.029C129.151 234.738 129.393 234.511 129.699 234.348C130.007 234.186 130.353 234.104 130.736 234.104C131.122 234.104 131.463 234.186 131.761 234.348C132.058 234.511 132.292 234.73 132.461 235.007C132.63 235.283 132.715 235.59 132.715 235.928C132.715 236.17 132.671 236.407 132.583 236.638C132.497 236.867 132.347 237.123 132.133 237.406C131.921 237.686 131.627 238.028 131.25 238.434L129.773 240.014V240.065H132.83V240.771H128.681ZM136.302 240.861C135.576 240.861 135.013 240.567 134.613 239.978C134.214 239.39 134.015 238.558 134.015 237.483C134.015 236.417 134.217 235.587 134.619 234.994C135.022 234.401 135.583 234.104 136.302 234.104C137.021 234.104 137.582 234.401 137.985 234.994C138.387 235.587 138.589 236.417 138.589 237.483C138.589 238.558 138.388 239.39 137.988 239.978C137.59 240.567 137.028 240.861 136.302 240.861ZM136.302 240.154C136.782 240.154 137.154 239.923 137.42 239.461C137.685 238.999 137.818 238.339 137.818 237.483C137.818 236.629 137.684 235.968 137.416 235.501C137.149 235.032 136.777 234.798 136.302 234.798C135.827 234.798 135.455 235.032 135.188 235.501C134.92 235.968 134.786 236.629 134.786 237.483C134.786 238.339 134.919 238.999 135.184 239.461C135.452 239.923 135.825 240.154 136.302 240.154ZM141.954 240.861C141.229 240.861 140.666 240.567 140.265 239.978C139.867 239.39 139.668 238.558 139.668 237.483C139.668 236.417 139.869 235.587 140.272 234.994C140.674 234.401 141.235 234.104 141.954 234.104C142.674 234.104 143.235 234.401 143.637 234.994C144.04 235.587 144.241 236.417 144.241 237.483C144.241 238.558 144.041 239.39 143.641 239.978C143.242 240.567 142.68 240.861 141.954 240.861ZM141.954 240.154C142.434 240.154 142.807 239.923 143.072 239.461C143.338 238.999 143.47 238.339 143.47 237.483C143.47 236.629 143.337 235.968 143.069 235.501C142.801 235.032 142.43 234.798 141.954 234.798C141.479 234.798 141.108 235.032 140.84 235.501C140.572 235.968 140.439 236.629 140.439 237.483C140.439 238.339 140.571 238.999 140.837 239.461C141.104 239.923 141.477 240.154 141.954 240.154Z" fill="white"/>
<path d="M128.681 199.897V199.319L130.852 196.943C131.107 196.664 131.316 196.422 131.481 196.216C131.646 196.009 131.768 195.814 131.847 195.632C131.929 195.448 131.969 195.255 131.969 195.054C131.969 194.707 131.849 194.432 131.607 194.229C131.367 194.025 131.068 193.923 130.711 193.923C130.329 193.923 130.026 194.038 129.802 194.267C129.577 194.494 129.464 194.795 129.464 195.17H128.706C128.706 194.784 128.795 194.446 128.973 194.155C129.151 193.864 129.393 193.637 129.699 193.474C130.007 193.311 130.353 193.23 130.736 193.23C131.122 193.23 131.463 193.311 131.761 193.474C132.058 193.637 132.292 193.856 132.461 194.132C132.63 194.408 132.715 194.716 132.715 195.054C132.715 195.296 132.671 195.533 132.583 195.764C132.497 195.993 132.347 196.249 132.133 196.531C131.921 196.812 131.627 197.154 131.25 197.559L129.773 199.139V199.191H132.83V199.897H128.681ZM136.212 199.987C135.835 199.987 135.496 199.912 135.194 199.762C134.892 199.612 134.65 199.407 134.468 199.145C134.286 198.884 134.187 198.587 134.169 198.253H134.94C134.97 198.55 135.105 198.797 135.345 198.992C135.587 199.184 135.876 199.28 136.212 199.28C136.482 199.28 136.722 199.217 136.931 199.091C137.143 198.965 137.309 198.791 137.429 198.57C137.551 198.348 137.612 198.096 137.612 197.816C137.612 197.529 137.549 197.273 137.423 197.049C137.299 196.821 137.127 196.643 136.909 196.512C136.691 196.381 136.441 196.315 136.161 196.313C135.959 196.311 135.753 196.342 135.541 196.406C135.329 196.468 135.154 196.549 135.017 196.647L134.272 196.557L134.67 193.32H138.088V194.026H135.338L135.107 195.966H135.146C135.281 195.859 135.45 195.77 135.653 195.7C135.857 195.629 136.069 195.594 136.289 195.594C136.692 195.594 137.05 195.69 137.365 195.883C137.682 196.073 137.93 196.334 138.11 196.666C138.292 196.998 138.383 197.377 138.383 197.803C138.383 198.223 138.289 198.598 138.101 198.927C137.914 199.255 137.657 199.514 137.33 199.704C137.002 199.893 136.63 199.987 136.212 199.987ZM141.804 199.987C141.078 199.987 140.515 199.693 140.115 199.104C139.717 198.515 139.518 197.683 139.518 196.609C139.518 195.542 139.719 194.712 140.121 194.119C140.524 193.526 141.085 193.23 141.804 193.23C142.524 193.23 143.085 193.526 143.487 194.119C143.89 194.712 144.091 195.542 144.091 196.609C144.091 197.683 143.891 198.515 143.49 199.104C143.092 199.693 142.53 199.987 141.804 199.987ZM141.804 199.28C142.284 199.28 142.656 199.049 142.922 198.587C143.187 198.124 143.32 197.465 143.32 196.609C143.32 195.754 143.186 195.094 142.919 194.627C142.651 194.158 142.28 193.923 141.804 193.923C141.329 193.923 140.957 194.158 140.69 194.627C140.422 195.094 140.288 195.754 140.288 196.609C140.288 197.465 140.421 198.124 140.687 198.587C140.954 199.049 141.327 199.28 141.804 199.28Z" fill="white"/>
<path d="M164.176 214.286C164.176 212.859 163.019 211.702 161.592 211.702C160.165 211.702 159.008 212.859 159.008 214.286V346.715C159.008 348.142 160.165 349.299 161.592 349.299C163.019 349.299 164.176 348.142 164.176 346.715V214.286Z" fill="#2F80ED"/>
<path d="M171.928 295.035C171.928 293.608 170.771 292.451 169.344 292.451C167.917 292.451 166.76 293.608 166.76 295.035V346.715C166.76 348.142 167.917 349.299 169.344 349.299C170.771 349.299 171.928 348.142 171.928 346.715V295.035Z" fill="#EB5757"/>
<path d="M162.077 370.828L162.705 370.337L165.599 374.043C165.988 374.54 166.153 375.028 166.095 375.506C166.036 375.981 165.782 376.394 165.331 376.746C165.048 376.968 164.756 377.113 164.454 377.183C164.151 377.251 163.862 377.238 163.585 377.145C163.308 377.051 163.066 376.872 162.859 376.607L163.477 376.125C163.648 376.344 163.866 376.458 164.13 376.466C164.395 376.474 164.65 376.382 164.896 376.189C165.168 375.977 165.311 375.729 165.326 375.446C165.342 375.16 165.223 374.855 164.972 374.533L162.077 370.828ZM169.146 373.798C168.9 373.991 168.64 374.119 168.367 374.184C168.092 374.246 167.826 374.235 167.57 374.149C167.312 374.063 167.084 373.893 166.887 373.64C166.713 373.417 166.615 373.202 166.595 372.996C166.573 372.787 166.605 372.586 166.69 372.391C166.775 372.198 166.89 372.012 167.037 371.835C167.185 371.655 167.339 371.483 167.501 371.318C167.714 371.103 167.887 370.93 168.022 370.8C168.158 370.667 168.244 370.556 168.281 370.464C168.32 370.371 168.302 370.276 168.227 370.18L168.211 370.16C168.016 369.91 167.796 369.77 167.551 369.738C167.308 369.705 167.049 369.796 166.774 370.011C166.489 370.234 166.314 370.471 166.25 370.722C166.185 370.974 166.175 371.196 166.22 371.389L165.495 371.63C165.412 371.315 165.403 371.025 165.469 370.762C165.535 370.495 165.648 370.257 165.808 370.048C165.969 369.836 166.147 369.653 166.342 369.501C166.467 369.403 166.623 369.306 166.808 369.21C166.994 369.11 167.199 369.047 167.422 369.02C167.647 368.991 167.881 369.029 168.126 369.134C168.371 369.238 168.614 369.446 168.856 369.754L170.856 372.315L170.259 372.782L169.848 372.256L169.818 372.279C169.843 372.395 169.846 372.538 169.827 372.708C169.807 372.879 169.746 373.058 169.641 373.248C169.537 373.439 169.372 373.622 169.146 373.798ZM168.818 373.191C169.054 373.006 169.217 372.804 169.306 372.585C169.398 372.364 169.427 372.148 169.395 371.937C169.365 371.724 169.286 371.537 169.16 371.375L168.733 370.828C168.731 370.879 168.697 370.95 168.631 371.042C168.565 371.132 168.484 371.229 168.387 371.335C168.29 371.437 168.195 371.536 168.101 371.632C168.007 371.724 167.932 371.799 167.874 371.858C167.735 371.999 167.615 372.145 167.516 372.297C167.417 372.444 167.361 372.596 167.348 372.749C167.336 372.901 167.389 373.052 167.508 373.204C167.67 373.412 167.869 373.508 168.106 373.495C168.343 373.478 168.58 373.377 168.818 373.191ZM170.717 368.658L172.544 370.997L171.947 371.464L168.91 367.576L169.487 367.125L169.961 367.733L170.012 367.693C169.949 367.425 169.963 367.158 170.055 366.893C170.146 366.627 170.338 366.379 170.631 366.149C171.025 365.842 171.436 365.715 171.866 365.768C172.297 365.819 172.707 366.093 173.094 366.589L175.024 369.059L174.427 369.526L172.529 367.096C172.29 366.791 172.025 366.615 171.733 366.568C171.44 366.52 171.155 366.605 170.879 366.82C170.593 367.043 170.429 367.321 170.385 367.654C170.341 367.984 170.452 368.319 170.717 368.658Z" fill="white"/>
<path d="M235.288 236.895C235.288 235.468 234.131 234.311 232.704 234.311C231.277 234.311 230.12 235.468 230.12 236.895V344.13C230.12 345.558 231.277 346.714 232.704 346.714C234.131 346.714 235.288 345.558 235.288 344.13V236.895Z" fill="#2F80ED"/>
<path d="M243.04 316.999C243.04 315.572 241.883 314.415 240.456 314.415C239.029 314.415 237.872 315.572 237.872 316.999V344.131C237.872 345.558 239.029 346.715 240.456 346.715C241.883 346.715 243.04 345.558 243.04 344.131V316.999Z" fill="#EB5757"/>
<path d="M229.3 371.707L230.049 371.122L235.172 374.048L235.232 374L233.632 368.322L234.382 367.737L238.431 372.919L237.844 373.378L234.767 369.441L234.717 369.48L236.174 374.683L235.607 375.126L230.91 372.454L230.86 372.493L233.937 376.431L233.349 376.89L229.3 371.707ZM240.824 371.197C240.577 371.39 240.318 371.518 240.045 371.581C239.77 371.644 239.504 371.633 239.247 371.548C238.99 371.461 238.762 371.291 238.565 371.039C238.39 370.816 238.293 370.601 238.273 370.394C238.251 370.185 238.283 369.985 238.367 369.79C238.452 369.596 238.568 369.411 238.715 369.233C238.862 369.053 239.017 368.881 239.179 368.716C239.391 368.501 239.565 368.329 239.7 368.199C239.835 368.066 239.922 367.954 239.959 367.863C239.997 367.77 239.979 367.675 239.904 367.579L239.888 367.559C239.693 367.309 239.473 367.168 239.229 367.136C238.986 367.104 238.727 367.195 238.451 367.41C238.167 367.633 237.992 367.87 237.927 368.121C237.863 368.372 237.853 368.594 237.898 368.788L237.173 369.028C237.09 368.713 237.081 368.423 237.147 368.16C237.213 367.894 237.326 367.656 237.486 367.447C237.647 367.235 237.824 367.052 238.02 366.899C238.145 366.802 238.3 366.705 238.486 366.609C238.672 366.509 238.877 366.446 239.099 366.419C239.324 366.39 239.559 366.428 239.804 366.532C240.049 366.637 240.292 366.844 240.533 367.153L242.534 369.714L241.937 370.18L241.526 369.654L241.495 369.678C241.521 369.794 241.524 369.937 241.504 370.107C241.485 370.277 241.423 370.457 241.319 370.647C241.215 370.837 241.05 371.02 240.824 371.197ZM240.495 370.589C240.732 370.404 240.895 370.203 240.984 369.983C241.076 369.763 241.105 369.547 241.073 369.335C241.043 369.123 240.964 368.936 240.838 368.773L240.41 368.227C240.409 368.277 240.375 368.348 240.309 368.441C240.243 368.53 240.161 368.628 240.065 368.733C239.968 368.836 239.873 368.935 239.779 369.03C239.685 369.122 239.609 369.198 239.552 369.256C239.413 369.397 239.293 369.544 239.194 369.695C239.095 369.843 239.039 369.994 239.026 370.148C239.013 370.299 239.066 370.45 239.185 370.602C239.347 370.81 239.546 370.906 239.784 370.893C240.02 370.877 240.258 370.775 240.495 370.589ZM243.625 368.862L240.587 364.975L241.164 364.524L241.623 365.111L241.663 365.08C241.584 364.832 241.59 364.576 241.682 364.311C241.774 364.046 241.937 363.823 242.17 363.641C242.214 363.607 242.269 363.565 242.336 363.515C242.403 363.465 242.455 363.428 242.492 363.406L242.966 364.013C242.942 364.024 242.889 364.053 242.809 364.099C242.729 364.143 242.649 364.195 242.57 364.257C242.286 364.479 242.119 364.748 242.068 365.065C242.017 365.383 242.094 365.673 242.3 365.936L244.221 368.395L243.625 368.862Z" fill="white"/>
<path d="M305.618 200.074C305.618 198.647 304.461 197.49 303.034 197.49C301.607 197.49 300.45 198.647 300.45 200.074V343.485C300.45 344.912 301.607 346.069 303.034 346.069C304.461 346.069 305.618 344.912 305.618 343.485V200.074Z" fill="#2F80ED"/>
<path d="M313.37 268.549C313.37 267.122 312.213 265.965 310.786 265.965C309.359 265.965 308.202 267.122 308.202 268.549V343.485C308.202 344.912 309.359 346.069 310.786 346.069C312.213 346.069 313.37 344.912 313.37 343.485V268.549Z" fill="#EB5757"/>
<path d="M298.904 371.769L299.654 371.184L304.777 374.109L304.837 374.062L303.237 368.384L303.986 367.798L308.036 372.981L307.449 373.44L304.372 369.502L304.322 369.541L305.778 374.745L305.211 375.188L300.515 372.516L300.465 372.555L303.541 376.493L302.954 376.952L298.904 371.769ZM310.428 371.258C310.182 371.451 309.923 371.58 309.649 371.644C309.375 371.706 309.109 371.695 308.852 371.61C308.594 371.523 308.367 371.353 308.169 371.1C307.995 370.877 307.898 370.663 307.877 370.456C307.856 370.248 307.888 370.046 307.972 369.852C308.057 369.658 308.173 369.472 308.32 369.295C308.467 369.115 308.621 368.943 308.784 368.778C308.996 368.563 309.17 368.391 309.305 368.26C309.44 368.128 309.527 368.016 309.563 367.924C309.602 367.831 309.584 367.736 309.509 367.641L309.493 367.62C309.298 367.371 309.078 367.23 308.833 367.198C308.59 367.165 308.331 367.256 308.056 367.472C307.771 367.694 307.596 367.931 307.532 368.183C307.468 368.434 307.458 368.656 307.503 368.85L306.778 369.09C306.694 368.775 306.685 368.485 306.751 368.222C306.818 367.955 306.931 367.718 307.09 367.508C307.251 367.296 307.429 367.114 307.625 366.961C307.749 366.863 307.905 366.766 308.09 366.67C308.277 366.571 308.481 366.508 308.704 366.48C308.929 366.451 309.163 366.489 309.409 366.594C309.654 366.699 309.897 366.906 310.138 367.215L312.139 369.776L311.541 370.242L311.131 369.716L311.1 369.74C311.125 369.855 311.129 369.999 311.109 370.169C311.09 370.339 311.028 370.519 310.924 370.709C310.82 370.899 310.654 371.082 310.428 371.258ZM310.1 370.651C310.337 370.466 310.499 370.264 310.589 370.045C310.68 369.824 310.709 369.609 310.678 369.397C310.647 369.184 310.569 368.997 310.443 368.835L310.015 368.288C310.014 368.339 309.979 368.41 309.913 368.503C309.848 368.592 309.766 368.689 309.669 368.795C309.573 368.897 309.477 368.997 309.384 369.092C309.289 369.184 309.214 369.259 309.156 369.318C309.017 369.459 308.898 369.606 308.798 369.757C308.7 369.904 308.643 370.056 308.631 370.21C308.618 370.361 308.671 370.512 308.79 370.664C308.952 370.872 309.151 370.968 309.388 370.955C309.625 370.938 309.862 370.837 310.1 370.651ZM314.614 370.19C314.512 370.269 314.415 370.331 314.323 370.376C314.232 370.423 314.165 370.45 314.123 370.459L313.863 369.814C314.038 369.738 314.176 369.651 314.28 369.554C314.383 369.457 314.443 369.33 314.459 369.173C314.478 369.017 314.447 368.812 314.366 368.558L314.24 368.167L309.749 365.382L310.397 364.877L313.89 367.136L313.931 367.104L312.583 363.168L313.231 362.662L315.061 368.405C315.304 369.172 315.155 369.767 314.614 370.19Z" fill="white"/>
<path d="M199.005 226.559C199.005 225.132 197.848 223.975 196.421 223.975C194.994 223.975 193.837 225.132 193.837 226.559V344.777C193.837 346.204 194.994 347.361 196.421 347.361C197.848 347.361 199.005 346.204 199.005 344.777V226.559Z" fill="#2F80ED"/>
<path d="M206.757 265.319C206.757 263.892 205.6 262.735 204.173 262.735C202.746 262.735 201.589 263.892 201.589 265.319V344.777C201.589 346.204 202.746 347.361 204.173 347.361C205.6 347.361 206.757 346.204 206.757 344.777V265.319Z" fill="#EB5757"/>
<path d="M197.725 376.233L193.676 371.05L196.784 368.622L197.219 369.179L194.738 371.117L196.107 372.868L198.354 371.112L198.789 371.669L196.542 373.425L198.353 375.743L197.725 376.233ZM203.235 372.059C202.86 372.352 202.473 372.521 202.072 372.568C201.671 372.612 201.281 372.543 200.901 372.358C200.521 372.171 200.176 371.878 199.865 371.481C199.554 371.083 199.352 370.675 199.26 370.258C199.168 369.838 199.187 369.441 199.315 369.066C199.444 368.688 199.683 368.362 200.034 368.088C200.237 367.93 200.463 367.807 200.713 367.72C200.963 367.634 201.229 367.603 201.509 367.629C201.789 367.652 202.073 367.75 202.363 367.923C202.653 368.096 202.94 368.364 203.223 368.726L203.421 368.979L200.599 371.184C200.937 371.588 201.302 371.815 201.696 371.864C202.092 371.91 202.465 371.797 202.816 371.523C203.05 371.339 203.212 371.131 203.302 370.899C203.391 370.665 203.395 370.418 203.313 370.156L204.017 369.867C204.155 370.232 204.158 370.611 204.026 371.005C203.893 371.399 203.63 371.751 203.235 372.059ZM200.196 370.668L202.41 368.938C202.153 368.609 201.844 368.411 201.483 368.346C201.121 368.278 200.778 368.371 200.453 368.624C200.225 368.802 200.07 369.01 199.986 369.246C199.902 369.483 199.88 369.727 199.921 369.977C199.961 370.227 200.052 370.457 200.196 370.668ZM205.771 369.948L201.722 364.764L202.318 364.298L203.813 366.211L203.864 366.172C203.855 366.07 203.849 365.936 203.844 365.771C203.841 365.603 203.88 365.42 203.962 365.223C204.045 365.023 204.212 364.823 204.466 364.625C204.793 364.37 205.145 364.226 205.523 364.195C205.9 364.163 206.276 364.243 206.651 364.434C207.026 364.625 207.373 364.924 207.692 365.333C208.014 365.745 208.222 366.156 208.318 366.567C208.413 366.977 208.4 367.362 208.282 367.721C208.161 368.078 207.94 368.384 207.616 368.636C207.366 368.831 207.134 368.946 206.919 368.981C206.703 369.014 206.513 369.009 206.349 368.966C206.183 368.921 206.051 368.88 205.952 368.844L205.881 368.899L206.348 369.497L205.771 369.948ZM204.839 367.545C205.183 367.986 205.559 368.269 205.966 368.397C206.373 368.522 206.756 368.444 207.116 368.163C207.366 367.968 207.523 367.74 207.587 367.477C207.651 367.213 207.638 366.935 207.547 366.645C207.456 366.351 207.303 366.066 207.087 365.789C206.873 365.516 206.639 365.303 206.383 365.149C206.127 364.993 205.866 364.917 205.596 364.92C205.328 364.921 205.067 365.02 204.814 365.218C204.45 365.502 204.278 365.853 204.298 366.268C204.319 366.684 204.499 367.11 204.839 367.545Z" fill="white"/>
<path d="M269.497 284.053C269.497 282.626 268.34 281.469 266.913 281.469C265.486 281.469 264.329 282.626 264.329 284.053V346.715C264.329 348.142 265.486 349.299 266.913 349.299C268.34 349.299 269.497 348.142 269.497 346.715V284.053Z" fill="#2F80ED"/>
<path d="M277.249 258.859C277.249 257.432 276.092 256.275 274.665 256.275C273.238 256.275 272.081 257.432 272.081 258.859V346.715C272.081 348.142 273.238 349.299 274.665 349.299C276.092 349.299 277.249 348.142 277.249 346.715V258.859Z" fill="#EB5757"/>
<path d="M269.798 377.3L269.14 377.814L266.994 371.144L267.641 370.638L273.594 374.334L272.936 374.848L271.267 373.788L269.172 375.424L269.798 377.3ZM268.935 374.714L270.635 373.385L267.978 371.695L267.938 371.727L268.935 374.714ZM275.459 375.224L271.283 369.879L271.86 369.428L272.342 370.046L272.413 369.99C272.404 369.889 272.398 369.755 272.394 369.59C272.39 369.422 272.43 369.239 272.512 369.042C272.594 368.841 272.762 368.642 273.015 368.445C273.342 368.189 273.695 368.045 274.072 368.014C274.45 367.982 274.826 368.062 275.201 368.253C275.576 368.444 275.922 368.744 276.242 369.152C276.563 369.563 276.772 369.975 276.868 370.386C276.963 370.796 276.95 371.18 276.831 371.54C276.711 371.897 276.489 372.202 276.165 372.456C275.915 372.651 275.683 372.766 275.468 372.8C275.253 372.833 275.063 372.828 274.899 372.785C274.733 372.74 274.601 372.7 274.501 372.663L274.451 372.702L276.056 374.758L275.459 375.224ZM273.389 371.364C273.733 371.804 274.109 372.089 274.515 372.217C274.922 372.341 275.306 372.263 275.665 371.982C275.915 371.787 276.072 371.558 276.136 371.297C276.2 371.031 276.187 370.753 276.096 370.463C276.006 370.17 275.852 369.885 275.636 369.609C275.422 369.335 275.188 369.122 274.932 368.969C274.677 368.812 274.415 368.735 274.146 368.739C273.877 368.74 273.616 368.839 273.364 369.036C272.999 369.321 272.827 369.671 272.848 370.087C272.868 370.503 273.048 370.929 273.389 371.364ZM278.663 370.374L275.626 366.486L276.203 366.036L276.661 366.623L276.702 366.591C276.623 366.343 276.629 366.087 276.721 365.823C276.813 365.558 276.975 365.334 277.209 365.152C277.252 365.118 277.307 365.076 277.375 365.026C277.442 364.976 277.494 364.94 277.53 364.917L278.005 365.525C277.981 365.535 277.928 365.564 277.848 365.611C277.767 365.654 277.688 365.707 277.609 365.769C277.325 365.991 277.158 366.259 277.107 366.576C277.056 366.894 277.133 367.184 277.338 367.447L279.26 369.907L278.663 370.374Z" fill="white"/>
<path d="M340.198 222.683C340.198 221.256 339.041 220.099 337.614 220.099C336.187 220.099 335.03 221.256 335.03 222.683V346.715C335.03 348.142 336.187 349.299 337.614 349.299C339.041 349.299 340.198 348.142 340.198 346.715V222.683Z" fill="#2F80ED"/>
<path d="M347.95 306.017C347.95 304.59 346.793 303.433 345.366 303.433C343.939 303.433 342.782 304.59 342.782 306.017V346.715C342.782 348.142 343.939 349.299 345.366 349.299C346.793 349.299 347.95 348.142 347.95 346.715V306.017Z" fill="#EB5757"/>
<path d="M338.037 370.877L338.665 370.386L341.559 374.092C341.948 374.589 342.114 375.077 342.055 375.555C341.997 376.03 341.742 376.443 341.291 376.795C341.008 377.017 340.716 377.162 340.414 377.232C340.112 377.3 339.822 377.288 339.545 377.194C339.268 377.1 339.026 376.921 338.819 376.656L339.437 376.174C339.609 376.393 339.826 376.507 340.09 376.515C340.355 376.523 340.61 376.431 340.857 376.239C341.129 376.026 341.271 375.779 341.287 375.495C341.302 375.209 341.183 374.904 340.932 374.582L338.037 370.877ZM345.1 371.147L343.304 368.849L343.901 368.382L346.938 372.269L346.341 372.736L345.827 372.078L345.786 372.11C345.85 372.378 345.839 372.657 345.755 372.946C345.669 373.233 345.479 373.49 345.186 373.72C344.822 374.005 344.427 374.119 344.002 374.062C343.578 374.005 343.171 373.729 342.784 373.233L340.854 370.763L341.452 370.296L343.349 372.726C343.571 373.009 343.827 373.173 344.118 373.218C344.41 373.262 344.68 373.186 344.928 372.993C345.076 372.877 345.197 372.721 345.291 372.525C345.388 372.328 345.426 372.11 345.408 371.871C345.392 371.631 345.289 371.39 345.1 371.147ZM346.802 368.61L348.629 370.948L348.032 371.415L344.995 367.527L345.572 367.077L346.047 367.684L346.097 367.645C346.034 367.376 346.048 367.109 346.141 366.844C346.231 366.578 346.423 366.33 346.717 366.101C347.11 365.793 347.521 365.666 347.952 365.719C348.382 365.771 348.792 366.044 349.18 366.54L351.11 369.01L350.512 369.477L348.614 367.047C348.375 366.742 348.11 366.566 347.818 366.519C347.526 366.472 347.241 366.556 346.964 366.771C346.679 366.994 346.514 367.273 346.47 367.605C346.427 367.936 346.537 368.271 346.802 368.61Z" fill="white"/>
<path d="M373.736 222.683C373.736 221.256 372.579 220.099 371.152 220.099C369.725 220.099 368.568 221.256 368.568 222.683V346.715C368.568 348.142 369.725 349.299 371.152 349.299C372.579 349.299 373.736 348.142 373.736 346.715V222.683Z" fill="#2F80ED"/>
<path d="M381.488 306.017C381.488 304.59 380.331 303.433 378.904 303.433C377.477 303.433 376.32 304.59 376.32 306.017V346.715C376.32 348.142 377.477 349.299 378.904 349.299C380.331 349.299 381.488 348.142 381.488 346.715V306.017Z" fill="#EB5757"/>
<path d="M371.574 370.877L372.202 370.386L375.097 374.092C375.486 374.589 375.651 375.077 375.592 375.555C375.534 376.03 375.28 376.443 374.829 376.795C374.546 377.017 374.253 377.162 373.951 377.232C373.649 377.3 373.359 377.288 373.083 377.194C372.805 377.1 372.564 376.921 372.357 376.656L372.974 376.174C373.145 376.393 373.364 376.507 373.628 376.515C373.892 376.523 374.148 376.431 374.394 376.239C374.666 376.026 374.809 375.779 374.824 375.495C374.839 375.209 374.721 374.904 374.47 374.582L371.574 370.877ZM378.636 371.147L376.841 368.849L377.439 368.382L380.475 372.269L379.879 372.736L379.364 372.078L379.324 372.11C379.387 372.378 379.376 372.657 379.292 372.946C379.207 373.233 379.017 373.49 378.724 373.72C378.359 374.005 377.964 374.119 377.539 374.062C377.115 374.005 376.709 373.729 376.321 373.233L374.391 370.763L374.988 370.296L376.887 372.726C377.109 373.009 377.364 373.173 377.654 373.218C377.947 373.262 378.217 373.186 378.465 372.993C378.613 372.877 378.734 372.721 378.829 372.525C378.925 372.328 378.964 372.11 378.946 371.871C378.93 371.631 378.826 371.39 378.636 371.147ZM380.34 368.61L382.167 370.948L381.57 371.415L378.532 367.527L379.109 367.077L379.584 367.684L379.634 367.645C379.572 367.376 379.586 367.109 379.678 366.844C379.769 366.578 379.961 366.33 380.255 366.101C380.647 365.793 381.059 365.666 381.488 365.719C381.92 365.771 382.329 366.044 382.717 366.54L384.647 369.01L384.05 369.477L382.152 367.047C381.913 366.742 381.648 366.566 381.356 366.519C381.063 366.472 380.778 366.556 380.501 366.771C380.216 366.994 380.052 367.273 380.008 367.605C379.964 367.936 380.075 368.271 380.34 368.61Z" fill="white"/>
<path d="M407.273 222.683C407.273 221.256 406.116 220.099 404.689 220.099C403.262 220.099 402.105 221.256 402.105 222.683V346.715C402.105 348.142 403.262 349.299 404.689 349.299C406.116 349.299 407.273 348.142 407.273 346.715V222.683Z" fill="#2F80ED"/>
<path d="M415.025 306.017C415.025 304.59 413.868 303.433 412.441 303.433C411.014 303.433 409.857 304.59 409.857 306.017V346.715C409.857 348.142 411.014 349.299 412.441 349.299C413.868 349.299 415.025 348.142 415.025 346.715V306.017Z" fill="#EB5757"/>
<path d="M405.112 370.877L405.74 370.386L408.634 374.092C409.023 374.589 409.189 375.077 409.13 375.555C409.071 376.03 408.817 376.443 408.366 376.795C408.083 377.017 407.791 377.162 407.489 377.232C407.187 377.3 406.897 377.288 406.62 377.194C406.343 377.1 406.101 376.921 405.894 376.656L406.512 376.174C406.683 376.393 406.901 376.507 407.165 376.515C407.43 376.523 407.686 376.431 407.932 376.239C408.203 376.026 408.346 375.779 408.361 375.495C408.377 375.209 408.259 374.904 408.007 374.582L405.112 370.877ZM412.174 371.147L410.379 368.849L410.976 368.382L414.013 372.269L413.416 372.736L412.902 372.078L412.861 372.11C412.925 372.378 412.914 372.657 412.83 372.946C412.744 373.233 412.554 373.49 412.261 373.72C411.896 374.005 411.502 374.119 411.077 374.062C410.653 374.005 410.246 373.729 409.859 373.233L407.929 370.763L408.526 370.296L410.425 372.726C410.646 373.009 410.902 373.173 411.192 373.218C411.484 373.262 411.755 373.186 412.002 372.993C412.151 372.877 412.272 372.721 412.366 372.525C412.462 372.328 412.501 372.11 412.483 371.871C412.467 371.631 412.364 371.39 412.174 371.147ZM413.877 368.61L415.704 370.948L415.107 371.415L412.07 367.527L412.647 367.077L413.122 367.684L413.172 367.645C413.109 367.376 413.124 367.109 413.215 366.844C413.306 366.578 413.498 366.33 413.792 366.101C414.185 365.793 414.596 365.666 415.026 365.719C415.458 365.771 415.867 366.044 416.255 366.54L418.184 369.01L417.587 369.477L415.689 367.047C415.45 366.742 415.186 366.566 414.894 366.519C414.6 366.472 414.315 366.556 414.039 366.771C413.754 366.994 413.589 367.273 413.545 367.605C413.501 367.936 413.613 368.271 413.877 368.61Z" fill="white"/>
<path d="M130.753 140.642L131.443 138.653H134.379L135.065 140.642H136.269L133.564 133.125H132.254L129.549 140.642H130.753ZM131.773 137.699L132.882 134.491H132.94L134.049 137.699H131.773ZM140.838 138.304C140.842 139.262 140.13 139.717 139.513 139.717C138.834 139.717 138.364 139.225 138.364 138.458V135.004H137.267V138.59C137.267 139.989 138.034 140.716 139.117 140.716C139.965 140.716 140.541 140.268 140.801 139.666H140.86V140.642H141.939V135.004H140.838V138.304ZM145.524 140.752C146.552 140.752 146.956 140.125 147.154 139.765H147.246V140.642H148.318V133.125H147.22V135.918H147.154C146.956 135.57 146.581 134.931 145.532 134.931C144.17 134.931 143.168 136.006 143.168 137.834C143.168 139.659 144.155 140.752 145.524 140.752ZM145.767 139.816C144.787 139.816 144.276 138.954 144.276 137.823C144.276 136.704 144.776 135.863 145.767 135.863C146.725 135.863 147.238 136.645 147.238 137.823C147.238 139.009 146.714 139.816 145.767 139.816ZM149.884 140.642H150.981V135.004H149.884V140.642ZM150.438 134.135C150.816 134.135 151.132 133.841 151.132 133.481C151.132 133.122 150.816 132.824 150.438 132.824C150.056 132.824 149.744 133.122 149.744 133.481C149.744 133.841 150.056 134.135 150.438 134.135ZM154.888 140.756C156.117 140.756 156.987 140.15 157.237 139.233L156.198 139.046C156 139.578 155.523 139.849 154.899 139.849C153.959 139.849 153.328 139.24 153.298 138.154H157.306V137.765C157.306 135.728 156.088 134.931 154.811 134.931C153.24 134.931 152.205 136.128 152.205 137.86C152.205 139.611 153.225 140.756 154.888 140.756ZM153.302 137.331C153.346 136.531 153.926 135.838 154.818 135.838C155.669 135.838 156.227 136.469 156.231 137.331H153.302ZM159.622 137.295C159.622 136.396 160.172 135.882 160.936 135.882C161.681 135.882 162.132 136.37 162.132 137.188V140.642H163.23V137.056C163.23 135.661 162.462 134.931 161.31 134.931C160.462 134.931 159.908 135.324 159.647 135.922H159.578V135.004H158.524V140.642H159.622V137.295ZM167.076 140.756C168.409 140.756 169.271 139.956 169.392 138.858H168.324C168.185 139.468 167.711 139.827 167.084 139.827C166.155 139.827 165.557 139.053 165.557 137.823C165.557 136.616 166.166 135.856 167.084 135.856C167.781 135.856 168.207 136.296 168.324 136.825H169.392C169.275 135.687 168.346 134.931 167.065 134.931C165.476 134.931 164.448 136.128 164.448 137.849C164.448 139.548 165.439 140.756 167.076 140.756ZM172.996 140.756C174.225 140.756 175.095 140.15 175.345 139.233L174.306 139.046C174.108 139.578 173.631 139.849 173.007 139.849C172.067 139.849 171.436 139.24 171.406 138.154H175.414V137.765C175.414 135.728 174.196 134.931 172.919 134.931C171.348 134.931 170.313 136.128 170.313 137.86C170.313 139.611 171.333 140.756 172.996 140.756ZM171.41 137.331C171.454 136.531 172.034 135.838 172.926 135.838C173.777 135.838 174.335 136.469 174.339 137.331H171.41ZM185.985 136.884C185.985 134.48 184.547 133.022 182.601 133.022C180.649 133.022 179.213 134.48 179.213 136.884C179.213 139.284 180.649 140.745 182.601 140.745C184.547 140.745 185.985 139.288 185.985 136.884ZM184.862 136.884C184.862 138.715 183.893 139.71 182.601 139.71C181.305 139.71 180.34 138.715 180.34 136.884C180.34 135.052 181.305 134.057 182.601 134.057C183.893 134.057 184.862 135.052 184.862 136.884ZM192.134 135.004H190.956L189.532 139.343H189.473L188.045 135.004H186.867L188.915 140.642H190.09L192.134 135.004ZM195.393 140.756C196.623 140.756 197.493 140.15 197.743 139.233L196.704 139.046C196.506 139.578 196.028 139.849 195.404 139.849C194.465 139.849 193.834 139.24 193.804 138.154H197.813V137.765C197.813 135.728 196.594 134.931 195.316 134.931C193.745 134.931 192.711 136.128 192.711 137.86C192.711 139.611 193.731 140.756 195.393 140.756ZM193.808 137.331C193.852 136.531 194.432 135.838 195.324 135.838C196.176 135.838 196.733 136.469 196.737 137.331H193.808ZM199.03 140.642H200.127V137.199C200.127 136.462 200.696 135.929 201.475 135.929C201.702 135.929 201.959 135.97 202.047 135.995V134.946C201.937 134.931 201.72 134.92 201.581 134.92C200.921 134.92 200.355 135.294 200.15 135.9H200.091V135.004H199.03V140.642ZM207.992 135.004H206.813L205.389 139.343H205.33L203.902 135.004H202.724L204.773 140.642H205.947L207.992 135.004ZM209.023 140.642H210.12V135.004H209.023V140.642ZM209.577 134.135C209.955 134.135 210.271 133.841 210.271 133.481C210.271 133.122 209.955 132.824 209.577 132.824C209.195 132.824 208.883 133.122 208.883 133.481C208.883 133.841 209.195 134.135 209.577 134.135ZM214.026 140.756C215.256 140.756 216.126 140.15 216.375 139.233L215.337 139.046C215.139 139.578 214.661 139.849 214.037 139.849C213.098 139.849 212.466 139.24 212.437 138.154H216.445V137.765C216.445 135.728 215.227 134.931 213.95 134.931C212.379 134.931 211.344 136.128 211.344 137.86C211.344 139.611 212.364 140.756 214.026 140.756ZM212.441 137.331C212.485 136.531 213.065 135.838 213.957 135.838C214.808 135.838 215.366 136.469 215.37 137.331H212.441ZM218.875 140.642H219.991L221.136 136.572H221.22L222.366 140.642H223.485L225.141 135.004H224.006L222.909 139.126H222.854L221.753 135.004H220.619L219.51 139.145H219.455L218.35 135.004H217.216L218.875 140.642Z" fill="#262D3F"/>
</g>
<g filter="url(#filter1_d_512_10681)">
<rect x="346" y="228.952" width="169.378" height="103" rx="3" fill="#292E45"/>
<rect x="346.25" y="229.202" width="168.878" height="102.5" rx="2.75" stroke="white" stroke-opacity="0.05" stroke-width="0.5"/>
<g clip-path="url(#clip1_512_10681)">
<path d="M361.048 240.396H360.771V310.528H361.048V240.396Z" fill="white" fill-opacity="0.1"/>
<path d="M358.867 316.576V318.594C358.867 318.945 358.698 319.134 358.404 319.134C358.135 319.134 357.941 318.977 357.941 318.737H357.604C357.604 319.171 357.941 319.437 358.404 319.437C358.894 319.437 359.208 319.135 359.208 318.594V316.576H358.867ZM360.472 319.448C360.841 319.448 361.034 319.25 361.101 319.112H361.117V319.399H361.442V318.004C361.442 317.332 360.93 317.254 360.66 317.254C360.34 317.254 359.976 317.365 359.811 317.75L360.119 317.861C360.191 317.706 360.361 317.541 360.671 317.541C360.97 317.541 361.117 317.699 361.117 317.971V317.982C361.117 318.139 360.957 318.125 360.571 318.175C360.179 318.226 359.75 318.313 359.75 318.798C359.75 319.211 360.07 319.448 360.472 319.448ZM360.522 319.156C360.263 319.156 360.075 319.04 360.075 318.814C360.075 318.566 360.301 318.489 360.555 318.456C360.693 318.44 361.062 318.401 361.117 318.335V318.633C361.117 318.897 360.908 319.156 360.522 319.156ZM362.361 318.125C362.361 317.756 362.59 317.546 362.901 317.546C363.203 317.546 363.387 317.744 363.387 318.076V319.399H363.712V318.054C363.712 317.513 363.424 317.254 362.995 317.254C362.675 317.254 362.477 317.398 362.378 317.613H362.35V317.282H362.036V319.399H362.361V318.125Z" fill="#5D657B"/>
<path d="M375.462 240.396H375.185V310.528H375.462V240.396Z" fill="white" fill-opacity="0.1"/>
<path d="M371.923 319.399H372.265V318.136H373.489V317.833H372.265V316.879H373.616V316.576H371.923V319.399ZM374.889 319.443C375.319 319.443 375.633 319.228 375.732 318.908L375.418 318.82C375.336 319.04 375.144 319.151 374.889 319.151C374.507 319.151 374.244 318.904 374.229 318.451H375.766V318.313C375.766 317.524 375.297 317.254 374.856 317.254C374.283 317.254 373.902 317.706 373.902 318.357C373.902 319.007 374.277 319.443 374.889 319.443ZM374.229 318.17C374.251 317.84 374.484 317.546 374.856 317.546C375.209 317.546 375.435 317.811 375.435 318.17H374.229ZM376.304 319.399H376.619V319.073H376.657C376.729 319.189 376.867 319.443 377.275 319.443C377.804 319.443 378.173 319.018 378.173 318.346C378.173 317.679 377.804 317.254 377.269 317.254C376.856 317.254 376.729 317.508 376.657 317.618H376.63V316.576H376.304V319.399ZM376.624 318.34C376.624 317.866 376.834 317.546 377.231 317.546C377.644 317.546 377.848 317.894 377.848 318.34C377.848 318.792 377.638 319.151 377.231 319.151C376.839 319.151 376.624 318.82 376.624 318.34Z" fill="#5D657B"/>
<path d="M389.877 240.396H389.6V310.528H389.877V240.396Z" fill="white" fill-opacity="0.1"/>
<path d="M386.338 316.576V319.399H386.658V317.254H386.685L387.567 319.399H387.876L388.758 317.254H388.785V319.399H389.105V316.576H388.697L387.738 318.919H387.705L386.746 316.576H386.338ZM390.369 319.448C390.738 319.448 390.932 319.25 390.998 319.112H391.014V319.399H391.339V318.004C391.339 317.332 390.827 317.254 390.557 317.254C390.237 317.254 389.873 317.365 389.708 317.75L390.016 317.861C390.088 317.706 390.257 317.541 390.568 317.541C390.867 317.541 391.014 317.699 391.014 317.971V317.982C391.014 318.139 390.854 318.125 390.468 318.175C390.076 318.226 389.647 318.313 389.647 318.798C389.647 319.211 389.967 319.448 390.369 319.448ZM390.419 319.156C390.16 319.156 389.972 319.041 389.972 318.814C389.972 318.566 390.198 318.489 390.452 318.456C390.59 318.44 390.959 318.401 391.014 318.335V318.633C391.014 318.897 390.805 319.156 390.419 319.156ZM391.933 319.399H392.258V318.059C392.258 317.773 392.484 317.563 392.793 317.563C392.88 317.563 392.969 317.58 392.992 317.585V317.254C392.954 317.252 392.869 317.249 392.82 317.249C392.567 317.249 392.346 317.392 392.269 317.602H392.247V317.282H391.933V319.399Z" fill="#5D657B"/>
<path d="M404.291 240.396H404.014V310.528H404.291V240.396Z" fill="white" fill-opacity="0.1"/>
<path d="M401.145 319.399L401.429 318.599H402.57L402.854 319.399H403.213L402.176 316.576H401.823L400.787 319.399H401.145ZM401.537 318.296L401.989 317.023H402.011L402.463 318.296H401.537ZM403.608 320.193H403.933V319.073H403.961C404.032 319.189 404.17 319.443 404.578 319.443C405.107 319.443 405.477 319.018 405.477 318.346C405.477 317.679 405.107 317.254 404.573 317.254C404.159 317.254 404.032 317.508 403.961 317.618H403.922V317.282H403.608V320.193ZM403.928 318.34C403.928 317.866 404.137 317.546 404.534 317.546C404.948 317.546 405.152 317.894 405.152 318.34C405.152 318.792 404.942 319.151 404.534 319.151C404.143 319.151 403.928 318.82 403.928 318.34ZM405.973 319.399H406.298V318.059C406.298 317.773 406.524 317.563 406.833 317.563C406.92 317.563 407.009 317.58 407.031 317.585V317.254C406.994 317.252 406.909 317.249 406.86 317.249C406.607 317.249 406.386 317.392 406.309 317.602H406.287V317.282H405.973V319.399Z" fill="#5D657B"/>
<path d="M418.706 240.396H418.429V310.528H418.706V240.396Z" fill="white" fill-opacity="0.1"/>
<path d="M415.167 316.576V319.399H415.486V317.254H415.514L416.396 319.399H416.705L417.587 317.254H417.614V319.399H417.934V316.576H417.526L416.567 318.919H416.534L415.575 316.576H415.167ZM419.198 319.448C419.567 319.448 419.761 319.25 419.826 319.112H419.843V319.399H420.168V318.004C420.168 317.332 419.656 317.254 419.385 317.254C419.066 317.254 418.702 317.365 418.537 317.75L418.845 317.861C418.917 317.706 419.086 317.541 419.397 317.541C419.696 317.541 419.843 317.699 419.843 317.971V317.982C419.843 318.139 419.683 318.125 419.297 318.175C418.905 318.226 418.476 318.313 418.476 318.798C418.476 319.211 418.796 319.448 419.198 319.448ZM419.248 319.156C418.989 319.156 418.801 319.04 418.801 318.814C418.801 318.566 419.027 318.489 419.281 318.456C419.419 318.44 419.788 318.401 419.843 318.335V318.632C419.843 318.897 419.634 319.156 419.248 319.156ZM420.896 320.193C421.189 320.193 421.396 320.037 421.519 319.707L422.42 317.287L422.064 317.282L421.48 318.969H421.458L420.873 317.282H420.521L421.303 319.41L421.243 319.575C421.124 319.898 420.978 319.928 420.741 319.867L420.659 320.154C420.692 320.17 420.785 320.193 420.896 320.193Z" fill="#5D657B"/>
<path d="M433.12 240.396H432.843V310.528H433.12V240.396Z" fill="white" fill-opacity="0.1"/>
<path d="M431.493 316.576V318.594C431.493 318.945 431.325 319.134 431.03 319.134C430.762 319.134 430.567 318.977 430.567 318.737H430.231C430.231 319.171 430.567 319.437 431.03 319.437C431.521 319.437 431.835 319.136 431.835 318.594V316.576H431.493ZM433.81 318.533C433.81 318.93 433.507 319.112 433.264 319.112C432.994 319.112 432.801 318.914 432.801 318.605V317.282H432.476V318.627C432.476 319.167 432.763 319.426 433.159 319.426C433.479 319.426 433.689 319.255 433.788 319.04H433.81V319.399H434.135V317.282H433.81V318.533ZM435.056 318.125C435.056 317.756 435.285 317.546 435.596 317.546C435.898 317.546 436.081 317.743 436.081 318.076V319.399H436.407V318.054C436.407 317.513 436.119 317.254 435.69 317.254C435.37 317.254 435.172 317.398 435.073 317.613H435.045V317.282H434.731V319.399H435.056V318.125Z" fill="#5D657B"/>
<path opacity="0.05" d="M452.802 240.396H450.861C447.187 240.396 444.208 243.375 444.208 247.049V303.875C444.208 307.55 447.187 310.528 450.861 310.528H452.802C456.476 310.528 459.454 307.55 459.454 303.875V247.049C459.454 243.375 456.476 240.396 452.802 240.396Z" fill="url(#paint1_linear_512_10681)"/>
<path opacity="0.1" d="M451.97 240.396H451.693V310.528H451.97V240.396Z" fill="#8F92A1"/>
<path d="M450.111 316.576V318.594C450.111 318.945 449.943 319.134 449.648 319.134C449.379 319.134 449.185 318.977 449.185 318.737H448.849C448.849 319.171 449.185 319.437 449.648 319.437C450.138 319.437 450.453 319.135 450.453 318.594V316.576H450.111ZM452.428 318.533C452.428 318.93 452.124 319.112 451.882 319.112C451.612 319.112 451.419 318.914 451.419 318.605V317.282H451.094V318.627C451.094 319.167 451.38 319.426 451.777 319.426C452.097 319.426 452.306 319.255 452.406 319.04H452.428V319.399H452.753V317.282H452.428V318.533ZM453.674 316.576H453.348V319.399H453.674V316.576Z" fill="#5D657B"/>
<path d="M471.651 240.396H471.374V310.528H471.651V240.396Z" fill="white" fill-opacity="0.1"/>
<path d="M467.397 319.399L467.68 318.599H468.821L469.105 319.399H469.464L468.427 316.576H468.075L467.038 319.399H467.397ZM467.788 318.296L468.24 317.023H468.262L468.714 318.296H467.788ZM471.193 318.533C471.193 318.93 470.89 319.112 470.648 319.112C470.377 319.112 470.184 318.914 470.184 318.605V317.282H469.859V318.627C469.859 319.167 470.146 319.426 470.543 319.426C470.862 319.426 471.072 319.255 471.171 319.04H471.193V319.399H471.518V317.282H471.193V318.533ZM472.969 320.237C473.476 320.237 473.884 320.005 473.884 319.459V317.282H473.569V317.618H473.536C473.465 317.508 473.332 317.254 472.919 317.254C472.384 317.254 472.015 317.679 472.015 318.329C472.015 318.991 472.401 319.366 472.913 319.366C473.327 319.366 473.459 319.123 473.531 319.007H473.558V319.437C473.558 319.79 473.31 319.95 472.969 319.95C472.584 319.95 472.449 319.747 472.362 319.63L472.103 319.812C472.235 320.034 472.496 320.237 472.969 320.237ZM472.957 319.073C472.55 319.073 472.34 318.765 472.34 318.324C472.34 317.894 472.544 317.546 472.957 317.546C473.354 317.546 473.564 317.866 473.564 318.324C473.564 318.792 473.349 319.073 472.957 319.073Z" fill="#5D657B"/>
<path d="M486.066 240.396H485.788V310.528H486.066V240.396Z" fill="white" fill-opacity="0.1"/>
<path d="M483.793 317.282H484.124C484.109 316.856 483.716 316.538 483.17 316.538C482.63 316.538 482.205 316.852 482.205 317.326C482.205 317.706 482.481 317.932 482.922 318.059L483.269 318.158C483.567 318.241 483.831 318.346 483.831 318.627C483.831 318.936 483.534 319.14 483.143 319.14C482.806 319.14 482.509 318.991 482.481 318.671H482.128C482.161 319.134 482.536 319.448 483.143 319.448C483.793 319.448 484.162 319.09 484.162 318.632C484.162 318.103 483.661 317.932 483.369 317.855L483.082 317.778C482.872 317.723 482.536 317.613 482.536 317.309C482.536 317.039 482.784 316.841 483.159 316.841C483.501 316.841 483.76 317.004 483.793 317.282ZM485.568 319.443C485.998 319.443 486.312 319.228 486.411 318.908L486.097 318.82C486.014 319.04 485.823 319.151 485.568 319.151C485.186 319.151 484.923 318.904 484.908 318.451H486.444V318.313C486.444 317.524 485.976 317.254 485.535 317.254C484.961 317.254 484.581 317.706 484.581 318.357C484.581 319.007 484.956 319.443 485.568 319.443ZM484.908 318.169C484.929 317.84 485.163 317.546 485.535 317.546C485.887 317.546 486.113 317.811 486.113 318.169H484.908ZM486.939 320.193H487.264V319.073H487.292C487.363 319.189 487.501 319.443 487.909 319.443C488.438 319.443 488.808 319.018 488.808 318.346C488.808 317.679 488.438 317.254 487.904 317.254C487.49 317.254 487.363 317.508 487.292 317.618H487.253V317.282H486.939V320.193ZM487.258 318.34C487.258 317.866 487.468 317.546 487.865 317.546C488.278 317.546 488.482 317.894 488.482 318.34C488.482 318.792 488.273 319.151 487.865 319.151C487.474 319.151 487.258 318.82 487.258 318.34Z" fill="#5D657B"/>
<path d="M500.48 240.396H500.203V310.528H500.48V240.396Z" fill="white" fill-opacity="0.1"/>
<path d="M499.323 317.987C499.323 317.094 498.799 316.538 498.077 316.538C497.354 316.538 496.831 317.094 496.831 317.987C496.831 318.881 497.354 319.437 498.077 319.437C498.799 319.437 499.323 318.881 499.323 317.987ZM498.992 317.987C498.992 318.721 498.589 319.118 498.077 319.118C497.564 319.118 497.161 318.721 497.161 317.987C497.161 317.254 497.564 316.857 498.077 316.857C498.589 316.857 498.992 317.254 498.992 317.987ZM500.713 319.443C501.182 319.443 501.49 319.156 501.545 318.781H501.22C501.16 319.013 500.967 319.151 500.713 319.151C500.327 319.151 500.079 318.831 500.079 318.34C500.079 317.861 500.333 317.546 500.713 317.546C501 317.546 501.171 317.723 501.22 317.916H501.545C501.49 317.519 501.154 317.254 500.707 317.254C500.134 317.254 499.754 317.706 499.754 318.351C499.754 318.985 500.118 319.443 500.713 319.443ZM502.941 317.282H502.49V316.775H502.164V317.282H501.845V317.557H502.164V318.881C502.164 319.25 502.462 319.426 502.737 319.426C502.859 319.426 502.936 319.404 502.98 319.388L502.914 319.095C502.886 319.101 502.842 319.112 502.771 319.112C502.627 319.112 502.49 319.068 502.49 318.792V317.557H502.941V317.282Z" fill="#5D657B"/>
<g filter="url(#filter2_d_512_10681)">
<path fill-rule="evenodd" clip-rule="evenodd" d="M500.429 257.234C500.622 257.358 500.677 257.616 500.552 257.809C498.849 260.443 497.449 263.621 496.071 266.748L496.029 266.844C494.646 269.983 493.279 273.074 491.657 275.411C490.035 277.749 488.097 279.42 485.544 279.568C483.012 279.715 480.018 278.352 476.301 275C472.633 271.814 469.841 269.917 466.774 269.726C463.713 269.535 460.26 271.04 455.269 275.014C448.449 280.445 439.053 278.489 434.12 274.087L434.397 273.776L434.12 274.087C433.344 273.394 432.671 272.559 432.025 271.759C431.82 271.504 431.618 271.253 431.416 271.011C430.561 269.988 429.695 269.1 428.576 268.585C427.665 268.166 426.868 268.087 426.146 268.227C425.418 268.368 424.733 268.74 424.063 269.277C423.041 270.095 422.121 271.236 421.173 272.411C420.855 272.804 420.534 273.202 420.206 273.593C418.938 275.099 417.533 276.521 415.793 276.812C414.005 277.111 412.046 276.2 409.721 273.533C407.151 270.585 404.71 268.119 402.371 266.436C400.03 264.75 397.84 263.882 395.76 264.045C393.693 264.207 391.637 265.396 389.575 268.043C387.509 270.696 385.468 274.777 383.441 280.638C381.774 285.457 379.774 287.847 377.53 288.547C375.282 289.248 372.985 288.194 370.893 286.648C369.17 285.374 367.498 283.699 366.001 282.201C365.671 281.87 365.349 281.548 365.037 281.24C364.166 280.382 363.377 279.643 362.683 279.129C361.966 278.6 361.441 278.381 361.08 278.409C360.851 278.427 360.651 278.256 360.633 278.027C360.616 277.798 360.787 277.598 361.016 277.58C361.707 277.527 362.451 277.924 363.177 278.461C363.924 279.013 364.75 279.789 365.621 280.648C365.943 280.966 366.272 281.295 366.607 281.631C368.103 283.128 369.72 284.747 371.388 285.979C373.441 287.496 375.441 288.328 377.282 287.753C379.127 287.178 381.008 285.13 382.655 280.366C384.695 274.469 386.772 270.289 388.919 267.532C391.07 264.771 393.319 263.402 395.695 263.216C398.056 263.031 400.443 264.022 402.857 265.761C405.274 267.501 407.765 270.024 410.348 272.986C412.61 275.581 414.302 276.218 415.656 275.992C417.059 275.757 418.287 274.582 419.57 273.057C419.869 272.701 420.171 272.326 420.478 271.946C421.44 270.753 422.444 269.508 423.543 268.628C424.278 268.038 425.085 267.586 425.988 267.41C426.897 267.234 427.871 267.346 428.923 267.83C430.22 268.427 431.185 269.438 432.054 270.478C432.277 270.745 432.493 271.013 432.706 271.277C433.341 272.064 433.954 272.823 434.674 273.466C439.378 277.665 448.319 279.485 454.751 274.364C459.773 270.365 463.438 268.685 466.825 268.896C470.204 269.106 473.189 271.195 476.85 274.375L476.852 274.378L476.855 274.38C480.523 277.689 483.303 278.865 485.496 278.738C487.669 278.612 489.407 277.195 490.974 274.937C492.541 272.679 493.876 269.669 495.268 266.509L495.325 266.38C496.691 263.277 498.114 260.047 499.854 257.357C499.978 257.164 500.236 257.109 500.429 257.234Z" fill="#2F80ED"/>
</g>
<g filter="url(#filter3_d_512_10681)">
<path fill-rule="evenodd" clip-rule="evenodd" d="M440.964 267.264C438.967 267.734 436.63 269.681 433.927 274.079C432.906 275.74 431.978 277.267 431.127 278.667C429.145 281.93 427.585 284.497 426.264 286.428C425.318 287.809 424.48 288.887 423.681 289.672C422.881 290.459 422.1 290.972 421.263 291.193C419.579 291.636 417.865 290.843 415.654 289.321C414.479 288.513 413.109 287.458 411.478 286.201C410.031 285.087 408.379 283.814 406.477 282.416C402.021 279.142 398.72 277.183 396.105 276.254C393.51 275.332 391.623 275.435 389.952 276.251C388.247 277.083 386.716 278.68 384.891 280.882C384.373 281.507 383.832 282.179 383.259 282.892C381.831 284.666 380.204 286.69 378.227 288.852C375.61 291.713 373.377 292.741 371.408 292.331C369.47 291.927 367.994 290.162 366.784 287.991C365.609 285.882 364.62 283.265 363.69 280.803C363.653 280.707 363.617 280.611 363.581 280.515C362.609 277.944 361.703 275.593 360.702 274.092C360.575 273.901 360.626 273.642 360.817 273.515C361.008 273.388 361.267 273.44 361.394 273.631C362.459 275.228 363.399 277.682 364.359 280.221C364.392 280.308 364.425 280.396 364.458 280.483C365.396 282.967 366.366 285.532 367.51 287.587C368.707 289.734 370.026 291.193 371.578 291.517C373.098 291.834 375.049 291.094 377.613 288.29L377.92 288.571L377.613 288.29C379.571 286.15 381.171 284.16 382.594 282.392C383.171 281.674 383.719 280.992 384.25 280.351C386.072 278.154 387.703 276.424 389.587 275.504C391.504 274.567 393.63 274.492 396.383 275.47C399.117 276.442 402.499 278.461 406.969 281.746C408.916 283.177 410.573 284.454 412.014 285.564C413.619 286.802 414.956 287.832 416.125 288.636C418.348 290.165 419.769 290.726 421.051 290.389C421.698 290.218 422.358 289.807 423.098 289.079C423.84 288.35 424.642 287.324 425.577 285.958C426.886 284.046 428.427 281.51 430.401 278.26C431.254 276.857 432.188 275.32 433.218 273.643L433.572 273.861L433.218 273.643C435.946 269.205 438.437 267.005 440.774 266.454C443.154 265.894 445.217 267.072 446.987 268.948C448.757 270.824 450.316 273.479 451.716 276.088C452.13 276.859 452.529 277.624 452.916 278.366C453.853 280.16 454.718 281.818 455.546 283.091C457.871 286.667 460.505 288.527 463.408 288.843C466.325 289.161 469.627 287.934 473.312 285.076C475.213 283.601 476.995 282.795 478.675 282.54C480.36 282.283 481.914 282.586 483.345 283.281C486.184 284.659 488.544 287.583 490.588 290.754C491.615 292.347 492.573 294.02 493.478 295.617C493.569 295.778 493.66 295.937 493.749 296.096C494.556 297.521 495.319 298.87 496.058 300.044C496.882 301.354 497.658 302.418 498.407 303.119C499.16 303.824 499.812 304.095 500.41 303.993C500.637 303.954 500.851 304.106 500.89 304.333C500.929 304.559 500.777 304.774 500.55 304.813C499.571 304.98 498.664 304.499 497.839 303.726C497.009 302.949 496.186 301.81 495.354 300.487C494.604 299.295 493.831 297.929 493.027 296.508C492.936 296.348 492.846 296.188 492.754 296.027C491.849 294.429 490.902 292.775 489.889 291.204C487.854 288.048 485.598 285.299 482.982 284.029C481.685 283.399 480.301 283.133 478.8 283.362C477.294 283.591 475.642 284.321 473.822 285.733C470.057 288.653 466.54 290.021 463.318 289.67C460.081 289.318 457.255 287.245 454.849 283.545C453.998 282.236 453.103 280.521 452.157 278.709C451.774 277.976 451.383 277.226 450.984 276.482C449.583 273.873 448.069 271.306 446.382 269.518C444.694 267.73 442.917 266.804 440.964 267.264Z" fill="#F2994A"/>
</g>
<g filter="url(#filter4_d_512_10681)">
<path d="M451.55 279.826C453.941 279.826 455.88 277.887 455.88 275.496C455.88 273.104 453.941 271.166 451.55 271.166C449.158 271.166 447.22 273.104 447.22 275.496C447.22 277.887 449.158 279.826 451.55 279.826Z" fill="#2F80ED"/>
<path fill-rule="evenodd" clip-rule="evenodd" d="M451.55 273.383C450.383 273.383 449.437 274.329 449.437 275.496C449.437 276.663 450.383 277.608 451.55 277.608C452.716 277.608 453.662 276.663 453.662 275.496C453.662 274.329 452.716 273.383 451.55 273.383ZM447.22 275.496C447.22 273.104 449.158 271.166 451.55 271.166C453.941 271.166 455.88 273.104 455.88 275.496C455.88 277.887 453.941 279.826 451.55 279.826C449.158 279.826 447.22 277.887 447.22 275.496Z" fill="white"/>
</g>
<path d="M470.265 245.663H432.843C431.618 245.663 430.625 246.656 430.625 247.881V263.404C430.625 264.629 431.618 265.622 432.843 265.622H470.265C471.49 265.622 472.483 264.629 472.483 263.404V247.881C472.483 246.656 471.49 245.663 470.265 245.663Z" fill="#3C4158"/>
<path d="M451.764 268.152C451.653 268.279 451.455 268.279 451.345 268.152L447.99 264.279C447.835 264.099 447.962 263.82 448.2 263.82H454.909C455.146 263.82 455.273 264.099 455.118 264.279L451.764 268.152Z" fill="#3C4158"/>
<path d="M437.804 251.585H438.135C438.12 251.159 437.727 250.841 437.182 250.841C436.641 250.841 436.217 251.155 436.217 251.629C436.217 252.01 436.492 252.236 436.933 252.362L437.281 252.462C437.578 252.544 437.843 252.649 437.843 252.93C437.843 253.239 437.545 253.443 437.154 253.443C436.818 253.443 436.52 253.294 436.492 252.974H436.14C436.173 253.437 436.548 253.752 437.154 253.752C437.804 253.752 438.174 253.393 438.174 252.936C438.174 252.407 437.672 252.236 437.38 252.158L437.093 252.081C436.884 252.026 436.548 251.916 436.548 251.613C436.548 251.343 436.796 251.144 437.17 251.144C437.512 251.144 437.771 251.307 437.804 251.585ZM439.612 251.585H439.16V251.078H438.835V251.585H438.515V251.861H438.835V253.184C438.835 253.553 439.132 253.73 439.408 253.73C439.529 253.73 439.606 253.708 439.651 253.691L439.585 253.399C439.557 253.404 439.513 253.415 439.441 253.415C439.298 253.415 439.16 253.371 439.16 253.096V251.861H439.612V251.585ZM440.938 253.746C441.512 253.746 441.898 253.311 441.898 252.655C441.898 251.993 441.512 251.558 440.938 251.558C440.365 251.558 439.979 251.993 439.979 252.655C439.979 253.311 440.365 253.746 440.938 253.746ZM440.938 253.454C440.503 253.454 440.305 253.079 440.305 252.655C440.305 252.23 440.503 251.85 440.938 251.85C441.374 251.85 441.572 252.23 441.572 252.655C441.572 253.079 441.374 253.454 440.938 253.454ZM442.394 253.702H442.719V252.362C442.719 252.076 442.945 251.866 443.254 251.866C443.341 251.866 443.43 251.883 443.453 251.888V251.558C443.416 251.555 443.33 251.552 443.282 251.552C443.028 251.552 442.808 251.695 442.731 251.905H442.708V251.585H442.394V253.702ZM444.661 253.746C445.091 253.746 445.406 253.531 445.505 253.211L445.19 253.123C445.108 253.344 444.916 253.454 444.661 253.454C444.28 253.454 444.016 253.207 444.001 252.754H445.538V252.616C445.538 251.828 445.069 251.558 444.628 251.558C444.055 251.558 443.674 252.01 443.674 252.66C443.674 253.311 444.049 253.746 444.661 253.746ZM444.001 252.473C444.023 252.143 444.256 251.85 444.628 251.85C444.981 251.85 445.207 252.114 445.207 252.473H444.001ZM447.284 250.88H446.925L447.962 253.702H448.315L449.351 250.88H448.993L448.155 253.255H448.122L447.284 250.88ZM449.747 253.702H450.072V251.585H449.747V253.702ZM449.912 251.232C450.039 251.232 450.143 251.133 450.143 251.012C450.143 250.891 450.039 250.791 449.912 250.791C449.785 250.791 449.681 250.891 449.681 251.012C449.681 251.133 449.785 251.232 449.912 251.232ZM452.167 252.059C452.065 251.759 451.836 251.558 451.417 251.558C450.971 251.558 450.64 251.811 450.64 252.17C450.64 252.462 450.813 252.657 451.202 252.748L451.555 252.831C451.769 252.881 451.869 252.983 451.869 253.129C451.869 253.311 451.676 253.459 451.373 253.459C451.107 253.459 450.94 253.345 450.882 253.118L450.574 253.195C450.65 253.555 450.946 253.746 451.379 253.746C451.871 253.746 452.206 253.477 452.206 253.112C452.206 252.817 452.021 252.631 451.643 252.539L451.329 252.462C451.078 252.4 450.965 252.316 450.965 252.153C450.965 251.971 451.158 251.839 451.417 251.839C451.701 251.839 451.818 251.996 451.875 252.142L452.167 252.059ZM452.695 253.702H453.02V251.585H452.695V253.702ZM452.86 251.232C452.987 251.232 453.092 251.133 453.092 251.012C453.092 250.891 452.987 250.791 452.86 250.791C452.734 250.791 452.629 250.891 452.629 251.012C452.629 251.133 452.734 251.232 452.86 251.232ZM454.537 251.585H454.084V251.078H453.759V251.585H453.44V251.861H453.759V253.184C453.759 253.553 454.057 253.73 454.333 253.73C454.454 253.73 454.531 253.708 454.575 253.691L454.509 253.399C454.481 253.404 454.437 253.415 454.366 253.415C454.222 253.415 454.084 253.371 454.084 253.096V251.861H454.537V251.585ZM456.487 252.059C456.385 251.759 456.157 251.558 455.738 251.558C455.291 251.558 454.96 251.811 454.96 252.17C454.96 252.462 455.134 252.657 455.523 252.748L455.875 252.831C456.089 252.881 456.19 252.983 456.19 253.129C456.19 253.311 455.997 253.459 455.694 253.459C455.427 253.459 455.261 253.345 455.203 253.118L454.894 253.195C454.97 253.555 455.266 253.746 455.699 253.746C456.191 253.746 456.526 253.477 456.526 253.112C456.526 252.817 456.341 252.631 455.964 252.539L455.65 252.462C455.399 252.4 455.286 252.316 455.286 252.153C455.286 251.971 455.478 251.839 455.738 251.839C456.022 251.839 456.139 251.996 456.195 252.142L456.487 252.059Z" fill="white"/>
<path d="M459.152 250.88H458.737L458.033 251.34V251.748L458.708 251.307H458.724V253.702H459.152V250.88ZM459.856 253.151H461.194V253.702H461.6V253.151H461.974V252.79H461.6V250.88H461.075L459.856 252.806V253.151ZM461.197 252.79H460.302V252.768L461.175 251.387H461.197V252.79ZM462.395 253.151H463.733V253.702H464.14V253.151H464.513V252.79H464.14V250.88H463.615L462.395 252.806V253.151ZM463.736 252.79H462.841V252.768L463.714 251.387H463.736V252.79ZM465.979 253.741C466.569 253.746 466.96 253.322 466.959 252.78C466.96 252.24 466.567 251.853 466.078 251.853C465.78 251.853 465.523 251.996 465.378 252.234H465.357C465.359 251.594 465.601 251.213 466.015 251.213C466.286 251.213 466.457 251.379 466.515 251.613H466.935C466.871 251.166 466.519 250.841 466.015 250.841C465.359 250.841 464.949 251.405 464.949 252.386C464.948 253.425 465.477 253.737 465.979 253.741ZM465.977 253.382C465.65 253.382 465.41 253.107 465.41 252.79C465.411 252.474 465.662 252.199 465.987 252.199C466.31 252.199 466.547 252.459 466.545 252.786C466.547 253.119 466.3 253.382 465.977 253.382Z" fill="#2F80ED"/>
<path d="M439.687 258.918H439.329L440.365 261.741H440.718L441.754 258.918H441.396L440.558 261.294H440.525L439.687 258.918ZM442.15 261.741H442.475V259.624H442.15V261.741ZM442.315 259.271C442.442 259.271 442.547 259.172 442.547 259.051C442.547 258.929 442.442 258.83 442.315 258.83C442.188 258.83 442.084 258.929 442.084 259.051C442.084 259.172 442.188 259.271 442.315 259.271ZM444.57 260.098C444.468 259.798 444.239 259.596 443.821 259.596C443.374 259.596 443.043 259.85 443.043 260.208C443.043 260.501 443.217 260.696 443.605 260.787L443.958 260.87C444.172 260.919 444.272 261.021 444.272 261.168C444.272 261.349 444.079 261.498 443.776 261.498C443.51 261.498 443.344 261.384 443.286 261.156L442.977 261.234C443.053 261.593 443.349 261.785 443.782 261.785C444.274 261.785 444.609 261.516 444.609 261.151C444.609 260.856 444.424 260.67 444.046 260.578L443.732 260.501C443.481 260.438 443.368 260.354 443.368 260.192C443.368 260.01 443.561 259.878 443.821 259.878C444.104 259.878 444.221 260.035 444.278 260.181L444.57 260.098ZM445.098 261.741H445.424V259.624H445.098V261.741ZM445.264 259.271C445.391 259.271 445.495 259.172 445.495 259.051C445.495 258.929 445.391 258.83 445.264 258.83C445.137 258.83 445.032 258.929 445.032 259.051C445.032 259.172 445.137 259.271 445.264 259.271ZM446.94 259.624H446.488V259.117H446.163V259.624H445.843V259.9H446.163V261.223C446.163 261.592 446.46 261.768 446.736 261.768C446.857 261.768 446.934 261.746 446.978 261.73L446.912 261.438C446.885 261.443 446.841 261.454 446.769 261.454C446.625 261.454 446.488 261.41 446.488 261.134V259.9H446.94V259.624ZM448.266 261.785C448.839 261.785 449.225 261.349 449.225 260.693C449.225 260.032 448.839 259.596 448.266 259.596C447.693 259.596 447.307 260.032 447.307 260.693C447.307 261.349 447.693 261.785 448.266 261.785ZM448.266 261.493C447.831 261.493 447.632 261.118 447.632 260.693C447.632 260.269 447.831 259.889 448.266 259.889C448.702 259.889 448.9 260.269 448.9 260.693C448.9 261.118 448.702 261.493 448.266 261.493ZM449.722 261.741H450.047V260.401C450.047 260.115 450.273 259.905 450.582 259.905C450.669 259.905 450.758 259.922 450.78 259.927V259.596C450.743 259.594 450.658 259.591 450.609 259.591C450.356 259.591 450.135 259.734 450.058 259.944H450.036V259.624H449.722V261.741ZM452.665 260.098C452.563 259.798 452.334 259.596 451.916 259.596C451.469 259.596 451.138 259.85 451.138 260.208C451.138 260.501 451.312 260.696 451.7 260.787L452.053 260.87C452.267 260.919 452.367 261.021 452.367 261.168C452.367 261.349 452.174 261.498 451.872 261.498C451.605 261.498 451.439 261.384 451.381 261.156L451.072 261.234C451.148 261.593 451.444 261.785 451.877 261.785C452.369 261.785 452.704 261.516 452.704 261.151C452.704 260.856 452.519 260.67 452.142 260.578L451.827 260.501C451.577 260.438 451.463 260.354 451.463 260.192C451.463 260.01 451.656 259.878 451.916 259.878C452.199 259.878 452.317 260.035 452.373 260.181L452.665 260.098Z" fill="white"/>
<path d="M454.199 261.19H455.538V261.741H455.944V261.19H456.318V260.829H455.944V258.918H455.419L454.199 260.845V261.19ZM455.54 260.829H454.646V260.807L455.518 259.426H455.54V260.829ZM457.73 261.779C458.297 261.779 458.703 261.378 458.701 260.829C458.703 260.283 458.322 259.886 457.808 259.886C457.599 259.886 457.404 259.966 457.294 260.073H457.278L457.367 259.284H458.565V258.918H457.013L456.855 260.341L457.245 260.399C457.351 260.303 457.541 260.239 457.712 260.239C458.046 260.241 458.289 260.492 458.289 260.837C458.289 261.176 458.053 261.421 457.73 261.421C457.457 261.421 457.24 261.248 457.218 261.005H456.805C456.821 261.454 457.211 261.779 457.73 261.779ZM460.136 261.779C460.704 261.779 461.109 261.378 461.108 260.829C461.109 260.283 460.729 259.886 460.215 259.886C460.005 259.886 459.811 259.966 459.701 260.073H459.684L459.774 259.284H460.971V258.918H459.419L459.261 260.341L459.651 260.399C459.757 260.303 459.947 260.239 460.118 260.239C460.453 260.241 460.696 260.492 460.696 260.837C460.696 261.176 460.46 261.421 460.136 261.421C459.863 261.421 459.647 261.248 459.625 261.005H459.211C459.228 261.454 459.618 261.779 460.136 261.779ZM461.552 261.19H462.89V261.741H463.296V261.19H463.67V260.829H463.296V258.918H462.771L461.552 260.845V261.19ZM462.893 260.829H461.998V260.807L462.871 259.426H462.893V260.829Z" fill="#F2994A"/>
</g>
</g>
<defs>
<filter id="filter0_d_512_10681" x="46.9999" y="55.9523" width="452" height="429" filterUnits="userSpaceOnUse" color-interpolation-filters="sRGB">
<feFlood flood-opacity="0" result="BackgroundImageFix"/>
<feColorMatrix in="SourceAlpha" type="matrix" values="0 0 0 0 0 0 0 0 0 0 0 0 0 0 0 0 0 0 127 0" result="hardAlpha"/>
<feOffset dy="14"/>
<feGaussianBlur stdDeviation="25.5"/>
<feColorMatrix type="matrix" values="0 0 0 0 0 0 0 0 0 0 0 0 0 0 0 0 0 0 0.031 0"/>
<feBlend mode="normal" in2="BackgroundImageFix" result="effect1_dropShadow_512_10681"/>
<feBlend mode="normal" in="SourceGraphic" in2="effect1_dropShadow_512_10681" result="shape"/>
</filter>
<filter id="filter1_d_512_10681" x="322" y="216.952" width="217.378" height="151" filterUnits="userSpaceOnUse" color-interpolation-filters="sRGB">
<feFlood flood-opacity="0" result="BackgroundImageFix"/>
<feColorMatrix in="SourceAlpha" type="matrix" values="0 0 0 0 0 0 0 0 0 0 0 0 0 0 0 0 0 0 127 0" result="hardAlpha"/>
<feOffset dy="12"/>
<feGaussianBlur stdDeviation="12"/>
<feColorMatrix type="matrix" values="0 0 0 0 0.176471 0 0 0 0 0.290196 0 0 0 0 0.666667 0 0 0 0.114 0"/>
<feBlend mode="normal" in2="BackgroundImageFix" result="effect1_dropShadow_512_10681"/>
<feBlend mode="normal" in="SourceGraphic" in2="effect1_dropShadow_512_10681" result="shape"/>
</filter>
<filter id="filter2_d_512_10681" x="356.632" y="257.167" width="147.987" height="45.6014" filterUnits="userSpaceOnUse" color-interpolation-filters="sRGB">
<feFlood flood-opacity="0" result="BackgroundImageFix"/>
<feColorMatrix in="SourceAlpha" type="matrix" values="0 0 0 0 0 0 0 0 0 0 0 0 0 0 0 0 0 0 127 0" result="hardAlpha"/>
<feOffset dy="10"/>
<feGaussianBlur stdDeviation="2"/>
<feColorMatrix type="matrix" values="0 0 0 0 0.384314 0 0 0 0 0.235294 0 0 0 0 0.917647 0 0 0 0.08 0"/>
<feBlend mode="normal" in2="BackgroundImageFix" result="effect1_dropShadow_512_10681"/>
<feBlend mode="normal" in="SourceGraphic" in2="effect1_dropShadow_512_10681" result="shape"/>
</filter>
<filter id="filter3_d_512_10681" x="356.632" y="266.314" width="148.264" height="52.5319" filterUnits="userSpaceOnUse" color-interpolation-filters="sRGB">
<feFlood flood-opacity="0" result="BackgroundImageFix"/>
<feColorMatrix in="SourceAlpha" type="matrix" values="0 0 0 0 0 0 0 0 0 0 0 0 0 0 0 0 0 0 127 0" result="hardAlpha"/>
<feOffset dy="10"/>
<feGaussianBlur stdDeviation="2"/>
<feColorMatrix type="matrix" values="0 0 0 0 0.94902 0 0 0 0 0.6 0 0 0 0 0.290196 0 0 0 0.08 0"/>
<feBlend mode="normal" in2="BackgroundImageFix" result="effect1_dropShadow_512_10681"/>
<feBlend mode="normal" in="SourceGraphic" in2="effect1_dropShadow_512_10681" result="shape"/>
</filter>
<filter id="filter4_d_512_10681" x="431.22" y="263.166" width="40.6603" height="40.6604" filterUnits="userSpaceOnUse" color-interpolation-filters="sRGB">
<feFlood flood-opacity="0" result="BackgroundImageFix"/>
<feColorMatrix in="SourceAlpha" type="matrix" values="0 0 0 0 0 0 0 0 0 0 0 0 0 0 0 0 0 0 127 0" result="hardAlpha"/>
<feOffset dy="8"/>
<feGaussianBlur stdDeviation="8"/>
<feColorMatrix type="matrix" values="0 0 0 0 0.321569 0 0 0 0 0.262745 0 0 0 0 0.666667 0 0 0 0.32 0"/>
<feBlend mode="normal" in2="BackgroundImageFix" result="effect1_dropShadow_512_10681"/>
<feBlend mode="normal" in="SourceGraphic" in2="effect1_dropShadow_512_10681" result="shape"/>
</filter>
<linearGradient id="paint0_linear_512_10681" x1="882" y1="500" x2="882" y2="1000" gradientUnits="userSpaceOnUse">
<stop stop-color="#252A42" stop-opacity="0"/>
<stop offset="1" stop-color="#24283E"/>
</linearGradient>
<linearGradient id="paint1_linear_512_10681" x1="444.208" y1="240.396" x2="444.208" y2="310.528" gradientUnits="userSpaceOnUse">
<stop stop-color="white" stop-opacity="0.71"/>
<stop offset="1" stop-color="#0052CC"/>
</linearGradient>
<clipPath id="clip0_512_10681">
<rect width="290.698" height="250" fill="white" transform="translate(128 130.952)"/>
</clipPath>
<clipPath id="clip1_512_10681">
<rect width="145.808" height="80.1111" fill="white" transform="translate(357.444 240.396)"/>
</clipPath>
</defs>
</svg>
