<?xml version="1.0" encoding="UTF-8"?>
<svg version="1.1" xmlns="http://www.w3.org/2000/svg" width="460" height="97">
<path d="M0 0 C3.33655431 2.4315215 6.26427728 5.07987527 9.0625 8.125 C9.619375 8.62 10.17625 9.115 10.75 9.625 C12.0625 11.125 12.0625 11.125 12.9375 13.4375 C13.96978144 16.32312832 13.96978144 16.32312832 16.5 18.8125 C20.48768343 23.46479733 22.20273661 28.89517556 21.9375 35.00390625 C20.94985826 41.48530514 19.21928939 46.08962558 14.4375 50.6875 C12.89411182 52.09612458 12.89411182 52.09612458 12.3125 54.375 C8.87319342 61.94147448 1.26591782 66.54046935 -5.9375 70.125 C-15.73432128 73.7171678 -26.86260862 73.39833943 -36.47265625 69.390625 C-40.3605282 67.39431674 -43.6653024 65.01054843 -46.9375 62.125 C-47.51628906 61.61582031 -48.09507813 61.10664062 -48.69140625 60.58203125 C-51.85167288 57.61975723 -53.43889386 55.12128304 -54.9375 51.125 C-55.741875 50.2175 -56.54625 49.31 -57.375 48.375 C-61.69903904 43.34525726 -63.28125161 37.64433237 -62.9375 31.0625 C-62.13719039 25.3536248 -59.58945865 20.56350832 -55.3359375 16.65234375 C-53.66538215 14.82779866 -53.5112011 13.50111639 -52.9375 11.125 C-46.93922836 2.06339085 -37.91889453 -2.96276324 -27.51953125 -5.40625 C-18.01108834 -7.13244236 -8.14659532 -5.26813164 0 0 Z " fill="#DDE3CB" transform="translate(86.9375,16.875)"/>
<path d="M0 0 C5.94 0 11.88 0 18 0 C19.35901419 3.39753547 20.32181593 5.98271395 21.02148438 9.45141602 C21.1950647 10.29901993 21.36864502 11.14662384 21.54748535 12.01991272 C21.72775269 12.92213058 21.90802002 13.82434845 22.09375 14.75390625 C22.48825524 16.67904179 22.8827873 18.60417183 23.27734375 20.52929688 C23.89108769 23.55298243 24.5029374 26.57704328 25.11376953 29.60131836 C25.70660043 32.52815348 26.30616431 35.4535514 26.90625 38.37890625 C27.08651733 39.28314835 27.26678467 40.18739044 27.45251465 41.11903381 C27.62609497 41.96348557 27.79967529 42.80793732 27.97851562 43.67797852 C28.12792603 44.41790543 28.27733643 45.15783234 28.43127441 45.92018127 C29.03535487 48.12929209 29.91222884 49.98996726 31 52 C31.76570313 50.54207031 31.76570313 50.54207031 32.546875 49.0546875 C37.99685278 38.7055954 43.56770657 28.42607419 49.1796875 18.1640625 C52.48179943 12.12458616 55.74548208 6.06523793 59 0 C64.94 0 70.88 0 77 0 C81.67021215 19.60660069 86.01616923 39.2413668 90 59 C84.39 59 78.78 59 73 59 C71 54 71 54 71 49 C64.07 49 57.14 49 50 49 C49.34 50.65 48.68 52.3 48 54 C46.81713867 56.78198242 46.81713867 56.78198242 45 59 C41.8137207 59.56762695 41.8137207 59.56762695 37.92578125 59.48828125 C37.2419487 59.48120651 36.55811615 59.47413177 35.8535614 59.46684265 C33.67208841 59.43888004 31.49319506 59.37615064 29.3125 59.3125 C27.8327194 59.28741897 26.35289851 59.26460544 24.87304688 59.24414062 C21.24786137 59.18905135 17.62418247 59.10277108 14 59 C13.01 56.03 12.02 53.06 11 50 C4.4 49.67 -2.2 49.34 -9 49 C-9.66 50.98 -10.32 52.96 -11 55 C-12.08203125 57.359375 -12.08203125 57.359375 -14 59 C-16.91076745 59.48680745 -19.74712597 59.37543023 -22.6875 59.25 C-23.88342773 59.22292969 -23.88342773 59.22292969 -25.10351562 59.1953125 C-27.06952449 59.14822247 -29.03491494 59.07647899 -31 59 C-27.01638129 50.83738073 -22.9455785 42.76244189 -18.4375 34.875 C-14.97480975 28.8151076 -11.78577114 22.68360099 -8.70703125 16.41796875 C-5.93707182 10.87171131 -2.96437856 5.44477694 0 0 Z M6 21 C1.16035745 28.02700945 1.16035745 28.02700945 -1 36 C2.3 36.33 5.6 36.66 9 37 C8.85764543 35.27054347 8.71095618 33.54144346 8.5625 31.8125 C8.48128906 30.84957031 8.40007812 29.88664062 8.31640625 28.89453125 C8.02333849 26.21350398 7.57296246 23.6337014 7 21 C6.67 21 6.34 21 6 21 Z M64 21 C60.535 28.425 60.535 28.425 57 36 C60.63 36 64.26 36 68 36 C67.34 31.05 66.68 26.1 66 21 C65.34 21 64.68 21 64 21 Z " fill="#233CE6" transform="translate(311,17)"/>
<path d="M0 0 C3.33655431 2.4315215 6.26427728 5.07987527 9.0625 8.125 C9.64 8.62 10.2175 9.115 10.8125 9.625 C12.50645709 11.6577485 12.71357359 13.54294457 13.0625 16.125 C12.299375 15.815625 11.53625 15.50625 10.75 15.1875 C4.47070864 12.70498946 -0.34818315 12.09636728 -6.64453125 14.59765625 C-11.96153602 17.38399208 -15.82539799 21.57760396 -19.9375 25.875 C-20.71222656 26.66777344 -21.48695312 27.46054687 -22.28515625 28.27734375 C-24.17877097 30.21771439 -26.06234287 32.1668148 -27.9375 34.125 C-26.9475 34.62 -26.9475 34.62 -25.9375 35.125 C-26.49300695 38.72405908 -27.68637248 40.12409799 -30.5 42.375 C-31.46099609 43.15617187 -31.46099609 43.15617187 -32.44140625 43.953125 C-32.93511719 44.33984375 -33.42882812 44.7265625 -33.9375 45.125 C-30.26060696 43.5971586 -28.03551192 41.36872494 -25.3125 38.5 C-23.89239873 37.00441162 -22.44155032 35.53613602 -20.9375 34.125 C-20.2775 34.125 -19.6175 34.125 -18.9375 34.125 C-18.125 36.8125 -18.125 36.8125 -17.9375 40.125 C-19.55556402 42.17454775 -20.95357182 43.48297327 -22.9375 45.125 C-23.64003906 45.79144531 -24.34257813 46.45789062 -25.06640625 47.14453125 C-31.74903908 53.42010016 -36.33825212 55.36512044 -45.47265625 55.29296875 C-52.15834872 54.83736689 -52.15834872 54.83736689 -54.8515625 52.375 C-59.97658445 45.6352451 -63.36100262 39.71783484 -62.9375 31.0625 C-62.13719039 25.3536248 -59.58945865 20.56350832 -55.3359375 16.65234375 C-53.66538215 14.82779866 -53.5112011 13.50111639 -52.9375 11.125 C-46.93922836 2.06339085 -37.91889453 -2.96276324 -27.51953125 -5.40625 C-18.01108834 -7.13244236 -8.14659532 -5.26813164 0 0 Z " fill="#15AED0" transform="translate(86.9375,16.875)"/>
<path d="M0 0 C5.28 0 10.56 0 16 0 C15.690625 2.51625 15.38125 5.0325 15.0625 7.625 C14.96718994 8.40568848 14.87187988 9.18637695 14.77368164 9.99072266 C14.69496826 10.6254248 14.61625488 11.26012695 14.53515625 11.9140625 C14.456604 12.5529541 14.37805176 13.1918457 14.29711914 13.85009766 C13.92053085 16.57502493 13.45223312 19.28660129 13 22 C19.93 22 26.86 22 34 22 C34.61547202 16.63075648 34.61547202 16.63075648 35.22631836 11.26098633 C35.34438843 10.24427856 35.34438843 10.24427856 35.46484375 9.20703125 C35.543396 8.5210083 35.62194824 7.83498535 35.70288086 7.12817383 C36.03681646 4.7362949 36.5263644 2.36817802 37 0 C42.28 0 47.56 0 53 0 C51.72091073 11.4870867 50.17109561 22.8867024 48.34057617 34.2980957 C47.9306862 36.85500475 47.5265217 39.41277466 47.12304688 41.97070312 C46.86230631 43.61203117 46.60125084 45.25330923 46.33984375 46.89453125 C46.22003647 47.6517598 46.10022919 48.40898834 45.97679138 49.18916321 C45.44181442 52.51230945 44.81730208 55.73079167 44 59 C38.72 59 33.44 59 28 59 C28.73158011 50.95261883 29.82427311 42.99494289 31 35 C21.1 35.495 21.1 35.495 11 36 C9.68 43.59 8.36 51.18 7 59 C1.72 59 -3.56 59 -9 59 C-8.338889 51.89870039 -7.45905886 44.86558723 -6.40625 37.8125 C-6.25466431 36.78817871 -6.10307861 35.76385742 -5.94689941 34.70849609 C-5.62873073 32.5637853 -5.30933886 30.41925563 -4.98876953 28.27490234 C-4.49732376 24.98206837 -4.012146 21.68834913 -3.52734375 18.39453125 C-3.21652295 16.30463138 -2.90533821 14.21478559 -2.59375 12.125 C-2.44893188 11.13862549 -2.30411377 10.15225098 -2.15490723 9.13598633 C-1.94964417 7.77316528 -1.94964417 7.77316528 -1.74023438 6.3828125 C-1.62111694 5.58246582 -1.50199951 4.78211914 -1.37927246 3.95751953 C-1 2 -1 2 0 0 Z " fill="#233CE6" transform="translate(234,17)"/>
<path d="M0 0 C0.74886475 0.00523682 1.49772949 0.01047363 2.26928711 0.01586914 C3.07817383 0.0190918 3.88706055 0.02231445 4.72045898 0.02563477 C5.5705957 0.03401367 6.42073242 0.04239258 7.29663086 0.05102539 C8.15063477 0.05553711 9.00463867 0.06004883 9.88452148 0.06469727 C12.00108749 0.07652166 14.11761771 0.0944577 16.23413086 0.11352539 C17.83569336 7.32055664 19.43725586 14.52758789 21.03881836 21.73461914 C21.29967224 22.90785736 21.29967224 22.90785736 21.5657959 24.10479736 C21.91861695 25.69330825 22.27074523 27.28197316 22.62219238 28.87078857 C23.52936233 32.96762803 24.44936839 37.06089755 25.39233398 41.1496582 C25.6710434 42.37001266 25.6710434 42.37001266 25.9553833 43.61502075 C26.30853901 45.15987406 26.66583671 46.70378858 27.02801514 48.24655151 C27.8916786 52.04527758 28.23413086 55.16756678 28.23413086 59.11352539 C22.62413086 59.11352539 17.01413086 59.11352539 11.23413086 59.11352539 C10.57413086 56.14352539 9.91413086 53.17352539 9.23413086 50.11352539 C2.63413086 50.11352539 -3.96586914 50.11352539 -10.76586914 50.11352539 C-12.41586914 53.08352539 -14.06586914 56.05352539 -15.76586914 59.11352539 C-21.37586914 59.11352539 -26.98586914 59.11352539 -32.76586914 59.11352539 C-31.29420788 54.69854162 -29.92646754 51.27335709 -27.75415039 47.26196289 C-27.16053711 46.16239258 -26.56692383 45.06282227 -25.95532227 43.92993164 C-25.02623047 42.22643555 -25.02623047 42.22643555 -24.07836914 40.48852539 C-23.47831055 39.37606445 -22.87825195 38.26360352 -22.26000977 37.11743164 C-19.27605605 31.61105948 -16.22737064 26.15589748 -13.05102539 20.75805664 C-10.47887122 16.38311895 -8.10885203 11.98975515 -5.89086914 7.42602539 C-2.34466213 0.15073523 -2.34466213 0.15073523 0 0 Z M3.23413086 21.11352539 C2.03687203 23.40055847 0.85116068 25.69237401 -0.32836914 27.98852539 C-0.67061523 28.63950195 -1.01286133 29.29047852 -1.36547852 29.96118164 C-2.22669805 31.64882396 -3.00273617 33.37932132 -3.76586914 35.11352539 C-3.43586914 35.77352539 -3.10586914 36.43352539 -2.76586914 37.11352539 C1.68913086 36.61852539 1.68913086 36.61852539 6.23413086 36.11352539 C6.42805287 30.58674806 5.98208116 26.35737628 4.23413086 21.11352539 C3.90413086 21.11352539 3.57413086 21.11352539 3.23413086 21.11352539 Z " fill="#233CE6" transform="translate(193.765869140625,16.886474609375)"/>
<path d="M0 0 C0.99 0.66 1.98 1.32 3 2 C2.36610765 5.49844386 0.94822306 7.84086876 -1.0625 10.75 C-1.61035156 11.54921875 -2.15820312 12.3484375 -2.72265625 13.171875 C-3.14417969 13.77515625 -3.56570312 14.3784375 -4 15 C-5.175625 14.484375 -6.35125 13.96875 -7.5625 13.4375 C-11.84115682 11.8053564 -14.58035721 11.98716519 -19 13 C-19.33 14.65 -19.66 16.3 -20 18 C-18.97519531 18.36351563 -17.95039063 18.72703125 -16.89453125 19.1015625 C-15.53350141 19.60842879 -14.17284358 20.11629477 -12.8125 20.625 C-12.13896484 20.86089844 -11.46542969 21.09679687 -10.77148438 21.33984375 C-5.66508578 23.28276614 -3.13245687 25.50817506 0 30 C1.99838437 36.12837872 0.05008289 41.44979871 -2.3125 47.1875 C-6.22421214 53.70702024 -11.75088685 57.395514 -18.9296875 59.58984375 C-28.593346 61.50434213 -37.84033879 59.43977414 -46 54 C-44.6744419 50.37723685 -43.05653045 47.36494652 -40.875 44.1875 C-40.33617188 43.39730469 -39.79734375 42.60710938 -39.2421875 41.79296875 C-38.83226563 41.20128906 -38.42234375 40.60960937 -38 40 C-35.67709121 41.14404501 -33.43196444 42.32819833 -31.1875 43.625 C-27.49733536 45.21683573 -24.98157554 45.37562033 -21 45 C-20.01 44.34 -19.02 43.68 -18 43 C-17.74969023 40.41619823 -17.74969023 40.41619823 -18 38 C-19.19496094 37.51080078 -19.19496094 37.51080078 -20.4140625 37.01171875 C-22.59439876 36.11252898 -24.77006918 35.2019583 -26.94140625 34.28125 C-29.12766969 33.36542062 -31.33831182 32.50693775 -33.5625 31.6875 C-36.59992566 29.58466685 -37.58232593 27.87127933 -38.6484375 24.37109375 C-39.66205856 17.53478285 -37.8594488 11.61879557 -33.875 6.0625 C-24.849963 -4.49188427 -12.22670004 -4.81122854 0 0 Z " fill="#233CE5" transform="translate(164,18)"/>
<path d="M0 0 C6.94223315 3.21663589 10.61954305 6.41948953 13.2890625 13.671875 C15.21421568 20.72025004 14.02549546 27.04627569 10.6015625 33.421875 C6.04371056 38.89129733 3.55211677 41.38593578 -3.3984375 42.49609375 C-9.78712487 42.97367945 -13.8042341 42.46959585 -18.78320312 38.46801758 C-21.13394578 36.39974778 -23.38148632 34.2711861 -25.5859375 32.046875 C-25.2559375 30.726875 -24.9259375 29.406875 -24.5859375 28.046875 C-19.28113816 28.046875 -18.39611123 29.5830807 -14.5859375 33.046875 C-15.2046875 32.304375 -15.8234375 31.561875 -16.4609375 30.796875 C-18.19758247 28.5494521 -19.58410079 26.68808088 -20.5859375 24.046875 C-20.2559375 23.386875 -19.9259375 22.726875 -19.5859375 22.046875 C-17.35900281 23.08080896 -15.61202064 24.02349012 -13.7734375 25.671875 C-10.61068631 27.65989004 -8.25518 27.36873838 -4.5859375 27.046875 C-1.75215618 26.1493923 -1.75215618 26.1493923 0.4140625 25.046875 C0.3187968 19.09430367 0.3187968 19.09430367 -2.2734375 13.984375 C-5.30110796 12.75694103 -7.33969702 12.64937617 -10.5859375 13.046875 C-14.71181254 14.95886587 -17.47262692 17.77789889 -20.5859375 21.046875 C-22.25260417 22.71354167 -23.91927083 24.38020833 -25.5859375 26.046875 C-26.0809375 23.571875 -26.0809375 23.571875 -26.5859375 21.046875 C-31.07310784 24.91051795 -35.46269103 28.79477708 -39.5859375 33.046875 C-40.5759375 32.716875 -41.5659375 32.386875 -42.5859375 32.046875 C-40.00808904 29.39935496 -37.66945652 27.10255435 -34.5859375 25.046875 C-34.2559375 24.056875 -33.9259375 23.066875 -33.5859375 22.046875 C-34.5759375 21.716875 -35.5659375 21.386875 -36.5859375 21.046875 C-33.76962279 18.11336409 -30.9300627 15.20341047 -28.0859375 12.296875 C-26.89871094 11.059375 -26.89871094 11.059375 -25.6875 9.796875 C-18.48682654 2.47815771 -10.70513022 -3.94569754 0 0 Z " fill="#F8D023" transform="translate(94.5859375,29.953125)"/>
<path d="M0 0 C5.28 0 10.56 0 16 0 C16 5.25366864 15.68058794 9.88789024 14.79296875 14.99609375 C14.60387688 16.12290306 14.60387688 16.12290306 14.41096497 17.2724762 C14.00846738 19.66175392 13.59795806 22.04957853 13.1875 24.4375 C12.92333755 26.00447467 12.65966202 27.5715315 12.39648438 29.13867188 C10.71195266 39.11514217 8.89026464 49.06050032 7 59 C1.72 59 -3.56 59 -9 59 C-7.34786692 45.56802372 -5.464461 32.18262499 -3.375 18.8125 C-3.26499664 18.10496582 -3.15499329 17.39743164 -3.04165649 16.66845703 C-2.72546441 14.63926571 -2.40634205 12.61056129 -2.0859375 10.58203125 C-1.9007959 9.40874268 -1.7156543 8.2354541 -1.52490234 7.02661133 C-1.11535417 4.66513753 -0.58129107 2.32516428 0 0 Z " fill="#253DE6" transform="translate(412,17)"/>
<path d="M0 0 C10.973419 0.12381855 16.75913064 4.12446113 24.58203125 11.53125 C27.75771158 10.11036395 30.07601589 8.36716377 32.64453125 6.03125 C37.15759619 1.94263839 39.7375013 0.2400985 45.95703125 0.21875 C47.07851562 0.20199219 48.2 0.18523438 49.35546875 0.16796875 C52.907113 0.56785121 54.77290424 1.35034594 57.58203125 3.53125 C58.07703125 5.01625 58.07703125 5.01625 58.58203125 6.53125 C57.81890625 6.221875 57.05578125 5.9125 56.26953125 5.59375 C50.06758312 3.14181702 45.23571429 2.53072812 38.9765625 4.890625 C32.95308719 8.04697929 28.58961265 13.22098504 23.95703125 18.09375 C22.14073472 20.0003508 20.31387641 21.89478577 18.48046875 23.78515625 C17.68302246 24.62377197 16.88557617 25.4623877 16.06396484 26.32641602 C12.30480739 29.66587607 8.93280833 31.34493592 3.95703125 32.03125 C0.58203125 31.53125 0.58203125 31.53125 -1.85546875 29.40625 C-3.70852714 25.99662255 -4.13385263 24.34929737 -3.41796875 20.53125 C-1.01243072 17.27669855 0.47134016 15.77270458 4.45703125 14.90625 C8.5724984 15.72934343 11.57895324 17.59925076 14.58203125 20.53125 C14.58203125 21.19125 14.58203125 21.85125 14.58203125 22.53125 C15.90203125 21.21125 17.22203125 19.89125 18.58203125 18.53125 C10.37183882 14.83988469 10.37183882 14.83988469 1.58203125 13.53125 C-2.67595251 15.76104668 -2.67595251 15.76104668 -5.41796875 19.53125 C-6.07185642 24.28594749 -6.16085298 27.50432179 -3.29296875 31.46875 C-0.36048676 33.57248708 2.10031469 34.64057832 5.58203125 35.53125 C5.58203125 35.86125 5.58203125 36.19125 5.58203125 36.53125 C2.4710421 36.9865167 0.35455551 37.02585395 -2.33984375 35.30078125 C-7.17746015 31.25277579 -7.17746015 31.25277579 -8.41796875 27.53125 C-8.81538118 22.26553531 -8.08471095 19.0869346 -5.41796875 14.53125 C-8.51154563 15.20861927 -8.51154563 15.20861927 -9.66796875 17.53125 C-10.95873499 22.69431494 -10.32214014 27.49686438 -8.16796875 32.34375 C-4.97427365 36.33586887 -2.67027361 38.24383577 2.39453125 39.40625 C6.7732169 39.78156591 10.40345847 38.79974531 14.58203125 37.53125 C11.51321 41.08462198 8.35503243 42.25544982 3.76953125 42.96875 C-1.92399325 42.18728585 -6.00527273 39.05261494 -9.85546875 34.90625 C-13.35148972 29.59229812 -12.99693629 23.67972216 -12.41796875 17.53125 C-10.79296875 14.09375 -10.79296875 14.09375 -8.41796875 11.53125 C-7.57234375 10.5825 -6.72671875 9.63375 -5.85546875 8.65625 C-2.21594465 5.77805492 1.55512285 5.94759693 6.0390625 6.18359375 C12.51201998 7.06852956 16.27790478 12.00385472 20.58203125 16.53125 C21.24203125 16.20125 21.90203125 15.87125 22.58203125 15.53125 C20.16033337 9.82296213 15.17810225 6.88828712 9.83203125 4.09375 C4.70566352 3.20649405 -0.27946451 3.91595985 -5.41796875 4.53125 C-3.82810787 1.86915736 -3.09687436 0.68041181 0 0 Z " fill="#F0EDE5" transform="translate(41.41796875,26.46875)"/>
<path d="M0 0 C0.66 0.33 1.32 0.66 2 1 C1.525625 1.598125 1.05125 2.19625 0.5625 2.8125 C-2.27531443 6.7854402 -2.32894576 10.23028649 -2 15 C-0.33258929 18.66830357 1.56232677 20.89303899 5 23 C5.66 23 6.32 23 7 23 C6.05125 22.401875 5.1025 21.80375 4.125 21.1875 C1 19 1 19 -1 16 C-1.72517392 11.49717589 -1.60000036 8.00714346 0.75 4.0625 C4.07389996 1.01559171 5.52620202 -0.05895192 10.125 0.125 C14.99958518 1.22571278 19.42333364 3.02015439 24 5 C24 5.99 24 6.98 24 8 C22.02 8.99 22.02 8.99 20 10 C19.21625 9.195625 18.4325 8.39125 17.625 7.5625 C14.76431382 4.76992539 14.01420428 4.1102396 10.125 3.6875 C6.95475233 3.75215083 6.95475233 3.75215083 4.625 5.625 C2.5246273 8.69477548 2.46706165 10.34556561 3 14 C3.90235835 16.48105194 3.90235835 16.48105194 6 18 C12.0584482 18.93206895 15.0280297 17.0384263 20 14 C22.9375 13.25 22.9375 13.25 25 13 C24.44449305 16.59905908 23.25112752 17.99909799 20.4375 20.25 C19.79683594 20.77078125 19.15617187 21.2915625 18.49609375 21.828125 C18.00238281 22.21484375 17.50867188 22.6015625 17 23 C20.67689304 21.4721586 22.90198808 19.24372494 25.625 16.375 C27.04510127 14.87941162 28.49594968 13.41113602 30 12 C30.66 12 31.32 12 32 12 C32.8125 14.6875 32.8125 14.6875 33 18 C31.38193598 20.04954775 29.98392818 21.35797327 28 23 C27.29746094 23.66644531 26.59492187 24.33289063 25.87109375 25.01953125 C19.19032752 31.29334725 14.50178924 33.39355392 5.32421875 33.10546875 C4.55722656 33.07066406 3.79023437 33.03585938 3 33 C2.0925 33 1.185 33 0.25 33 C-4.25444391 30.99802493 -6.95442881 26.48261217 -8.82421875 22.04296875 C-10.29676393 16.91516957 -10.66845957 11.28869485 -10 6 C-9.34 5.34 -8.68 4.68 -8 4 C-7.98582031 4.7734375 -7.97164062 5.546875 -7.95703125 6.34375 C-7.63384281 13.40148668 -6.91329 18.70876462 -2 24 C1.17491365 26.8913157 4.04267909 28.87945187 8.41015625 29.1484375 C12.40328812 28.79782104 14.60830777 28.26112815 18 26 C17.175 26.350625 16.35 26.70125 15.5 27.0625 C11.35489124 28.17279699 8.04031953 28.417127 4 27 C-0.13150141 24.35234769 -3.21448206 21.445353 -5.5625 17.125 C-6.15282789 12.90837222 -6.2093658 9.11184373 -5 5 C-2.4375 1.9375 -2.4375 1.9375 0 0 Z " fill="#3CC6D4" transform="translate(36,39)"/>
<path d="M0 0 C0.5465625 0.14695312 1.093125 0.29390625 1.65625 0.4453125 C5.18194037 1.27972589 8.76264823 1.76358696 12.34375 2.3046875 C15.21932077 3.05741044 16.72043885 4.1406122 19 6 C26.37570407 8.91954953 35.05802638 9.35264078 42.5625 6.625 C46.01600396 5.09469405 46.01600396 5.09469405 49 3 C51.0859375 2.40234375 51.0859375 2.40234375 53.375 1.9375 C54.16519531 1.77378906 54.95539063 1.61007813 55.76953125 1.44140625 C56.50558594 1.29574219 57.24164063 1.15007812 58 1 C59.010625 0.79375 60.02125 0.5875 61.0625 0.375 C62.0215625 0.189375 62.0215625 0.189375 63 0 C59.80212346 7.50077849 52.44706528 12.29130452 45.140625 15.30859375 C35.47444405 18.43069964 24.83066042 18.16573809 15.46875 14.26953125 C9.52054164 11.21072157 4.43346792 6.98765142 0 2 C0 1.34 0 0.68 0 0 Z " fill="#2CD496" transform="translate(35,72)"/>
<path d="M0 0 C6.94223315 3.21663589 10.61954305 6.41948953 13.2890625 13.671875 C15.21421568 20.72025004 14.02549546 27.04627569 10.6015625 33.421875 C6.04371056 38.89129733 3.55211677 41.38593578 -3.3984375 42.49609375 C-9.78712487 42.97367945 -13.8042341 42.46959585 -18.78320312 38.46801758 C-21.13394578 36.39974778 -23.38148632 34.2711861 -25.5859375 32.046875 C-25.2559375 30.726875 -24.9259375 29.406875 -24.5859375 28.046875 C-23.2659375 28.046875 -21.9459375 28.046875 -20.5859375 28.046875 C-18.3359375 30.546875 -18.3359375 30.546875 -16.5859375 33.046875 C-17.5759375 33.046875 -18.5659375 33.046875 -19.5859375 33.046875 C-14.60230964 37.11246615 -10.04066949 38.35124448 -3.5859375 38.046875 C-0.1999941 36.81451227 -0.1999941 36.81451227 2.4140625 35.046875 C3.4040625 34.716875 4.3940625 34.386875 5.4140625 34.046875 C6.58359666 31.62304423 6.58359666 31.62304423 7.4140625 29.046875 C7.7440625 28.386875 8.0740625 27.726875 8.4140625 27.046875 C8.96179872 20.10537179 9.02737049 14.11207055 5.4140625 8.046875 C1.12801489 3.89908699 -4.24466906 3.50168102 -10.0078125 3.5859375 C-14.78205363 4.43951394 -17.36618799 7.6277789 -20.5859375 11.046875 C-22.35561906 12.79803972 -24.12648837 14.5480048 -25.8984375 16.296875 C-27.46276994 17.87839791 -29.02550814 19.46150094 -30.5859375 21.046875 C-31.58484877 22.04796255 -32.58431807 23.04849706 -33.5859375 24.046875 C-33.5859375 23.386875 -33.5859375 22.726875 -33.5859375 22.046875 C-34.5759375 21.716875 -35.5659375 21.386875 -36.5859375 21.046875 C-33.76962279 18.11336409 -30.9300627 15.20341047 -28.0859375 12.296875 C-26.89871094 11.059375 -26.89871094 11.059375 -25.6875 9.796875 C-18.48682654 2.47815771 -10.70513022 -3.94569754 0 0 Z " fill="#F9C51A" transform="translate(94.5859375,29.953125)"/>
<path d="M0 0 C0.66 0 1.32 0 2 0 C3.18734529 1.41197818 4.3718994 2.82814672 5.48828125 4.296875 C9.53045759 8.85085144 12.76323049 10.51675521 18.8125 11.25 C19.97394531 11.39953125 21.13539062 11.5490625 22.33203125 11.703125 C23.21246094 11.80109375 24.09289062 11.8990625 25 12 C25 12.33 25 12.66 25 13 C24.40832031 13.10957031 23.81664062 13.21914062 23.20703125 13.33203125 C18.53032549 14.27042409 15.02965803 15.35193901 11 18 C2.98999041 20.58784925 -5.53487525 19.52896806 -13 16 C-13.99 15.34 -14.98 14.68 -16 14 C-17.77717164 13.57909093 -19.5724568 13.23133923 -21.375 12.9375 C-24.93056852 12.34490525 -28.46882321 11.72549632 -32 11 C-32 10.34 -32 9.68 -32 9 C-30.97519531 9.01160156 -29.95039062 9.02320312 -28.89453125 9.03515625 C-27.533856 9.04454022 -26.17317876 9.05363977 -24.8125 9.0625 C-24.13896484 9.07087891 -23.46542969 9.07925781 -22.77148438 9.08789062 C-19.03274313 9.10612839 -15.64118639 8.82136887 -12 8 C-11.01 8 -10.02 8 -9 8 C-6.91586834 6.49989233 -6.91586834 6.49989233 -4.875 4.5625 C-4.17117187 3.92441406 -3.46734375 3.28632812 -2.7421875 2.62890625 C-1.81724008 1.76410115 -0.89538137 0.89538137 0 0 Z " fill="#A0ECCF" transform="translate(66,62)"/>
<path d="M0 0 C0.495 0.495 0.495 0.495 1 1 C2.34747084 1.23075082 3.70377565 1.41153063 5.0625 1.5625 C6.361875 1.706875 7.66125 1.85125 9 2 C9 2.33 9 2.66 9 3 C8.23816406 2.99097656 7.47632813 2.98195313 6.69140625 2.97265625 C-3.96806053 3.27873332 -8.78012426 7.69954529 -16 15 C-19.16975124 13.56180587 -21.63388848 11.77485232 -24.3125 9.5625 C-28.0824979 6.56647518 -31.48513115 4.63303767 -36 3 C-25.6734422 -5.3728847 -11.67071529 -7.70267209 0 0 Z " fill="#2AC2DB" transform="translate(84,24)"/>
<path d="M0 0 C1.32 0.33 2.64 0.66 4 1 C4 1.33 4 1.66 4 2 C4.94359375 1.83951172 4.94359375 1.83951172 5.90625 1.67578125 C12.00974524 0.82092424 16.64364535 0.73871278 22 4 C25.15902018 6.51139632 28.11068947 9.18425987 31 12 C30.34 13.32 29.68 14.64 29 16 C27.8944811 15.06409496 26.79064547 14.12620142 25.6875 13.1875 C24.76517578 12.40439453 24.76517578 12.40439453 23.82421875 11.60546875 C22 10 22 10 20.45703125 8.36328125 C17.03634083 5.16268887 12.2137867 5.55280605 7.80078125 5.58203125 C3.35287722 6.24580493 0.73080438 8.52877344 -2 12 C-3.99534488 15.21434397 -4.35726104 18.00165456 -4.625 21.75 C-4.69976563 22.73484375 -4.77453125 23.7196875 -4.8515625 24.734375 C-4.90054687 25.48203125 -4.94953125 26.2296875 -5 27 C-5.33 27 -5.66 27 -6 27 C-6.33 23.7 -6.66 20.4 -7 17 C-7.18020062 23.48722238 -6.8422675 28.78234718 -5 35 C-8.37235196 32.39409167 -9.4262535 29.08507507 -10 25 C-10.22261545 17.80600607 -8.48488234 12.61258396 -4 7 C-3.19755859 6.21496094 -3.19755859 6.21496094 -2.37890625 5.4140625 C-0.70263605 3.69505453 -0.40233867 2.33356429 0 0 Z " fill="#29C4D8" transform="translate(34,28)"/>
<path d="M0 0 C4.41741086 0.70232238 7.6561187 2.07018777 10.9375 5.1875 C12.94393742 8.46468112 13.9375 10.33990462 13.9375 14.1875 C13.2775 14.1875 12.6175 14.1875 11.9375 14.1875 C10.82421875 12.5078125 10.82421875 12.5078125 9.625 10.3125 C8.03256215 7.6893881 7.15605666 6.33128727 4.5625 4.625 C1.16719752 4.05911625 -1.7032327 4.52882014 -5.0625 5.1875 C-3.4846875 5.0946875 -3.4846875 5.0946875 -1.875 5 C2.19896259 5.20035882 3.80158495 5.66134621 6.9375 8.1875 C8.75 10.875 8.75 10.875 9.9375 13.1875 C8.9475 13.5175 7.9575 13.8475 6.9375 14.1875 C6.23625 13.3625 5.535 12.5375 4.8125 11.6875 C2.18134271 8.95927671 2.18134271 8.95927671 -1.0625 8.6875 C-6.90339371 9.66098228 -10.08402064 13.01009668 -14.0625 17.1875 C-15.72916667 18.85416667 -17.39583333 20.52083333 -19.0625 22.1875 C-19.7225 20.2075 -20.3825 18.2275 -21.0625 16.1875 C-7.03748288 0.12636364 -7.03748288 0.12636364 0 0 Z " fill="#F78527" transform="translate(88.0625,33.8125)"/>
<path d="M0 0 C0 0.99 0 1.98 0 3 C-1.98 3.99 -1.98 3.99 -4 5 C-4.78375 4.195625 -5.5675 3.39125 -6.375 2.5625 C-9.23568618 -0.23007461 -9.98579572 -0.8897604 -13.875 -1.3125 C-17.04524767 -1.24784917 -17.04524767 -1.24784917 -19.375 0.625 C-21.4753727 3.69477548 -21.53293835 5.34556561 -21 9 C-20.09764165 11.48105194 -20.09764165 11.48105194 -18 13 C-11.9415518 13.93206895 -8.9719703 12.0384263 -4 9 C-1.0625 8.25 -1.0625 8.25 1 8 C0.2403617 12.20089133 -1.44147119 14.19126526 -4.69921875 16.85546875 C-9.30748884 19.14786796 -14.15721033 18.21584932 -19 17 C-22.0197038 15.16449377 -23.4436368 14.11272641 -25 11 C-25.54399285 6.460781 -25.62289461 3.0455731 -23.25 -0.9375 C-15.79741146 -7.76903949 -8.30137376 -3.59113754 0 0 Z " fill="#18608F" transform="translate(60,44)"/>
<path d="M0 0 C4.16714286 1.59996591 6.5596378 3.77268004 8.92578125 7.50390625 C10.74168601 13.11005516 10.99114742 20.07647109 9.2421875 25.703125 C7.02069287 29.95254004 4.17352689 32.4201065 -0.07421875 34.50390625 C-6.16404772 36.1152661 -10.49695915 35.67528916 -16.07421875 32.50390625 C-18.51171875 30.31640625 -18.51171875 30.31640625 -20.07421875 28.50390625 C-17.70556238 29.42505039 -15.4025277 30.32390935 -13.171875 31.546875 C-9.51762853 33.21408242 -5.99796109 33.14573257 -2.07421875 32.50390625 C1.92091594 30.71721454 4.36010711 28.30679858 6.86328125 24.75390625 C8.5148697 19.70198863 9.0906733 15.20811994 6.94140625 10.21875 C4.17980975 5.52233126 1.92984693 3.37962666 -3.37231445 1.83398438 C-7.2605198 1.38103269 -10.39621727 1.39522129 -13.76361084 3.62011719 C-18.31388668 7.3540054 -22.26636191 11.69643725 -26.26171875 16.00390625 C-27.50976482 17.30718707 -28.76039569 18.60799783 -30.01367188 19.90625 C-33.06448124 23.07769418 -36.07809798 26.28078258 -39.07421875 29.50390625 C-40.06421875 29.17390625 -41.05421875 28.84390625 -42.07421875 28.50390625 C-39.70779206 26.06986737 -37.40091957 23.75323056 -34.69921875 21.69140625 C-32.4875059 19.84831221 -30.80441647 18.11463786 -28.94921875 15.94140625 C-25.862218 12.32968352 -22.61521215 8.92811631 -19.26171875 5.56640625 C-18.78138184 5.08163818 -18.30104492 4.59687012 -17.80615234 4.09741211 C-12.51630632 -1.1708542 -7.28382462 -1.74208235 0 0 Z " fill="#FAE7C2" transform="translate(94.07421875,33.49609375)"/>
<path d="M0 0 C2.27521255 1.42862183 4.03860599 2.58057987 5.6875 4.6875 C5.6875 5.3475 5.6875 6.0075 5.6875 6.6875 C5.15382812 6.4709375 4.62015625 6.254375 4.0703125 6.03125 C-1.66351912 3.88850323 -7.21096596 2.33821768 -13.3125 3.6875 C-16.47863155 5.56194601 -18.80153293 8.02106968 -21.3125 10.6875 C-23.08218156 12.43866472 -24.85305087 14.1886298 -26.625 15.9375 C-28.18933244 17.51902291 -29.75207064 19.10212594 -31.3125 20.6875 C-32.31141127 21.68858755 -33.31088057 22.68912206 -34.3125 23.6875 C-34.3125 23.0275 -34.3125 22.3675 -34.3125 21.6875 C-35.3025 21.3575 -36.2925 21.0275 -37.3125 20.6875 C-34.49618529 17.75398909 -31.6566252 14.84403547 -28.8125 11.9375 C-27.62527344 10.7 -27.62527344 10.7 -26.4140625 9.4375 C-18.83584704 1.73505149 -11.11722191 -4.40493698 0 0 Z " fill="#F9BF1E" transform="translate(95.3125,30.3125)"/>
<path d="M0 0 C2.375 1.125 2.375 1.125 4 3 C4.51020728 7.08165827 4.31361802 8.52957297 2 12 C-2.62156482 12.53918256 -5.58793618 12.61735698 -9.5 10 C-10.325 9.34 -11.15 8.68 -12 8 C-11.67715014 4.98673462 -10.96634616 3.96538462 -8.8125 1.75 C-5.48448113 -0.3207673 -3.85189981 -0.57368721 0 0 Z " fill="#68ECE0" transform="translate(90,44)"/>
<path d="M0 0 C4.03899214 2.01949607 6.56295579 4.20904234 9 8 C8.43152344 7.86722656 7.86304687 7.73445313 7.27734375 7.59765625 C5.66915313 7.2298397 4.0582616 6.87369802 2.4453125 6.52734375 C0.39540459 6.08527096 -1.64712202 5.60915749 -3.6875 5.125 C-7.99252472 4.96254624 -9.74287795 6.28573163 -13 9 C-14.74144037 12.48288073 -14.57855206 16.19996485 -14 20 C-10.96009734 24.20221839 -7.9711768 25.72830361 -3 27 C-3 27.33 -3 27.66 -3 28 C-6.11098915 28.4552667 -8.22747574 28.49460395 -10.921875 26.76953125 C-15.7594914 22.72152579 -15.7594914 22.72152579 -17 19 C-17.39913766 13.71142595 -16.62281059 10.58991854 -14 6 C-14 5.67 -14 5.34 -14 5 C-14.66 4.67 -15.32 4.34 -16 4 C-11.43607603 -1.03605404 -6.3565289 -0.933411 0 0 Z " fill="#3DADCA" transform="translate(50,35)"/>
<path d="M0 0 C4.93171425 1.90543505 8.40280796 6.21621011 12 10 C11.34 10.66 10.68 11.32 10 12 C9.61328125 11.51789062 9.2265625 11.03578125 8.828125 10.5390625 C8.04695313 9.59160156 8.04695313 9.59160156 7.25 8.625 C6.73953125 7.99851562 6.2290625 7.37203125 5.703125 6.7265625 C2.34194971 3.31913251 -0.72658386 2.67357569 -5.4375 2.5625 C-9.41488345 2.64194175 -10.66741671 2.76442017 -14 5.125 C-17.88017106 10.7027459 -19.5752937 14.12233996 -18.5078125 20.890625 C-17.26480074 26.05390461 -14.45263989 29.22946851 -10 32 C-3.97777404 33.38215022 0.12758296 32.78269803 6 31 C2.93117875 34.55337198 -0.22699882 35.72419982 -4.8125 36.4375 C-10.5060245 35.65603585 -14.58730398 32.52136494 -18.4375 28.375 C-21.93352097 23.06104812 -21.57896754 17.14847216 -21 11 C-19.375 7.5625 -19.375 7.5625 -17 5 C-16.154375 4.05125 -15.30875 3.1025 -14.4375 2.125 C-10.19697078 -1.22847974 -5.11381251 -0.69912337 0 0 Z " fill="#C1E5E7" transform="translate(50,33)"/>
<path d="M0 0 C-0.20703125 1.90625 -0.20703125 1.90625 -1 4 C-3.07421875 4.90625 -3.07421875 4.90625 -5.6875 5.5 C-10.25316536 6.68223953 -13.21176499 8.25352961 -17 11 C-17.66 11 -18.32 11 -19 11 C-19 11.66 -19 12.32 -19 13 C-22.83887763 14.48320272 -25.06204091 15.22419163 -29 14 C-23.77683709 7.12741723 -17.81532352 2.12357549 -9.25 0.125 C-6.16014384 0.00615938 -3.09149272 -0.07540226 0 0 Z " fill="#1583B6" transform="translate(64,13)"/>
<path d="M0 0 C2.27002476 1.48246515 4.02107308 3.11530769 6 5 C5.64978759 7.53903996 5.15988127 8.82093298 3.4375 10.75 C-0.25244615 12.64228008 -2.87232011 12.39945289 -7 12 C-9.31282587 8.53076119 -9.42478586 7.07794425 -9 3 C-6.784834 -0.69194334 -4.02864726 -0.63194467 0 0 Z " fill="#48DAD7" transform="translate(49,44)"/>
<path d="M0 0 C0.33 0 0.66 0 1 0 C1.01417969 0.7734375 1.02835938 1.546875 1.04296875 2.34375 C1.41667109 10.50460112 2.64001254 15.95638351 8.72265625 21.59765625 C14.1923392 25.62972232 19.40748035 25.5453371 26 25 C25.67 25.99 25.34 26.98 25 28 C20.65897163 29.44700946 16.53673062 29.13128802 12 29 C11.0925 29 10.185 29 9.25 29 C4.74555609 26.99802493 2.04557119 22.48261217 0.17578125 18.04296875 C-1.35711296 12.70501798 -2.54178789 5.08357577 0 0 Z " fill="#2194C3" transform="translate(27,43)"/>
<path d="M0 0 C-2.42392862 5.84520286 -7.74874729 8.53010592 -13.32421875 11.05078125 C-23.03205087 14.43648799 -33.70601485 14.46111287 -43 10 C-39.7491948 8.91639827 -38.93082498 9.08668493 -35.75 9.9375 C-31.68855323 10.92793465 -28.1672561 11.17733005 -24 11 C-23.67 10.01 -23.34 9.02 -23 8 C-21.21484375 7.19140625 -21.21484375 7.19140625 -18.9375 6.5625 C-14.96642837 5.36738449 -11.46680074 3.83738908 -7.82421875 1.8671875 C-5.23259996 0.63519741 -2.87033792 0 0 0 Z " fill="#54E09C" transform="translate(94,76)"/>
<path d="M0 0 C1 3 1 3 1.296875 4.921875 C2.92793213 9.74255495 7.70399132 12.67529608 12 15 C17.7679189 15.93052239 23.38070004 15.61520941 29 14 C29 14.99 29 15.98 29 17 C25.29565303 17.84437321 21.79806243 18.19186639 18 18.25 C16.989375 18.27578125 15.97875 18.3015625 14.9375 18.328125 C9.69356868 17.74236671 5.86997 14.42768771 2 11 C2 10.34 2 9.68 2 9 C1.01 8.67 0.02 8.34 -1 8 C-1 7.34 -1 6.68 -1 6 C-1.79664062 6.70576172 -1.79664062 6.70576172 -2.609375 7.42578125 C-3.31578125 8.04839844 -4.0221875 8.67101562 -4.75 9.3125 C-5.44609375 9.92738281 -6.1421875 10.54226562 -6.859375 11.17578125 C-7.56578125 11.77777344 -8.2721875 12.37976563 -9 13 C-10.02867188 13.88751953 -10.02867188 13.88751953 -11.078125 14.79296875 C-11.71234375 15.19128906 -12.3465625 15.58960937 -13 16 C-13.99 15.67 -14.98 15.34 -16 15 C-15.32453125 14.40832031 -14.6490625 13.81664063 -13.953125 13.20703125 C-13.06109375 12.41683594 -12.1690625 11.62664062 -11.25 10.8125 C-10.36828125 10.03519531 -9.4865625 9.25789063 -8.578125 8.45703125 C-6.12163643 6.1159232 -4.10638665 3.65129972 -2 1 C-1.34 0.67 -0.68 0.34 0 0 Z " fill="#E6E9D4" transform="translate(69,56)"/>
<path d="M0 0 C0.82951172 0.22623047 0.82951172 0.22623047 1.67578125 0.45703125 C4.01155195 1.04328892 4.01155195 1.04328892 6.48046875 1.32421875 C13.3985902 2.25262466 18.76607266 4.24423393 24 9 C24 9.66 24 10.32 24 11 C17.25 10.125 17.25 10.125 15 9 C14.67 9.99 14.34 10.98 14 12 C14.66 12 15.32 12 16 12 C15.67 12.66 15.34 13.32 15 14 C9.37807144 10.47692477 4.41595726 6.98210563 0 2 C0 1.34 0 0.68 0 0 Z " fill="#15BC92" transform="translate(35,72)"/>
<path d="M0 0 C3.36720387 1.39332574 4.9859524 2.9789286 7 6 C6.01 6 5.02 6 4 6 C10.179388 11.04107968 16.24706237 11 24 11 C23.67 12.32 23.34 13.64 23 15 C17.02304987 15.86762179 11.56059347 16.41631997 6.46484375 12.7734375 C3.47121652 10.3545657 0.70795813 7.73235415 -2 5 C-1.125 1.125 -1.125 1.125 0 0 Z " fill="#F5B420" transform="translate(71,57)"/>
<path d="M0 0 C0.66 0.33 1.32 0.66 2 1 C1.525625 1.598125 1.05125 2.19625 0.5625 2.8125 C-2.27531443 6.7854402 -2.32894576 10.23028649 -2 15 C-0.0845521 19.57579221 2.74344951 21.57960854 7 24 C10.2249208 25.24324147 10.2249208 25.24324147 13 26 C12.67 26.66 12.34 27.32 12 28 C5.55073442 27.88483454 2.28149959 26.38549469 -2.36328125 21.88671875 C-5.76623851 17.96397804 -6.18625123 14.45398321 -5.9375 9.4375 C-5.33164838 4.95419803 -3.56914206 2.83701035 0 0 Z " fill="#2592C0" transform="translate(36,39)"/>
<path d="M0 0 C-0.75 1.9375 -0.75 1.9375 -2 4 C-3.32049592 4.38102415 -4.65753318 4.70559938 -6 5 C-7.63480355 5.59888843 -9.25952035 6.22578855 -10.875 6.875 C-11.69742188 7.20242187 -12.51984375 7.52984375 -13.3671875 7.8671875 C-16.08029171 8.9796276 -16.08029171 8.9796276 -18.828125 10.58984375 C-22.53586098 12.23823376 -25.8834055 12.55212616 -29.875 12.6875 C-30.56335938 12.72166016 -31.25171875 12.75582031 -31.9609375 12.79101562 C-33.64008613 12.87264091 -35.32001168 12.9380157 -37 13 C-35.68 12.67 -34.36 12.34 -33 12 C-33 11.34 -33 10.68 -33 10 C-27.06 9.505 -27.06 9.505 -21 9 C-21 8.34 -21 7.68 -21 7 C-16.3602207 4.03843875 -12.42692192 2.40678435 -7.015625 1.39453125 C-4.57980717 0.91775295 -2.49976256 0 0 0 Z " fill="#26D093" transform="translate(98,72)"/>
<path d="M0 0 C3.73692992 1.01451808 6.15162043 3.11804954 8.109375 6.40625 C9.63991518 10.07820384 9.56134725 13.64059086 9 17.54296875 C6.9949912 21.34557165 5.57313738 23.16087716 2 25.54296875 C-0.33199388 25.62201939 -2.66832622 25.63095644 -5 25.54296875 C-5.33 24.88296875 -5.66 24.22296875 -6 23.54296875 C-5.38511719 23.445 -4.77023438 23.34703125 -4.13671875 23.24609375 C0.77789554 22.37228166 0.77789554 22.37228166 5.0625 19.98046875 C6.54039089 16.13795243 6.62141743 12.59663364 6 8.54296875 C4.76546291 5.39552356 4.76546291 5.39552356 2 3.54296875 C-0.34897698 3.0256097 -2.57480315 2.79530349 -4.9765625 2.68359375 C-7 2.54296875 -7 2.54296875 -9 1.54296875 C-5.58335307 -0.73479587 -3.9743804 -0.62099694 0 0 Z " fill="#EFD8B5" transform="translate(91,37.45703125)"/>
<path d="M0 0 C2.48729601 2.02763145 4.73170484 4.18861538 6.90234375 6.55078125 C7.50046875 7.10765625 8.09859375 7.66453125 8.71484375 8.23828125 C9.90234375 9.55078125 9.90234375 9.55078125 9.90234375 11.55078125 C7.52734375 10.80078125 7.52734375 10.80078125 4.90234375 9.55078125 C4.62390625 8.95007813 4.34546875 8.349375 4.05859375 7.73046875 C2.49155908 4.77639664 0.46522282 3.394896 -2.22265625 1.42578125 C-3.13273437 0.74257813 -4.0428125 0.059375 -4.98046875 -0.64453125 C-11.80026497 -4.59283433 -18.42873225 -4.72736163 -26.09765625 -4.57421875 C-26.96777344 -4.56519531 -27.83789062 -4.55617188 -28.734375 -4.546875 C-30.85559045 -4.52356494 -32.97666187 -4.48770454 -35.09765625 -4.44921875 C-24.69810731 -11.38225137 -9.33133535 -6.80023173 0 0 Z " fill="#4CB3D7" transform="translate(89.09765625,18.44921875)"/>
<path d="M0 0 C6.4596331 1.32505294 10.38917374 5.59409935 15 10 C14.34 11.32 13.68 12.64 13 14 C11.8944811 13.06409496 10.79064547 12.12620142 9.6875 11.1875 C8.76517578 10.40439453 8.76517578 10.40439453 7.82421875 9.60546875 C6 8 6 8 4.65625 6.375 C2.2241373 4.35588757 -0.09112077 4.2453272 -3.1875 3.8125 C-4.81751953 3.57466797 -4.81751953 3.57466797 -6.48046875 3.33203125 C-7.72763672 3.16767578 -7.72763672 3.16767578 -9 3 C-9 2.67 -9 2.34 -9 2 C-6.03 2 -3.06 2 0 2 C0 1.34 0 0.68 0 0 Z " fill="#35C5D2" transform="translate(50,30)"/>
<path d="M0 0 C11.58418673 0.13071015 17.36157288 4.69136841 25.58203125 12.53125 C24.59203125 14.01625 24.59203125 14.01625 23.58203125 15.53125 C22.92203125 14.644375 22.26203125 13.7575 21.58203125 12.84375 C17.1522094 7.60737795 12.33438004 4.47325835 5.45703125 3.65625 C1.70047268 3.44175514 -1.73739158 3.65953435 -5.41796875 4.53125 C-3.82810787 1.86915736 -3.09687436 0.68041181 0 0 Z " fill="#D8F0F4" transform="translate(41.41796875,26.46875)"/>
<path d="M0 0 C0.66 0.66 1.32 1.32 2 2 C1.41992188 1.95359375 0.83984375 1.9071875 0.2421875 1.859375 C-5.4067261 1.59836909 -8.52242167 2.19405842 -13 6 C-14.74144037 9.48288073 -14.57855206 13.19996485 -14 17 C-10.96009734 21.20221839 -7.9711768 22.72830361 -3 24 C-3 24.33 -3 24.66 -3 25 C-6.11098915 25.4552667 -8.22747574 25.49460395 -10.921875 23.76953125 C-15.7594914 19.72152579 -15.7594914 19.72152579 -17 16 C-17.39441267 10.77403212 -16.90549127 7.40833158 -14 3 C-9.94142269 -0.58109763 -5.19749092 -0.7862609 0 0 Z " fill="#BCD5D7" transform="translate(50,38)"/>
<path d="M0 0 C-1.33333333 2.66666667 -2.66666667 5.33333333 -4 8 C-4.268125 8.639375 -4.53625 9.27875 -4.8125 9.9375 C-6.43924048 12.76289137 -8.64519537 14.76913245 -11 17 C-11.66 15.02 -12.32 13.04 -13 11 C-11.21427748 9.16052663 -9.42197551 7.32842259 -7.625 5.5 C-7.11710937 4.97535156 -6.60921875 4.45070313 -6.0859375 3.91015625 C-2.2265625 0 -2.2265625 0 0 0 Z " fill="#F06D2D" transform="translate(80,39)"/>
<path d="M0 0 C2 3 2 3 3.3125 5.4375 C6.20687073 9.83265556 8.64531157 11.6890879 13.8125 12.875 C18.19118565 13.25031591 21.82142722 12.26849531 26 11 C22.93117875 14.55337198 19.77300118 15.72419982 15.1875 16.4375 C9.51256191 15.65858693 5.44845789 12.52273778 1.5625 8.4375 C0.11506614 6.17950318 -0.72544811 4.65400162 -1 2 C-0.67 1.34 -0.34 0.68 0 0 Z " fill="#BDE1E7" transform="translate(30,53)"/>
<path d="M0 0 C-0.56793322 3.47575128 -1.66168245 5.02496366 -4.3125 7.3125 C-5.20388672 8.11107422 -5.20388672 8.11107422 -6.11328125 8.92578125 C-8 10 -8 10 -10.23046875 9.66796875 C-10.81441406 9.44753906 -11.39835937 9.22710937 -12 9 C-11.67 8.34 -11.34 7.68 -11 7 C-13.31 7 -15.62 7 -18 7 C-18 6.67 -18 6.34 -18 6 C-17.11248047 5.85304688 -17.11248047 5.85304688 -16.20703125 5.703125 C-10.10759792 4.54890923 -5.76913063 0 0 0 Z " fill="#2083AD" transform="translate(61,52)"/>
<path d="M0 0 C-0.144375 0.928125 -0.28875 1.85625 -0.4375 2.8125 C-1.16364963 7.85405316 -1.5687807 12.92629204 -2 18 C-2.33 18 -2.66 18 -3 18 C-3.33 14.7 -3.66 11.4 -4 8 C-4.18020062 14.48722238 -3.8422675 19.78234718 -2 26 C-5.37168996 23.39460322 -6.4284297 20.08482244 -7 16 C-7.15606916 10.80864673 -6.86398188 6.49953431 -3.5 2.375 C-1 0 -1 0 0 0 Z " fill="#45A6CB" transform="translate(31,37)"/>
<path d="M0 0 C0.66 0.33 1.32 0.66 2 1 C2 1.99 2 2.98 2 4 C0.41701974 4.4803318 -1.16639978 4.95921612 -2.75 5.4375 C-4.07257813 5.83775391 -4.07257813 5.83775391 -5.421875 6.24609375 C-7.60565835 6.88468494 -9.78835498 7.46775833 -12 8 C-11.67715014 4.98673462 -10.96634616 3.96538462 -8.8125 1.75 C-5.53454193 -0.28961836 -3.79194611 -0.42132735 0 0 Z " fill="#52E8E1" transform="translate(90,44)"/>
<path d="M0 0 C3.34015731 1.19291332 5.23540631 3.01132599 7.109375 6.015625 C8.93264735 10.07800374 9.81884922 14.56180588 10 19 C9.34 19.99 8.68 20.98 8 22 C7.67 17.71 7.34 13.42 7 9 C6.34 9 5.68 9 5 9 C5.33 9.66 5.66 10.32 6 11 C6.07033769 12.87379605 6.0843022 14.75001102 6.0625 16.625 C6.05347656 17.62789062 6.04445313 18.63078125 6.03515625 19.6640625 C6.02355469 20.43492188 6.01195313 21.20578125 6 22 C5.67 22 5.34 22 5 22 C4.87882812 21.03578125 4.75765625 20.0715625 4.6328125 19.078125 C4.46523437 17.81484375 4.29765625 16.5515625 4.125 15.25 C3.96257812 13.99703125 3.80015625 12.7440625 3.6328125 11.453125 C3.08782582 8.47924705 2.47831956 6.5751373 1 4 C0.63215869 2.6757713 0.28797019 1.34386088 0 0 Z " fill="#F7D135" transform="translate(99,33)"/>
<path d="M0 0 C2.8125 0.4375 2.8125 0.4375 4.8125 2.4375 C2.8125 3.4375 2.8125 3.4375 -0.1875 3.375 C-3.30517214 3.09368869 -3.30517214 3.09368869 -5.1875 5.4375 C-5.47352162 9.58259433 -5.47352162 9.58259433 -4.1875 13.4375 C-1.86593403 13.84479228 0.4693787 14.18188677 2.8125 14.4375 C2.8125 15.0975 2.8125 15.7575 2.8125 16.4375 C-0.4375 16.75 -0.4375 16.75 -4.1875 16.4375 C-7.1111459 13.8886805 -8.03659176 12.24234394 -8.75 8.4375 C-7.79059838 3.32069137 -5.15989421 0.70822077 0 0 Z " fill="#B6DDDB" transform="translate(46.1875,41.5625)"/>
<path d="M0 0 C6.18160604 0.53753096 11.326858 2.54582388 17 5 C17 5.99 17 6.98 17 8 C15.02 8.99 15.02 8.99 13 10 C12.29875 9.21625 11.5975 8.4325 10.875 7.625 C7.90842914 4.91639182 5.8417484 3.98277285 2 3 C2 2.34 2 1.68 2 1 C1.34 0.67 0.68 0.34 0 0 Z " fill="#1A78A3" transform="translate(43,39)"/>
<path d="M0 0 C0.66 0 1.32 0 2 0 C0.5735422 3.2586636 -1.16704162 5.4024854 -3.6953125 7.890625 C-4.76845703 8.95410156 -4.76845703 8.95410156 -5.86328125 10.0390625 C-6.60964844 10.76867188 -7.35601562 11.49828125 -8.125 12.25 C-8.87910156 12.99507812 -9.63320313 13.74015625 -10.41015625 14.5078125 C-12.26900772 16.3431342 -14.13237005 18.1736191 -16 20 C-16.99 19.67 -17.98 19.34 -19 19 C-16.63357331 16.56596112 -14.32670082 14.24932431 -11.625 12.1875 C-8.57665779 9.64721483 -6.11737212 6.82085859 -3.55078125 3.8046875 C-2 2 -2 2 0 0 Z " fill="#DDD9D1" transform="translate(71,43)"/>
<path d="M0 0 C0.66 0.33 1.32 0.66 2 1 C2 4.96130371 0.65122875 5.82914401 -2 8.6875 C-2.7425 9.49574219 -3.485 10.30398437 -4.25 11.13671875 C-4.8275 11.75160156 -5.405 12.36648437 -6 13 C-6.33 12.34 -6.66 11.68 -7 11 C-7.99 10.67 -8.98 10.34 -10 10 C-6.7 6.7 -3.4 3.4 0 0 Z " fill="#CC634E" transform="translate(68,41)"/>
<path d="M0 0 C3.76565536 1.16728721 5.10377239 3.46706016 7.23046875 6.69140625 C6.24046875 7.35140625 5.25046875 8.01140625 4.23046875 8.69140625 C3.59109375 7.86640625 2.95171875 7.04140625 2.29296875 6.19140625 C-1.7933759 2.8556147 -4.69826061 3.19422285 -9.76953125 3.69140625 C-9.76953125 3.03140625 -9.76953125 2.37140625 -9.76953125 1.69140625 C-6.03910133 -0.79554703 -4.29942339 -0.55408556 0 0 Z " fill="#F78325" transform="translate(90.76953125,39.30859375)"/>
<path d="M0 0 C1.11246094 0.00128906 2.22492188 0.00257812 3.37109375 0.00390625 C6.86260916 0.4782737 8.7842794 1.29458938 11.5625 3.4375 C11.8925 4.4275 12.2225 5.4175 12.5625 6.4375 C11.799375 6.128125 11.03625 5.81875 10.25 5.5 C3.19791197 2.7119652 -3.11251069 3.21666845 -10.4375 4.4375 C-7.19223958 0.43051586 -5.09243141 -0.08830806 0 0 Z " fill="#E4F5EA" transform="translate(87.4375,26.5625)"/>
<path d="M0 0 C0.66 0 1.32 0 2 0 C2.48315912 7.12659698 2.48315912 7.12659698 0.375 10.9375 C-2.44400988 13.38558753 -4.32147666 13.74919159 -8 14 C-6.38405168 11.95880212 -4.7143618 9.95927063 -3 8 C-2.34 8 -1.68 8 -1 8 C-1.020625 6.865625 -1.04125 5.73125 -1.0625 4.5625 C-1 1 -1 1 0 0 Z " fill="#F7B917" transform="translate(96,47)"/>
<path d="M0 0 C0.66 0.33 1.32 0.66 2 1 C1.52949219 1.53109375 1.05898438 2.0621875 0.57421875 2.609375 C-1.3401573 5.51656642 -1.70245739 7.81739077 -2.1875 11.25 C-2.34605469 12.32765625 -2.50460938 13.4053125 -2.66796875 14.515625 C-2.77753906 15.33546875 -2.88710938 16.1553125 -3 17 C-3.66 17 -4.32 17 -5 17 C-6.08358521 11.12514042 -6.5368611 7.17897518 -3 2 C-2.01 1.34 -1.02 0.68 0 0 Z " fill="#2788B5" transform="translate(36,39)"/>
<path d="M0 0 C0.721875 0.103125 1.44375 0.20625 2.1875 0.3125 C1.25159496 1.4180189 0.31370142 2.52185453 -0.625 3.625 C-1.40810547 4.54732422 -1.40810547 4.54732422 -2.20703125 5.48828125 C-3.68422469 7.16674679 -5.21289131 8.75132034 -6.8125 10.3125 C-7.8025 9.9825 -8.7925 9.6525 -9.8125 9.3125 C-7.9542153 4.75125573 -5.1211191 0.56901323 0 0 Z " fill="#FA8E20" transform="translate(78.8125,32.6875)"/>
<path d="M0 0 C2.4375 0.8125 2.4375 0.8125 5 2 C5.33 2.99 5.66 3.98 6 5 C7.32 4.34 8.64 3.68 10 3 C9.4346089 6.50695293 8.31277274 8.02732613 5.625 10.3125 C5.01914062 10.84488281 4.41328125 11.37726562 3.7890625 11.92578125 C3.19867188 12.28027344 2.60828125 12.63476562 2 13 C1.01 12.67 0.02 12.34 -1 12 C0.65 10.68 2.3 9.36 4 8 C3.40072174 4.64404172 2.15377564 2.62198774 0 0 Z " fill="#D1E4DE" transform="translate(50,44)"/>
<path d="M0 0 C2.37043576 0.92183613 4.66992156 1.81624499 6.89453125 3.0546875 C11.38080514 5.06893292 16.49176094 4.49248622 21.0625 3 C21.701875 2.67 22.34125 2.34 23 2 C22 5 22 5 20.0625 6.25 C14.86734861 7.52228197 9.60289624 7.36144395 4.796875 4.84765625 C2.875 3.5 2.875 3.5 0 1 C0 0.67 0 0.34 0 0 Z " fill="#E6DFB6" transform="translate(74,62)"/>
<path d="M0 0 C0.33 0 0.66 0 1 0 C1.45675183 5.70939788 0.62105556 8.55127459 -3 13 C-6.6441774 15.4294516 -8.71241272 15.16179575 -13 15 C-13.33 14.34 -13.66 13.68 -14 13 C-13.09507813 12.88785156 -13.09507813 12.88785156 -12.171875 12.7734375 C-7.72280489 12.04149371 -5.58212646 11.65489227 -2.5 8.1875 C-1.17159653 5.36464262 -0.3626631 3.08263633 0 0 Z " fill="#EAE6BF" transform="translate(99,48)"/>
<path d="M0 0 C0.680625 0.804375 1.36125 1.60875 2.0625 2.4375 C5.48477302 5.42288711 7.5428126 5.73781251 12 6 C12 6.66 12 7.32 12 8 C4.02201622 8.62572422 4.02201622 8.62572422 -0.0625 6.125 C-2 4 -2 4 -2 2 C-1.34 2 -0.68 2 0 2 C0 1.34 0 0.68 0 0 Z " fill="#14699D" transform="translate(38,53)"/>
<path d="M0 0 C0.65355469 0.16371094 1.30710938 0.32742187 1.98046875 0.49609375 C5.76991774 1.12848563 9.48490951 1.10696709 13.3125 1.0625 C14.42334961 1.05573242 14.42334961 1.05573242 15.55664062 1.04882812 C17.37112899 1.03712175 19.18557534 1.01918898 21 1 C17.79619983 3.13586678 16.98060033 3.23132175 13.3125 3.125 C12.50425781 3.10695313 11.69601563 3.08890625 10.86328125 3.0703125 C9.94095703 3.03550781 9.94095703 3.03550781 9 3 C9 3.66 9 4.32 9 5 C6.36 5 3.72 5 1 5 C1.66 4.67 2.32 4.34 3 4 C3 3.34 3 2.68 3 2 C2.01 1.67 1.02 1.34 0 1 C0 0.67 0 0.34 0 0 Z " fill="#36D2A0" transform="translate(56,79)"/>
<path d="M0 0 C0.5775 0.2475 1.155 0.495 1.75 0.75 C0.8425 1.245 -0.065 1.74 -1 2.25 C-5.55906575 5.31093303 -7.64178144 9.74468479 -8.71484375 15.046875 C-8.959937 16.94047213 -9.1139614 18.84545956 -9.25 20.75 C-9.58 20.75 -9.91 20.75 -10.25 20.75 C-10.99295191 9.15169523 -10.99295191 9.15169523 -6.25 3.75 C-5.59 2.945625 -4.93 2.14125 -4.25 1.3125 C-2.25 -0.25 -2.25 -0.25 0 0 Z " fill="#D6EDF3" transform="translate(39.25,34.25)"/>
<path d="M0 0 C7.26419717 2.42139906 12.5258443 6.89887859 17 13 C17 13.66 17 14.32 17 15 C14.625 14.25 14.625 14.25 12 13 C11.7215625 12.40058594 11.443125 11.80117188 11.15625 11.18359375 C9.599397 8.24345583 7.51224125 6.81484984 4.875 4.8125 C3.23531435 3.560672 1.60594458 2.29482986 0 1 C0 0.67 0 0.34 0 0 Z " fill="#42D8E2" transform="translate(82,15)"/>
<path d="M0 0 C0.33 0 0.66 0 1 0 C1.35050464 5.841744 1.16727335 9.8531808 -2 15 C-3.44977894 12.65887549 -4.04314411 11.4203071 -3.7578125 8.640625 C-3.54898438 7.85171875 -3.34015625 7.0628125 -3.125 6.25 C-2.92132813 5.45078125 -2.71765625 4.6515625 -2.5078125 3.828125 C-2.34023437 3.22484375 -2.17265625 2.6215625 -2 2 C-1.34 2 -0.68 2 0 2 C0 1.34 0 0.68 0 0 Z " fill="#F5C039" transform="translate(102,46)"/>
<path d="M0 0 C2.96175123 0.61277612 4.38058783 1.25372522 7 3 C6.01 3.495 6.01 3.495 5 4 C6.07869393 4.96355244 7.16318743 5.92061417 8.25 6.875 C8.85328125 7.40867187 9.4565625 7.94234375 10.078125 8.4921875 C11.97418746 9.9797487 13.81290005 11.00322436 16 12 C15.67 12.66 15.34 13.32 15 14 C9.37807144 10.47692477 4.41595726 6.98210563 0 2 C0 1.34 0 0.68 0 0 Z " fill="#39C3A1" transform="translate(35,72)"/>
<path d="M0 0 C0.33 0 0.66 0 1 0 C1.06058594 0.85464844 1.12117188 1.70929687 1.18359375 2.58984375 C1.26738281 3.69457031 1.35117187 4.79929687 1.4375 5.9375 C1.51871094 7.03964844 1.59992187 8.14179687 1.68359375 9.27734375 C1.70418084 11.91109903 1.70418084 11.91109903 3 13 C3.04063832 14.66617115 3.042721 16.33388095 3 18 C2.34 18 1.68 18 1 18 C-1.23722343 12.68659435 -1.43924559 7.67954768 -1 2 C-0.67 1.34 -0.34 0.68 0 0 Z " fill="#1587BA" transform="translate(27,43)"/>
<path d="M0 0 C3.90034228 1.26497588 5.98561978 2.37411561 8 6 C8.6875 9.25 8.6875 9.25 9 12 C8.34 12 7.68 12 7 12 C5.78125 10.28515625 5.78125 10.28515625 4.5 8.0625 C2.81545121 4.94567974 2.81545121 4.94567974 0 3 C0 2.01 0 1.02 0 0 Z " fill="#F6A023" transform="translate(93,36)"/>
<path d="M0 0 C0.99 0 1.98 0 3 0 C3.33 0.66 3.66 1.32 4 2 C7.02934491 2.65772428 7.02934491 2.65772428 10 3 C10 3.33 10 3.66 10 4 C8.02 4 6.04 4 4 4 C4 4.99 4 5.98 4 7 C0.31245243 6.50168276 -1.60490662 5.89932357 -4 3 C-3.01 2.67 -2.02 2.34 -1 2 C-0.67 1.34 -0.34 0.68 0 0 Z " fill="#F0CC4E" transform="translate(82,60)"/>
<path d="M0 0 C-0.75 1.9375 -0.75 1.9375 -2 4 C-4.93482964 5.02976479 -7.66039672 5.10793534 -10.75 5.0625 C-11.54921875 5.05347656 -12.3484375 5.04445313 -13.171875 5.03515625 C-13.77515625 5.02355469 -14.3784375 5.01195313 -15 5 C-14.67 4.34 -14.34 3.68 -14 3 C-12.0390625 2.40234375 -12.0390625 2.40234375 -9.625 1.9375 C-6.42803948 1.30748009 -3.22471695 0 0 0 Z " fill="#23998B" transform="translate(98,72)"/>
<path d="M0 0 C-1.36508501 3.11728368 -2.86919698 5.08663738 -5.4375 7.3125 C-6.03433594 7.84488281 -6.63117187 8.37726563 -7.24609375 8.92578125 C-7.82488281 9.28027344 -8.40367188 9.63476562 -9 10 C-9.99 9.67 -10.98 9.34 -12 9 C-10.38050958 7.49405319 -8.75424026 5.99539332 -7.125 4.5 C-6.22007813 3.6646875 -5.31515625 2.829375 -4.3828125 1.96875 C-2 0 -2 0 0 0 Z " fill="#DCF6F2" transform="translate(65,62)"/>
<path d="M0 0 C3.36720387 1.39332574 4.9859524 2.9789286 7 6 C5.68 5.67 4.36 5.34 3 5 C2.01 6.485 2.01 6.485 1 8 C-0.5625 6.75 -0.5625 6.75 -2 5 C-1.74853421 2.86254078 -1.54074221 1.54074221 0 0 Z " fill="#E78C2F" transform="translate(71,57)"/>
<path d="M0 0 C0 0.66 0 1.32 0 2 C-1.4117783 2.53394179 -2.82970244 3.05165104 -4.25 3.5625 C-5.03890625 3.85253906 -5.8278125 4.14257812 -6.640625 4.44140625 C-9.19103452 5.04522837 -10.55322229 4.8473932 -13 4 C-8.62340682 -0.37659318 -5.88808394 -0.39919213 0 0 Z " fill="#24A1CB" transform="translate(47,35)"/>
<path d="M0 0 C-1.39750048 3.15835107 -3.05198234 5.32272825 -5.5 7.75 C-6.41265625 8.67039062 -6.41265625 8.67039062 -7.34375 9.609375 C-9 11 -9 11 -11 11 C-9.60249952 7.84164893 -7.94801766 5.67727175 -5.5 3.25 C-4.8915625 2.63640625 -4.283125 2.0228125 -3.65625 1.390625 C-2 0 -2 0 0 0 Z " fill="#24749A" transform="translate(68,51)"/>
<path d="M0 0 C0.99 0.33 1.98 0.66 3 1 C3.33333333 2.33333333 3.66666667 3.66666667 4 5 C5.28062485 6.7074998 6.6072711 8.38263741 8 10 C3.74780225 9.52753358 1.62685275 7.22727623 -1 4 C-0.8125 1.6875 -0.8125 1.6875 0 0 Z " fill="#E89821" transform="translate(75,52)"/>
<path d="M0 0 C0.66 0.66 1.32 1.32 2 2 C1.34 2 0.68 2 0 2 C0.33 2.99 0.66 3.98 1 5 C-1.97 7.475 -1.97 7.475 -5 10 C-5.68359375 8.203125 -5.68359375 8.203125 -6 6 C-4.78515625 4.296875 -4.78515625 4.296875 -3.0625 2.75 C-2.21365234 1.96882813 -2.21365234 1.96882813 -1.34765625 1.171875 C-0.90292969 0.78515625 -0.45820312 0.3984375 0 0 Z " fill="#F98A38" transform="translate(81,39)"/>
<path d="M0 0 C0.58265625 0.23203125 1.1653125 0.4640625 1.765625 0.703125 C0.49675536 1.83033936 -0.77455062 2.95481158 -2.046875 4.078125 C-2.75457031 4.70460938 -3.46226563 5.33109375 -4.19140625 5.9765625 C-6.234375 7.703125 -6.234375 7.703125 -9.234375 9.703125 C-9.234375 6.02240239 -8.49705757 5.50803753 -5.984375 2.953125 C-5.38109375 2.31890625 -4.7778125 1.6846875 -4.15625 1.03125 C-2.234375 -0.296875 -2.234375 -0.296875 0 0 Z " fill="#F0D9C2" transform="translate(82.234375,34.296875)"/>
<path d="M0 0 C1.32 0.33 2.64 0.66 4 1 C2.91596829 4.25209513 2.20008284 4.91385694 -0.375 7 C-2.70711035 8.90538378 -4.90195513 10.83759792 -7 13 C-5.66614356 8.99843068 -3.94567217 6.94567217 -1 4 C-0.2127322 1.8618034 -0.2127322 1.8618034 0 0 Z " fill="#66C1D3" transform="translate(34,28)"/>
<path d="M0 0 C0 0.99 0 1.98 0 3 C-3.96 3 -7.92 3 -12 3 C-12 2.34 -12 1.68 -12 1 C-7.915021 0.45533613 -4.1274515 0 0 0 Z " fill="#F7B206" transform="translate(95,68)"/>
<path d="M0 0 C1.06546953 3.1964086 1.07427838 5.65747276 1 9 C0.34 8.67 -0.32 8.34 -1 8 C-1 7.34 -1 6.68 -1 6 C-1.99 6.33 -2.98 6.66 -4 7 C-4 5.68 -4 4.36 -4 3 C-2 1.25 -2 1.25 0 0 Z " fill="#CCE4DA" transform="translate(69,56)"/>
<path d="M0 0 C0.33 0 0.66 0 1 0 C0.855625 0.928125 0.71125 1.85625 0.5625 2.8125 C-0.16364963 7.85405316 -0.5687807 12.92629204 -1 18 C-1.33 18 -1.66 18 -2 18 C-2.25034126 15.9399629 -2.47443346 13.87672534 -2.6875 11.8125 C-2.81511719 10.66394531 -2.94273438 9.51539063 -3.07421875 8.33203125 C-2.99127165 4.60814303 -2.23546293 2.93094029 0 0 Z " fill="#36ACCF" transform="translate(30,37)"/>
<path d="M0 0 C0.78375 0.04125 1.5675 0.0825 2.375 0.125 C2.045 1.115 1.715 2.105 1.375 3.125 C-1.63990557 4.12996852 -3.66681692 4.22835303 -6.8125 4.1875 C-8.16408203 4.17396484 -8.16408203 4.17396484 -9.54296875 4.16015625 C-10.23003906 4.14855469 -10.91710938 4.13695313 -11.625 4.125 C-11.625 3.795 -11.625 3.465 -11.625 3.125 C-10.51125 3.00125 -9.3975 2.8775 -8.25 2.75 C-4.46596981 2.097581 -3.58927826 0.17091801 0 0 Z " fill="#29AACB" transform="translate(50.625,67.875)"/>
<path d="M0 0 C3.33333333 3.33333333 6.66666667 6.66666667 10 10 C4.64847115 9.67566492 1.71719957 6.50295176 -2 3 C-1.34 2.67 -0.68 2.34 0 2 C0 1.34 0 0.68 0 0 Z " fill="#DCD1B1" transform="translate(73,54)"/>
<path d="M0 0 C0.33 1.65 0.66 3.3 1 5 C-0.8125 5.625 -0.8125 5.625 -3 6 C-3.99 5.34 -4.98 4.68 -6 4 C-2.25 0 -2.25 0 0 0 Z " fill="#78EED7" transform="translate(68,62)"/>
<path d="M0 0 C4.455 0.99 4.455 0.99 9 2 C8.67 2.66 8.34 3.32 8 4 C5.36 3.67 2.72 3.34 0 3 C0 2.01 0 1.02 0 0 Z " fill="#1694BD" transform="translate(40,63)"/>
<path d="M0 0 C0 0.99 0 1.98 0 3 C-4.29 3 -8.58 3 -13 3 C-13 2.67 -13 2.34 -13 2 C-11.20873548 1.66451233 -9.41697413 1.33167645 -7.625 1 C-6.62726563 0.814375 -5.62953125 0.62875 -4.6015625 0.4375 C-2 0 -2 0 0 0 Z " fill="#3C51EA" transform="translate(202,52)"/>
<path d="M0 0 C1.32 0.66 2.64 1.32 4 2 C2.625 4 2.625 4 1 6 C0.34 6 -0.32 6 -1 6 C-1.66 4.68 -2.32 3.36 -3 2 C-2.01 1.34 -1.02 0.68 0 0 Z " fill="#216B92" transform="translate(57,43)"/>
<path d="M0 0 C3.3 0 6.6 0 10 0 C9.67 0.99 9.34 1.98 9 3 C2.84765625 2.4140625 2.84765625 2.4140625 1 2 C0.67 1.34 0.34 0.68 0 0 Z " fill="#077F7B" transform="translate(39,75)"/>
<path d="M0 0 C2.875 -0.125 2.875 -0.125 6 0 C6.66 0.66 7.32 1.32 8 2 C7.01 3.485 7.01 3.485 6 5 C4.02 4.34 2.04 3.68 0 3 C0 2.01 0 1.02 0 0 Z " fill="#4AA5BD" transform="translate(43,61)"/>
<path d="M0 0 C0.66 0.33 1.32 0.66 2 1 C2 1.99 2 2.98 2 4 C1.2575 4.28875 0.515 4.5775 -0.25 4.875 C-2.56900199 5.82368263 -4.76932676 6.86559779 -7 8 C-6.02133662 6.85373678 -5.04205413 5.70800212 -4.0625 4.5625 C-3.51722656 3.92441406 -2.97195312 3.28632812 -2.41015625 2.62890625 C-1.63204305 1.73008851 -0.84063472 0.84063472 0 0 Z " fill="#36B0BA" transform="translate(67,53)"/>
<path d="M0 0 C0.66 0.33 1.32 0.66 2 1 C1.5359375 1.8353125 1.5359375 1.8353125 1.0625 2.6875 C-0.05761821 5.12540433 -0.56037364 7.36224186 -1 10 C-3.16264785 7.83735215 -3.82246387 7.01811422 -4 4 C-2.0625 1.75 -2.0625 1.75 0 0 Z " fill="#BC6F55" transform="translate(71,46)"/>
<path d="M0 0 C2.00720923 0.28674418 4.0085944 0.61866701 6 1 C3.14693203 3.32472205 0.45925163 4.7508258 -3 6 C-1.125 1.125 -1.125 1.125 0 0 Z " fill="#25C488" transform="translate(82,76)"/>
<path d="M0 0 C-1.49097658 3.7952131 -3.75700849 5.61042731 -7 8 C-7 5 -7 5 -4.625 2.3125 C-2 0 -2 0 0 0 Z " fill="#E66134" transform="translate(80,39)"/>
<path d="M0 0 C0.66 0.66 1.32 1.32 2 2 C-0.7238399 3.36191995 -2.98096827 3.06161289 -6 3 C-6.99 3 -7.98 3 -9 3 C-6.40257043 -0.46323942 -4.16948329 -0.44356205 0 0 Z " fill="#ACD0D6" transform="translate(49,42)"/>
<path d="M0 0 C2.31 0 4.62 0 7 0 C6.67 0.99 6.34 1.98 6 3 C4.02 3 2.04 3 0 3 C0 2.01 0 1.02 0 0 Z " fill="#F3B317" transform="translate(86,64)"/>
<path d="M0 0 C1.32 0 2.64 0 4 0 C3.75 1.875 3.75 1.875 3 4 C0.9375 5.25 0.9375 5.25 -1 6 C-1.042721 4.33388095 -1.04063832 2.66617115 -1 1 C-0.67 0.67 -0.34 0.34 0 0 Z " fill="#3C6685" transform="translate(57,52)"/>
<path d="M0 0 C-1.28519565 2.86697492 -2.57129254 4.97607712 -5 7 C-5.66 7 -6.32 7 -7 7 C-3.86206897 0 -3.86206897 0 0 0 Z " fill="#D74930" transform="translate(69,44)"/>
<path d="M0 0 C-0.66 1.32 -1.32 2.64 -2 4 C-4.97 3.505 -4.97 3.505 -8 3 C-5.48696401 0.48696401 -3.51117809 0 0 0 Z " fill="#41DB8F" transform="translate(94,76)"/>
<path d="M0 0 C2.96175123 0.61277612 4.38058783 1.25372522 7 3 C6.01 3.495 6.01 3.495 5 4 C4.67 4.66 4.34 5.32 4 6 C2.62437146 4.71034824 1.29233607 3.37310707 0 2 C0 1.34 0 0.68 0 0 Z " fill="#369399" transform="translate(35,72)"/>
<path d="M0 0 C3.3 0 6.6 0 10 0 C10 0.33 10 0.66 10 1 C9.06027344 1.19916016 9.06027344 1.19916016 8.1015625 1.40234375 C6.87566406 1.66724609 6.87566406 1.66724609 5.625 1.9375 C4.81289062 2.11152344 4.00078125 2.28554687 3.1640625 2.46484375 C0.970537 2.92330693 0.970537 2.92330693 -1 4 C-0.67 2.68 -0.34 1.36 0 0 Z " fill="#A3E2C9" transform="translate(81,74)"/>
<path d="M0 0 C0 0.66 0 1.32 0 2 C-2.64 2.33 -5.28 2.66 -8 3 C-8 2.34 -8 1.68 -8 1 C-5.29120665 -0.35439668 -2.99066732 -0.06501451 0 0 Z " fill="#F86D17" transform="translate(89,40)"/>
<path d="M0 0 C1.65 0.33 3.3 0.66 5 1 C4.01 2.485 4.01 2.485 3 4 C0.69 3.67 -1.62 3.34 -4 3 C-2.68 2.67 -1.36 2.34 0 2 C0 1.34 0 0.68 0 0 Z " fill="#37BBD9" transform="translate(47,35)"/>
</svg>
