<svg width="120" height="24" viewBox="0 0 120 24" fill="none" xmlns="http://www.w3.org/2000/svg">
<g clip-path="url(#clip0_512_10977)">
<path fill-rule="evenodd" clip-rule="evenodd" d="M3.64591 2.20068C4.54003 1.42365 5.57913 0.831302 6.70329 0.457801C7.82745 0.0843 9.01442 -0.0629649 10.1958 0.0244973C11.3771 0.11196 12.5295 0.432419 13.5864 0.967396C14.6433 1.50237 15.5838 2.24128 16.3537 3.14152C18.0095 4.81588 18.9766 7.05066 19.0637 9.40382C19.1508 11.757 18.3516 14.0572 16.8242 15.8493L9.76788 22.9078C8.35227 21.967 6.00345 20.0842 6.94429 18.2014C8.82705 15.8483 11.177 13.9688 13.063 11.6123C14.4786 9.72955 13.5334 5.96403 10.7098 5.49361C10.0763 5.2723 9.39659 5.21731 8.73575 5.33392C8.07491 5.45052 7.45506 5.73482 6.93556 6.15958C6.41605 6.58434 6.01428 7.13535 5.76871 7.75985C5.52314 8.38435 5.44199 9.06144 5.53303 9.72629C5.53303 12.0795 7.41579 13.4907 8.82705 14.9031C7.41144 16.3187 5.53303 17.2562 5.53303 19.1357C4.11742 17.253 1.76859 15.8417 0.826669 13.4875C-0.0335016 11.5619 -0.223212 9.40349 0.28787 7.35739C0.798952 5.31128 1.98131 3.49562 3.64591 2.20068Z" fill="white"  />
<path fill-rule="evenodd" clip-rule="evenodd" d="M33.7658 2.19949C34.2362 0.78388 35.6485 1.25865 36.5894 1.25865V18.6707H33.7658V17.2551C32.6327 18.1685 31.221 18.6667 29.7656 18.6667C28.3101 18.6667 26.8985 18.1685 25.7654 17.2551C24.462 16.0649 23.6814 14.4083 23.5933 12.6455C23.5052 10.8827 24.1168 9.15649 25.295 7.84233C26.3546 6.68805 27.7966 5.95674 29.354 5.78376C30.9113 5.61079 32.4786 6.00787 33.7658 6.9015V2.19949ZM29.5331 8.3182C27.1799 8.78861 25.3004 12.0826 27.1799 14.4369C27.5315 14.9497 28.0118 15.361 28.5726 15.6295C29.1334 15.898 29.755 16.0143 30.375 15.9666C30.9949 15.9189 31.5914 15.709 32.1046 15.358C32.6177 15.0069 33.0295 14.527 33.2986 13.9665C34.7077 11.6122 32.3534 8.3182 29.5298 8.3182H29.5331Z" fill="white"  />
<path fill-rule="evenodd" clip-rule="evenodd" d="M38.9414 5.96504H41.765V6.90588C42.7058 5.49027 44.5886 5.49027 46.4714 5.96504C46.001 6.90588 45.5305 7.38066 45.5305 8.31823C43.6478 7.84781 41.7661 8.78864 41.7661 10.201V17.2605C41.2946 18.6761 39.8833 18.6761 38.9414 18.6761V5.96504Z" fill="white"  />
<path fill-rule="evenodd" clip-rule="evenodd" d="M50.7063 5.96613C55.4126 4.08336 60.119 8.78973 59.1771 13.4961C58.2352 18.2024 51.6471 20.5556 48.3477 17.2605C44.5832 13.9665 45.9945 6.90696 50.7008 5.96613H50.7063ZM52.1219 8.31931C51.3316 8.53014 50.611 8.9457 50.0326 9.52405C49.4543 10.1024 49.0387 10.8231 48.8279 11.6133C48.7159 12.6056 48.9996 13.6019 49.6175 14.3864C50.2353 15.1708 51.1376 15.68 52.1284 15.8035C53.1193 15.927 54.1189 15.655 54.9105 15.0463C55.702 14.4376 56.2217 13.5413 56.3568 12.552C56.3568 10.201 54.0047 7.8478 52.123 8.31931H52.1219Z" fill="white"  />
<path fill-rule="evenodd" clip-rule="evenodd" d="M61.062 5.96519H63.8856V6.90712C65.1727 6.01349 66.74 5.61641 68.2974 5.78938C69.8548 5.96235 71.2967 6.69367 72.3564 7.84795C72.9379 8.45305 73.3892 9.17098 73.6823 9.95739C73.9754 10.7438 74.104 11.582 74.0604 12.4201C74.0167 13.2582 73.8016 14.0784 73.4283 14.8301C73.0551 15.5818 72.5316 16.2489 71.8903 16.7903C70.0076 19.1434 66.2421 19.1434 63.89 17.7311V21.9638C63.4195 23.3794 62.0072 23.3794 61.0664 23.3794V5.96519H61.062ZM67.1807 8.31837C64.3571 8.78879 62.948 12.0828 64.3571 13.9667C65.7727 16.3198 69.5339 16.3198 70.4758 13.9667C72.3564 11.6124 70.0043 8.32273 67.1807 8.32273V8.31837Z" fill="white"  />
<path fill-rule="evenodd" clip-rule="evenodd" d="M78.9456 6.43562C80.1367 5.76769 81.5103 5.49868 82.8653 5.66799C84.2203 5.83729 85.4855 6.43601 86.4756 7.37645C86.0052 7.84687 85.5347 8.79206 84.5928 9.25922C84.1539 8.90383 83.6383 8.65538 83.0868 8.53351C82.5354 8.41163 81.9631 8.41966 81.4153 8.55696C80.8674 8.69426 80.359 8.95707 79.9302 9.32463C79.5014 9.69219 79.164 10.1544 78.9445 10.6748C78.7401 11.2321 78.667 11.8289 78.7307 12.4191C78.7944 13.0092 78.9933 13.5767 79.312 14.0774C79.6306 14.5782 80.0604 14.9987 80.568 15.3064C81.0755 15.6141 81.6472 15.8007 82.2385 15.8516C83.1794 15.8516 84.1213 15.3812 85.0621 15.3812C85.903 15.7514 86.5747 16.4231 86.9449 17.264C83.6509 20.0876 78.0026 19.1467 76.5913 14.9108C74.7097 12.0872 76.1209 8.3162 78.9456 6.43562Z" fill="white"  />
<path fill-rule="evenodd" clip-rule="evenodd" d="M86.9459 14.4369C85.5357 10.201 88.8276 5.49463 93.0635 5.49463C94.7581 5.56795 96.3781 6.2125 97.6598 7.32344C98.9416 8.43438 99.8097 9.94632 100.123 11.6133V18.6707C98.7074 18.6707 97.7699 18.6707 96.829 17.7299C93.535 20.083 88.3582 18.2003 86.9459 14.4358V14.4369ZM93.0646 8.31823C92.4168 8.44078 91.8076 8.71636 91.2879 9.122C90.7682 9.52763 90.3529 10.0516 90.0766 10.6502C89.8004 11.2489 89.6712 11.9048 89.6998 12.5635C89.7283 13.2222 89.9139 13.8645 90.241 14.4369C92.1238 16.7901 95.8893 16.3197 96.8301 13.9665C97.0712 13.3459 97.1593 12.6764 97.087 12.0145C97.0148 11.3527 96.7842 10.718 96.4149 10.164C96.0456 9.61003 95.5484 9.1531 94.9652 8.83184C94.3821 8.51057 93.7302 8.33441 93.0646 8.31823Z" fill="white"  />
<path fill-rule="evenodd" clip-rule="evenodd" d="M102.006 5.96631H104.829V6.90715C106.245 5.02439 109.536 5.49154 111.419 7.37756C113.772 4.55397 118.478 5.4948 119.419 8.79318C119.889 11.6168 119.419 14.9119 119.419 17.7355C119.419 18.6763 118.003 18.6763 116.595 18.6763C116.595 15.8527 117.066 13.028 116.595 10.2055C116.503 9.71153 116.241 9.26533 115.855 8.94422C115.468 8.62312 114.982 8.44734 114.479 8.44734C113.977 8.44734 113.49 8.62312 113.103 8.94422C112.717 9.26533 112.455 9.71153 112.363 10.2055V18.6763H109.539C109.617 15.6878 109.46 12.6978 109.069 9.73401C108.598 7.85125 105.304 8.3184 105.304 10.2044C104.913 13.0101 104.756 15.8435 104.834 18.6752H102.006V5.96631Z" fill="white"  />
</g>
<defs>
<clipPath id="clip0_512_10977">
<rect width="119.627" height="23.375" fill="white" transform="translate(0.0012207)"/>
</clipPath>
</defs>
</svg>
