<svg width="106" height="32" viewBox="0 0 106 32" fill="none" xmlns="http://www.w3.org/2000/svg">
<g clip-path="url(#clip0_512_11000)">
<path fill-rule="evenodd" clip-rule="evenodd" d="M65.6804 24.9269C59.5505 29.4588 50.6352 31.8737 42.9452 31.8737C32.6876 31.9247 22.7795 28.1494 15.1568 21.2855C14.6 20.7655 15.082 20.059 15.791 20.4687C23.1727 24.7167 31.4374 27.1988 39.9382 27.7208C48.439 28.2427 56.9453 26.7903 64.7913 23.4772C65.8288 23.0701 66.6837 24.1888 65.6804 24.9269Z" fill="white"  />
<path fill-rule="evenodd" clip-rule="evenodd" d="M68.2438 21.9921C67.4638 20.9888 63.0435 21.5088 61.0738 21.7688C60.4789 21.8437 60.3673 21.3236 60.9254 20.952C64.4552 18.4635 70.2123 19.2055 70.882 20.0236C71.5517 20.8417 70.6968 26.6368 67.3902 29.3853C66.8702 29.7937 66.3869 29.5705 66.6101 29.0137C67.3521 27.1568 69.0238 23.0321 68.2438 21.9921Z" fill="white"  />
<path fill-rule="evenodd" clip-rule="evenodd" d="M61.1852 3.49177V1.0819C61.181 1.00268 61.1935 0.923462 61.222 0.849387C61.2504 0.775312 61.294 0.708041 61.3501 0.651942C61.4062 0.595844 61.4735 0.552152 61.5476 0.523744C61.6217 0.495337 61.7009 0.482847 61.7801 0.48705H72.5497C72.7124 0.482927 72.8701 0.543011 72.9888 0.654342C73.1075 0.765674 73.1776 0.919289 73.1839 1.0819V3.12521C73.1839 3.46005 72.8871 3.90526 72.367 4.64725L66.7952 12.5973C68.9185 12.4829 71.0346 12.93 72.9302 13.8935C73.0947 13.9877 73.2323 14.1225 73.3298 14.2851C73.4273 14.4476 73.4814 14.6325 73.487 14.822V17.3853C73.487 17.757 73.1154 18.1654 72.707 17.9421C70.9492 17.0323 68.9976 16.5605 67.0183 16.5669C65.039 16.5733 63.0906 17.0577 61.3387 17.9789C61.25 18.0106 61.155 18.0205 61.0617 18.0075C60.9685 17.9945 60.8797 17.9592 60.8031 17.9045C60.7264 17.8498 60.6642 17.7773 60.6216 17.6933C60.5791 17.6093 60.5575 17.5163 60.5587 17.4221V14.9666C60.5221 14.3924 60.6648 13.8211 60.9671 13.3316L67.4357 4.08154H61.8257C61.6631 4.08567 61.5053 4.02558 61.3866 3.91425C61.2679 3.80292 61.1979 3.64931 61.1916 3.48669L61.1852 3.49177ZM21.9183 18.4584H18.6446C18.4981 18.4437 18.3605 18.3812 18.253 18.2806C18.1455 18.18 18.0741 18.0467 18.0498 17.9015V1.11488C18.0561 0.952267 18.1261 0.798652 18.2448 0.687321C18.3635 0.575989 18.5213 0.515906 18.684 0.520029H21.728C21.8787 0.522078 22.0232 0.58027 22.1332 0.683256C22.2433 0.786243 22.3109 0.926604 22.3229 1.07683V3.26854H22.3977C22.6869 2.36254 23.2567 1.57194 24.0247 1.01095C24.7927 0.449964 25.7191 0.147628 26.6702 0.147628C27.6212 0.147628 28.5476 0.449964 29.3156 1.01095C30.0836 1.57194 30.6534 2.36254 30.9426 3.26854C31.2685 2.33448 31.8835 1.5285 32.6984 0.967482C33.5132 0.406465 34.4855 0.119579 35.4744 0.148402C36.2085 0.133591 36.9355 0.294495 37.5948 0.617725C38.254 0.940955 38.8264 1.41714 39.2643 2.00654C40.3043 3.41821 40.0811 5.46153 40.0811 7.28161V17.9066C40.0748 18.0692 40.0047 18.2228 39.886 18.3342C39.7674 18.4455 39.6096 18.5056 39.4469 18.5015H36.2151C36.0604 18.4922 35.9145 18.4265 35.8049 18.3169C35.6953 18.2073 35.6296 18.0613 35.6203 17.9066V8.99135C35.6701 7.93817 35.6451 6.88279 35.5455 5.83316C35.4773 5.38684 35.2368 4.98507 34.8756 4.71421C34.5144 4.44336 34.0613 4.32504 33.6138 4.3847C33.1873 4.39701 32.7738 4.53368 32.4241 4.77796C32.0743 5.02224 31.8036 5.36345 31.6453 5.75957C31.3761 6.81436 31.2759 7.90517 31.3485 8.99135V17.9066C31.3422 18.0692 31.2721 18.2228 31.1534 18.3342C31.0347 18.4455 30.877 18.5056 30.7143 18.5015H27.4458C27.291 18.4922 27.1451 18.4265 27.0355 18.3169C26.9259 18.2073 26.8602 18.0613 26.8509 17.9066V8.99135C26.8509 7.13321 27.1477 4.34793 24.8444 4.34793C22.5042 4.34793 22.5778 7.02286 22.5778 8.99135V17.9066C22.5545 18.0654 22.4734 18.2101 22.3501 18.3128C22.2267 18.4156 22.0698 18.4692 21.9094 18.4634L21.9183 18.4584ZM82.472 0.143331C87.3387 0.143331 89.9769 4.30352 89.9769 9.61666C89.9769 14.7433 87.0787 18.83 82.472 18.83C77.7169 18.83 75.1156 14.6698 75.1156 9.46826C75.0788 4.22995 77.7157 0.143331 82.472 0.143331ZM82.472 3.59833C80.0621 3.59833 79.9087 6.90491 79.9087 8.94823C79.9087 10.9915 79.8719 15.375 82.4352 15.375C84.9618 15.375 85.1102 11.8451 85.1102 9.69148C85.1558 8.1902 84.9932 6.68986 84.6269 5.23324C84.5254 4.74698 84.2512 4.31395 83.855 4.01431C83.4588 3.71467 82.9675 3.56869 82.472 3.6034V3.59833ZM96.254 18.4584H92.9854C92.8307 18.449 92.6847 18.3833 92.5751 18.2737C92.4655 18.1641 92.3999 18.0182 92.3905 17.8635V1.04006C92.4111 0.886268 92.4866 0.745099 92.6032 0.64273C92.7198 0.540361 92.8696 0.483692 93.0247 0.483218H96.0688C96.2071 0.48784 96.3401 0.537599 96.4475 0.624847C96.5549 0.712096 96.6308 0.83206 96.6636 0.966476V3.52981H96.7385C97.6669 1.22648 98.9302 0.14964 101.197 0.14964C101.951 0.115377 102.701 0.279054 103.372 0.624383C104.043 0.969712 104.613 1.48468 105.023 2.11813C105.878 3.45624 105.878 5.72153 105.878 7.35644V17.9446C105.856 18.0945 105.778 18.2307 105.661 18.3268C105.544 18.4229 105.395 18.472 105.244 18.4647H101.975C101.834 18.4513 101.701 18.394 101.594 18.3006C101.487 18.2073 101.413 18.0828 101.381 17.9446V8.80617C101.381 6.9493 101.604 4.27434 99.3373 4.27434C98.9269 4.29349 98.5305 4.42949 98.1948 4.66633C97.8591 4.90317 97.5981 5.23097 97.4424 5.61117C97.045 6.62739 96.8678 7.71638 96.9224 8.80617V17.8711C96.9018 18.0344 96.8227 18.1846 96.6998 18.294C96.5769 18.4034 96.4185 18.4645 96.254 18.466V18.4584ZM52.6035 10.4335C52.725 11.6298 52.5194 12.8366 52.0087 13.9253C51.8015 14.3555 51.4811 14.7212 51.0817 14.9831C50.6824 15.245 50.2193 15.3932 49.7421 15.4118C48.4738 15.4118 47.7356 14.4453 47.7356 13.0336C47.7356 10.2432 50.2241 9.72701 52.6023 9.72701L52.6035 10.4335ZM55.9101 18.4241C55.8043 18.5166 55.6721 18.5735 55.5322 18.5869C55.3922 18.6004 55.2516 18.5696 55.1301 18.4989C54.3734 17.8866 53.7318 17.1444 53.2352 16.3072C52.5874 17.0991 51.7621 17.7272 50.8262 18.1404C49.8903 18.5536 48.8701 18.7403 47.8485 18.6854C47.1782 18.7247 46.5072 18.6185 45.8818 18.3739C45.2564 18.1294 44.6914 17.7524 44.2255 17.2688C43.7596 16.7852 43.4039 16.2065 43.1829 15.5724C42.9619 14.9383 42.8807 14.2639 42.945 13.5955C42.9065 12.4529 43.2211 11.3263 43.8459 10.369C44.4707 9.41169 45.3754 8.67023 46.4368 8.24558C48.4308 7.58421 50.5053 7.19675 52.6035 7.09389V6.68549C52.7146 5.86964 52.572 5.03938 52.1951 4.30732C51.9816 4.03039 51.7051 3.80835 51.3885 3.65968C51.072 3.511 50.7245 3.43996 50.375 3.45244C49.7704 3.39967 49.1674 3.57113 48.681 3.93411C48.1945 4.29709 47.8585 4.82626 47.7369 5.42093C47.662 5.71772 47.4769 6.01578 47.1801 6.01578L44.0219 5.68096C43.9456 5.67024 43.8723 5.64422 43.8063 5.60448C43.7403 5.56473 43.6831 5.51207 43.6379 5.44965C43.5928 5.38723 43.5607 5.31632 43.5437 5.24121C43.5266 5.1661 43.5249 5.08832 43.5386 5.01253C44.2819 1.14912 47.7369 -0.00255581 50.857 -0.00255581C52.6501 -0.0792313 54.4094 0.502231 55.8036 1.63235C57.4005 3.11887 57.2521 5.12413 57.2521 7.27906V12.369C57.2729 13.4999 57.7095 14.5836 58.4786 15.413C58.7018 15.7098 58.7386 16.0814 58.4786 16.2679C57.767 16.8285 56.5786 17.8685 55.9101 18.4266V18.4241ZM9.69642 10.4335C9.81784 11.6298 9.61223 12.8366 9.10155 13.9253C8.89436 14.3555 8.57391 14.7212 8.17459 14.9831C7.77527 15.245 7.31219 15.3932 6.83502 15.4118C5.56666 15.4118 4.82848 14.4453 4.82848 13.0336C4.82848 10.2432 7.31698 9.72701 9.69514 9.72701L9.69642 10.4335ZM12.9662 18.4241C12.8604 18.5166 12.7282 18.5735 12.5882 18.5869C12.4483 18.6004 12.3077 18.5696 12.1862 18.4989C11.4295 17.8866 10.7879 17.1444 10.2913 16.3072C9.64352 17.0991 8.8182 17.7272 7.88227 18.1404C6.94635 18.5536 5.92618 18.7403 4.90458 18.6854C4.23423 18.7247 3.56331 18.6185 2.93791 18.3739C2.31251 18.1294 1.74746 17.7524 1.28157 17.2688C0.815689 16.7852 0.460009 16.2065 0.238979 15.5724C0.017949 14.9383 -0.0631882 14.2639 0.00112418 13.5955C-0.0373882 12.4529 0.277173 11.3263 0.901993 10.369C1.52681 9.41169 2.43151 8.67023 3.49289 8.24558C5.48683 7.58421 7.56138 7.19675 9.65963 7.09389V6.68549C9.77068 5.86964 9.62811 5.03938 9.25123 4.30732C9.03767 4.03039 8.76113 3.80835 8.44459 3.65968C8.12805 3.511 7.78062 3.43996 7.43112 3.45244C6.82645 3.39967 6.2235 3.57113 5.73703 3.93411C5.25056 4.29709 4.91455 4.82626 4.79296 5.42093C4.71813 5.71772 4.53294 6.01578 4.23614 6.01578L1.07796 5.68096C1.00168 5.67024 0.928352 5.64422 0.862376 5.60448C0.796401 5.56473 0.739128 5.51207 0.694 5.44965C0.648873 5.38723 0.616812 5.31632 0.599749 5.24121C0.582686 5.1661 0.580968 5.08832 0.594697 5.01253C1.33795 1.14912 4.79295 -0.00255581 7.9131 -0.00255581C9.70619 -0.0792313 11.4655 0.502231 12.8597 1.63235C14.4566 3.11887 14.3082 5.12413 14.3082 7.27906V12.369C14.3291 13.4999 14.7657 14.5835 15.5346 15.413C15.7579 15.7098 15.7947 16.0814 15.5346 16.2679C14.8282 16.8247 13.6397 17.8648 12.9713 18.4241H12.9662Z" fill="white"  />
</g>
<defs>
<clipPath id="clip0_512_11000">
<rect width="105.876" height="31.875" fill="white"/>
</clipPath>
</defs>
</svg>
