<svg width="89" height="32" viewBox="0 0 89 32" fill="none" xmlns="http://www.w3.org/2000/svg">
<g clip-path="url(#clip0_512_10993)">
<path fill-rule="evenodd" clip-rule="evenodd" d="M11.3449 1.41329C5.58168 8.18081 0.0560359 16.5735 0.00111571 22.8467C-0.05665 23.9711 0.141974 25.0939 0.581974 26.1302C1.02197 27.1665 1.69183 28.0892 2.54089 28.8286C4.84061 30.8402 7.80579 31.9255 10.8607 31.8738C15.0291 31.8794 19.1671 30.1926 22.4052 28.9014C27.8625 26.7192 88.1895 0.521116 88.1895 0.521116C88.7712 0.229703 88.6625 -0.133439 87.9339 0.0470129C87.6403 0.120987 22.2539 17.8389 22.2539 17.8389C21.0154 18.1892 19.7357 18.3724 18.4487 18.3836C13.4241 18.4139 8.9531 15.6242 8.98897 9.74659C9.13215 6.8261 9.9378 3.97645 11.3449 1.41329Z" fill="white"  />
</g>
<defs>
<clipPath id="clip0_512_10993">
<rect width="88.5638" height="31.875" fill="white"/>
</clipPath>
</defs>
</svg>
